<svg viewBox="0 0 330 200" xmlns="http://www.w3.org/2000/svg"><g><g><g><g><g><line x1="51.53200149536133" y1="176.89999961853027" x2="46.53200149536133" y2="176.89999961853027" style="visibility: inherit;" fill="rgb(0, 0, 0)" stroke="rgb(204, 204, 204)" stroke-width="1px"></line><line x1="51.53200149536133" y1="154.787499666214" x2="46.53200149536133" y2="154.787499666214" style="visibility: inherit;" fill="rgb(0, 0, 0)" stroke="rgb(204, 204, 204)" stroke-width="1px"></line><line x1="51.53200149536133" y1="132.6749997138977" x2="46.53200149536133" y2="132.6749997138977" style="visibility: inherit;" fill="rgb(0, 0, 0)" stroke="rgb(204, 204, 204)" stroke-width="1px"></line><line x1="51.53200149536133" y1="110.56249976158142" x2="46.53200149536133" y2="110.56249976158142" style="visibility: inherit;" fill="rgb(0, 0, 0)" stroke="rgb(204, 204, 204)" stroke-width="1px"></line><line x1="51.53200149536133" y1="88.44999980926515" x2="46.53200149536133" y2="88.44999980926515" style="visibility: inherit;" fill="rgb(0, 0, 0)" stroke="rgb(204, 204, 204)" stroke-width="1px"></line><line x1="51.53200149536133" y1="66.33749985694885" x2="46.53200149536133" y2="66.33749985694885" style="visibility: inherit;" fill="rgb(0, 0, 0)" stroke="rgb(204, 204, 204)" stroke-width="1px"></line><line x1="51.53200149536133" y1="44.22499990463257" x2="46.53200149536133" y2="44.22499990463257" style="visibility: inherit;" fill="rgb(0, 0, 0)" stroke="rgb(204, 204, 204)" stroke-width="1px"></line><line x1="51.53200149536133" y1="22.112499952316305" x2="46.53200149536133" y2="22.112499952316305" style="visibility: inherit;" fill="rgb(0, 0, 0)" stroke="rgb(204, 204, 204)" stroke-width="1px"></line><line x1="51.53200149536133" y1="0" x2="46.53200149536133" y2="0" style="visibility: inherit;" fill="rgb(0, 0, 0)" stroke="rgb(204, 204, 204)" stroke-width="1px"></line></g><g transform="translate(41.53200149536133, 0)"><text style="text-anchor: end; visibility: hidden; font-family: Roboto, sans-serif; font-size: 12px; font-weight: 200;" x="0" y="176.89999961853027" dx="0em" dy="0.3em" fill="rgb(33, 33, 33)" stroke="none" stroke-width="1px">0.02</text><text style="text-anchor: end; visibility: inherit; font-family: Roboto, sans-serif; font-size: 12px; font-weight: 200;" x="0" y="154.787499666214" dx="0em" dy="0.3em" fill="rgb(33, 33, 33)" stroke="none" stroke-width="1px">0.03</text><text style="text-anchor: end; visibility: hidden; font-family: Roboto, sans-serif; font-size: 12px; font-weight: 200;" x="0" y="132.6749997138977" dx="0em" dy="0.3em" fill="rgb(33, 33, 33)" stroke="none" stroke-width="1px">0.04</text><text style="text-anchor: end; visibility: inherit; font-family: Roboto, sans-serif; font-size: 12px; font-weight: 200;" x="0" y="110.56249976158142" dx="0em" dy="0.3em" fill="rgb(33, 33, 33)" stroke="none" stroke-width="1px">0.05</text><text style="text-anchor: end; visibility: hidden; font-family: Roboto, sans-serif; font-size: 12px; font-weight: 200;" x="0" y="88.44999980926515" dx="0em" dy="0.3em" fill="rgb(33, 33, 33)" stroke="none" stroke-width="1px">0.06</text><text style="text-anchor: end; visibility: inherit; font-family: Roboto, sans-serif; font-size: 12px; font-weight: 200;" x="0" y="66.33749985694885" dx="0em" dy="0.3em" fill="rgb(33, 33, 33)" stroke="none" stroke-width="1px">0.07</text><text style="text-anchor: end; visibility: hidden; font-family: Roboto, sans-serif; font-size: 12px; font-weight: 200;" x="0" y="44.22499990463257" dx="0em" dy="0.3em" fill="rgb(33, 33, 33)" stroke="none" stroke-width="1px">0.08</text><text style="text-anchor: end; visibility: inherit; font-family: Roboto, sans-serif; font-size: 12px; font-weight: 200;" x="0" y="22.112499952316305" dx="0em" dy="0.3em" fill="rgb(33, 33, 33)" stroke="none" stroke-width="1px">0.09</text><text style="text-anchor: end; visibility: hidden; font-family: Roboto, sans-serif; font-size: 12px; font-weight: 200;" x="0" y="0" dx="0em" dy="0.3em" fill="rgb(33, 33, 33)" stroke="none" stroke-width="1px">0.1</text></g><line x1="51.53200149536133" y1="0" x2="51.53200149536133" y2="176.89999961853027" fill="rgb(0, 0, 0)" stroke="rgb(204, 204, 204)" stroke-width="1px"></line></g></g><g transform="translate(51, 0)" clip-path="url(#clip_0)"><clipPath id="clip_0"><rect width="278" height="176"></rect></clipPath><g><g><g><line x1="0" y1="0" x2="0" y2="176.89999961853027" fill="rgb(0, 0, 0)" stroke="rgb(66, 66, 66)" stroke-width="1px" opacity="0.25"></line><line x1="34.808499813079834" y1="0" x2="34.808499813079834" y2="176.89999961853027" fill="rgb(0, 0, 0)" stroke="rgb(66, 66, 66)" stroke-width="1px" opacity="0.25"></line><line x1="69.61699962615967" y1="0" x2="69.61699962615967" y2="176.89999961853027" fill="rgb(0, 0, 0)" stroke="rgb(66, 66, 66)" stroke-width="1px" opacity="0.25"></line><line x1="104.4254994392395" y1="0" x2="104.4254994392395" y2="176.89999961853027" fill="rgb(0, 0, 0)" stroke="rgb(66, 66, 66)" stroke-width="1px" opacity="0.25"></line><line x1="139.23399925231934" y1="0" x2="139.23399925231934" y2="176.89999961853027" fill="rgb(0, 0, 0)" stroke="rgb(66, 66, 66)" stroke-width="1px" opacity="0.25"></line><line x1="174.04249906539917" y1="0" x2="174.04249906539917" y2="176.89999961853027" fill="rgb(0, 0, 0)" stroke="rgb(66, 66, 66)" stroke-width="1px" opacity="0.25"></line><line x1="208.850998878479" y1="0" x2="208.850998878479" y2="176.89999961853027" fill="rgb(0, 0, 0)" stroke="rgb(66, 66, 66)" stroke-width="1px" opacity="0.25"></line><line x1="243.65949869155884" y1="0" x2="243.65949869155884" y2="176.89999961853027" fill="rgb(0, 0, 0)" stroke="rgb(66, 66, 66)" stroke-width="1px" opacity="0.25"></line><line x1="278.4679985046387" y1="0" x2="278.4679985046387" y2="176.89999961853027" fill="rgb(0, 0, 0)" stroke="rgb(66, 66, 66)" stroke-width="1px" opacity="0.25"></line></g><g><line x1="0" y1="176.89999961853027" x2="278.4679985046387" y2="176.89999961853027" fill="rgb(0, 0, 0)" stroke="rgb(66, 66, 66)" stroke-width="1px" opacity="0.25"></line><line x1="0" y1="154.787499666214" x2="278.4679985046387" y2="154.787499666214" fill="rgb(0, 0, 0)" stroke="rgb(66, 66, 66)" stroke-width="1px" opacity="0.25"></line><line x1="0" y1="132.6749997138977" x2="278.4679985046387" y2="132.6749997138977" fill="rgb(0, 0, 0)" stroke="rgb(66, 66, 66)" stroke-width="1px" opacity="0.25"></line><line x1="0" y1="110.56249976158142" x2="278.4679985046387" y2="110.56249976158142" fill="rgb(0, 0, 0)" stroke="rgb(66, 66, 66)" stroke-width="1px" opacity="0.25"></line><line x1="0" y1="88.44999980926515" x2="278.4679985046387" y2="88.44999980926515" fill="rgb(0, 0, 0)" stroke="rgb(66, 66, 66)" stroke-width="1px" opacity="0.25"></line><line x1="0" y1="66.33749985694885" x2="278.4679985046387" y2="66.33749985694885" fill="rgb(0, 0, 0)" stroke="rgb(66, 66, 66)" stroke-width="1px" opacity="0.25"></line><line x1="0" y1="44.22499990463257" x2="278.4679985046387" y2="44.22499990463257" fill="rgb(0, 0, 0)" stroke="rgb(66, 66, 66)" stroke-width="1px" opacity="0.25"></line><line x1="0" y1="22.112499952316305" x2="278.4679985046387" y2="22.112499952316305" fill="rgb(0, 0, 0)" stroke="rgb(66, 66, 66)" stroke-width="1px" opacity="0.25"></line><line x1="0" y1="0" x2="278.4679985046387" y2="0" fill="rgb(0, 0, 0)" stroke="rgb(66, 66, 66)" stroke-width="1px" opacity="0.25"></line></g></g></g><g><g><line x1="0" y1="221.12499952316284" x2="278.4679985046387" y2="221.12499952316284" fill="rgb(0, 0, 0)" stroke="rgb(153, 153, 153)" stroke-width="1.5px"></line></g></g><g><g><line x1="34.808499813079834" y1="0" x2="34.808499813079834" y2="176.89999961853027" fill="rgb(0, 0, 0)" stroke="rgb(153, 153, 153)" stroke-width="1.5px"></line></g></g><g><g><g><g><g><path style="fill: none;" stroke="rgb(255, 112, 67)" stroke-width="2px" d="M35.64390380859375,190.13039741134207L35.85275480747223,172.59514787105002L35.922371807098386,153.1390424985516L36.13122280597687,113.52640929744574L36.548924803733826,77.30050855512265L37.38432879924775,74.18188690611687L37.662796797752385,68.00754897489443L37.802030797004704,66.02400104374777L37.94126479625702,61.055446093620404L38.01088179588318,61.845396646802556L38.1501157951355,62.70449962208372L38.56781779289246,66.36240663229502L38.63743479251862,69.90554015750948L38.70705179214478,73.56423191514732L38.77666879177094,75.72745561774008L39.40322178840637,72.89152381167969L39.612072787284845,66.81412001408908L39.82092378616333,62.01056408030637L39.89054078578949,57.19881651979913L39.960157785415646,49.465351416776016L40.02977478504181,46.65951694505255L40.3778597831726,47.47504406988674L40.93479578018188,44.93793308265379L41.00441277980804,50.486783202721405L41.422114777565,47.91120357757694L41.979050774574276,50.532135696203994L42.18790177345276,51.12144555447129L42.257518773078914,52.85139822226521L42.744837770462034,56.704722853209475L43.092922768592835,59.52904166765635L43.64985876560211,62.153420335824734L43.858709764480594,61.002226860685894L43.92832676410675,61.53220008887605L44.55487976074219,62.326617821283016L44.69411375999451,64.66282603397897L44.76373075962067,66.19990370880416L44.83334775924683,65.42302393713507L45.32066675662995,67.6727389979208L45.66875175476074,69.9144342267856L45.80798575401306,70.67506580150089L45.87760275363922,73.61315275380552L46.15607075214386,72.47037300581098L46.50415575027466,72.4343062845207L46.57377274990082,71.45127438642564L46.7826237487793,72.66070889166956L47.20032574653626,72.73354414183767L47.26994274616242,71.21105770020674L47.40917674541474,72.3389039858688L47.618027744293215,71.85210752531688L47.757261743545534,72.90137074425812L47.8268787431717,72.93261509764761L47.96611274242401,70.15064657819636L48.10534674167633,68.40800561230901L48.174963741302484,69.20798702927917L48.662282738685604,68.22497480292907L49.21921873569488,68.52420934225214L49.288835735321044,64.81535450727104L49.3584527349472,67.83534863777008L49.63692073345184,67.16857916279321L50.33309072971344,65.51556317980412L50.402707729339596,64.29777487858829L50.541941728591915,62.41883599849806L50.82040972709655,59.61960347551303L51.029260725975035,58.76860970517916L51.0988777256012,56.7069699406438L51.168494725227355,55.21878523615453L51.37734572410584,54.08014031103424L52.21274971961975,53.371087662878644L52.63045171737671,51.820760717491794L52.83930271625519,50.32764093603521L52.97853671550751,48.539274462334085L53.048153715133665,46.811325593879936L53.187387714385984,47.46319013889444L53.46585571289063,45.360914959662956L53.74432371139527,43.92719025162063L53.88355771064759,45.20746354973476L54.23164270877838,43.645921474380266L55.20628070354462,44.12104936967875L55.554365701675415,42.78769068678432L55.62398270130158,44.13179736723015L55.90245069980622,45.827823570113715L55.97206769943238,47.45078645125415L56.25053569793702,47.609470127346725L56.320152697563174,46.69519238736999L56.45938669681549,47.39637391201523L56.66823769569397,47.14359930567694L57.01632269382476,47.18147686491015L57.085939693450925,48.67102325304401L57.15555669307708,46.74111699335045L57.50364169120788,45.101469673542944L57.573258690834045,45.47462096160231L57.6428756904602,46.86958190893118L57.85172668933868,45.77481253877248L58.478279685974115,47.248975724373736L58.61751368522644,47.19909395063148L59.0352156829834,46.36852031376107L59.452917680740356,47.19729531329467L59.940236678123476,43.052842064859334L60.14908767700195,43.071481497299686L60.42755567550659,42.26206017149396L60.70602367401123,43.80914294925456L60.845257673263546,44.06641373785048L61.12372567176819,41.38748439857769L61.19334267139435,41.26725736356111L61.26295967102051,40.939588990980866L61.40219367027283,38.26800275640806L61.750278668403624,40.99067350166228L62.098363666534425,42.467802524702705L62.16798066616059,42.2256196895432L63.28185266017914,46.503702099404016L63.76917165756226,48.545510839312854L64.18687365531922,48.932551068882674L64.25649065494538,49.82738430690005L64.39572465419769,50.4034529749554L64.81342665195466,51.30112111324741L65.43997964859008,47.02761004917026L65.57921364784241,47.087171214060305L65.64883064746856,49.568755582627446L65.85768164634705,51.082703548782966L66.275383644104,52.53706973046825L66.83231964111327,54.02407507265785L66.90193664073944,55.53515372643987L67.11078763961791,56.577921061589855L67.18040463924407,57.04439615711057L67.80695763587951,59.42786100571323L67.87657463550568,62.095806930760205L68.64236163139343,64.14592219619513L68.85121263027192,66.86675691934789L68.92082962989807,68.86132857648204L69.06006362915039,70.34834244276728L69.1992976284027,71.27391152855253L70.17393562316894,73.81690121999429L70.52202062129973,76.63387614174586L70.66125462055206,69.1239063138502L70.87010561943055,71.34876717952912L71.00933961868286,73.46749661957872L71.35742461681366,75.50096338915509L71.42704161643982,76.4043318515552L71.84474361419677,79.30447397545232L71.9839776134491,82.07739828558972L72.05359461307525,84.706708032749L72.19282861232757,86.63367735118635L72.26244561195374,88.7415257700182L72.47129661083221,88.01985388307035L72.61053061008452,89.97063555054258L72.95861560821534,91.07150647743516L73.02823260784149,92.66077426927271L73.65478560447693,93.58168297450146L73.79401960372925,95.01475592318565L74.07248760223389,96.67186376940381L74.14210460186004,98.66437324131282L74.2117216014862,99.59650608250537L74.49018959999086,88.21314398177572L74.7686575984955,86.35631266637758L74.83827459812164,82.04376068549105L75.04712559700013,82.33257419572254L75.18635959625244,84.39263069796124L75.32559359550477,87.73459230672545L75.39521059513092,90.28142585172085L75.46482759475708,92.00501680906127L75.53444459438323,94.64339249576334L75.67367859363556,95.75091387388493L75.74329559326172,97.15105708189152L76.09138059139252,98.41996568932214L76.16099759101868,100.31641730610235L76.6483165884018,102.1140829505325L76.78755058765411,103.94565964004366L77.20525258541107,106.81813975714559L77.34448658466339,109.68624751473567L77.6925715827942,110.36733483521031L78.04065658092499,110.9713420064161L78.1798905801773,112.5707984126529L79.01529457569123,113.64694084662958L79.50261357307433,115.3861878831449L79.5722305727005,116.98714038099783L79.71146457195282,118.61578429288986L79.78108157157898,121.02848593167997L79.85069857120514,122.0229873817406L79.92031557083129,122.87545783527584L80.05954957008362,124.6959739623509L80.2684005689621,125.62313589818216L80.54686856746673,126.5427231957913L80.6164855670929,126.88828041840286L80.89495356559753,127.40321687554061L81.10380456447602,127.67521160530669L81.38227256298066,128.88586972966345L81.59112356185912,130.21245329159356L81.6607405614853,131.29601742684684L81.79997456073761,132.29020866566344L81.86959156036376,133.0249989978404L82.00882555961608,134.13387751205053L82.07844255924225,135.41556501624993L82.1480595588684,136.25033424709602L82.35691055774689,136.79860926203244L82.42652755737305,137.77051428589576L82.49614455699921,136.58011863756667L82.63537855625152,137.59231408728434L82.77461255550385,138.33256365562517L82.84422955513,141.80906784710305L83.33154855251313,142.2275471791775L83.5403995513916,142.8100142901035L83.81886754989624,143.00489137150385L84.02771854877473,143.25911086031536L84.16695254802704,143.6654175484848L84.30618654727937,144.2821556355674L84.584654545784,144.28872881934146L84.86312254428864,144.85591200941195L85.07197354316712,145.58680535729L85.14159054279328,146.57061518938522L85.21120754241943,147.39511922437052L85.2808245420456,147.72590128160093L85.69852653980256,147.9868873211206L86.11622853755952,148.65978119390442L86.25546253681183,148.6248660046535L86.32507953643798,148.89575247343106L86.60354753494262,149.13031738888188L86.81239853382111,149.67919668158893L86.88201553344726,150.340681869937L87.09086653232573,150.68949185388502L87.16048353195191,150.8235872465921L87.23010053157806,151.03882045179486L87.36933453083037,151.52726969210036L87.5085685300827,152.0062126689351L87.92627052783965,152.0183839733703L88.13512152671814,152.33947314873365L88.20473852634429,152.66083217834216L88.41358952522278,152.98161309173315L88.48320652484894,152.70912698382088L88.5528235244751,153.0599885931781L88.69205752372741,153.3774759997906L88.76167452335358,153.56653691279337L89.17937652111053,153.90693865910362L89.45784451961516,153.93406241372452L89.52746151924134,153.77393732518792L89.66669551849365,154.08505130833328L89.80592951774598,154.5339676920222L89.94516351699829,154.85888391649416L90.01478051662444,155.10696081490997L90.08439751625062,155.45874140821505L90.15401451587677,155.00806172005088L90.22363151550293,154.83462882006623L90.4324825143814,156.9041735746103L90.57171651363372,156.53540468210124L90.71095051288604,156.28243314927911L90.91980151176453,156.08252184653315L91.05903551101684,156.37150821058475L91.12865251064301,156.37743685674698L91.19826951026917,156.66484738723216L91.61597150802612,157.7373917157893L91.68558850765228,158.26021066269436L91.8248225069046,157.85050351248614L92.03367350578309,157.58471780926038L92.31214150428772,157.61639852541492L92.5209925031662,157.5916521534364L92.72984350204469,157.51890685289658L92.79946050167084,157.29921807500133L92.93869450092315,157.2913960154689L93.07792850017547,150.82006319888538L93.21716249942779,153.06926868714498L93.5652474975586,153.25150124523518L93.77409849643708,153.32925568576027L93.91333249568939,153.24374803659273L94.95758749008179,153.3897383505054L95.23605548858643,153.7333200182902L95.37528948783876,154.28371919839358L95.4449064874649,153.476940681047L95.72337448596954,153.17550586510438L95.86260848522187,153.15764658398663L96.14107648372651,153.65435955071686L96.28031048297882,154.43432977967296L96.41954448223115,154.86751169050595L96.6283954811096,154.28256882944646L96.76762948036193,154.71403299147988L96.8372464799881,154.4021168905359L96.97648047924042,154.42114910302692L97.25494847774506,154.49470338520496L97.5334164762497,154.85236974549724L98.02073547363281,155.1076519830518L98.09035247325897,154.86298977538706L98.15996947288512,154.96661904594353L98.2295864725113,154.34650448705167L98.36882047176361,153.74892803711467L98.57767147064209,154.17894048049513L98.64728847026825,154.95490213339735L98.7169054698944,155.34468119819581L98.92575646877289,155.31601837364093L98.99537346839904,155.3994029254312L99.06499046802521,155.39157834547638L99.13460746765136,154.75250443598483L99.69154346466064,155.11942194067046L99.7611604642868,155.19077161812262L99.97001146316528,155.08686485097653L100.4573304605484,154.9098044869877L100.66618145942688,155.61776434014638L101.22311745643616,155.77210741475386L101.29273445606232,156.33088330697674L101.43196845531465,156.42764262547573L101.5015854549408,156.39841246479435L101.57120245456696,156.80798760834347L101.78005345344543,156.85781142136847L101.8496704530716,156.77338754732315L101.98890445232392,157.07584739204756L102.12813845157623,157.12348762940505L102.47622344970704,157.45683926737678L102.5458404493332,157.2647613659692L102.82430844783784,157.13070360696545L102.89392544746399,156.97175387824447L102.96354244709015,157.05346471707557L103.03315944671631,157.3088559696094L103.2420104455948,157.4219872678579L103.31162744522095,157.3032446569204L103.38124444484711,157.60459219830489L103.59009544372559,157.58618283679542L103.65971244335175,157.1985871557986L104.21664844036103,157.03543601601856L104.49511643886565,156.86977024387804L104.63435043811798,157.03461736405765L104.77358443737029,157.21800769825046L104.84320143699647,157.3104743386461L105.05205243587493,157.15234656913583L105.26090343475342,157.31182430707238L105.33052043437957,157.23994517550958L105.40013743400574,157.1529749994341L105.46975443363189,156.94972769402278L105.67860543251038,157.1416958035027L106.23554142951966,157.1875559777608L106.37477542877197,157.1884237075326L106.6532434272766,157.36442153330083L106.72286042690277,157.26797829196715L106.93171142578126,157.43420367931012L107.07094542503357,157.58242911843604L107.2101794242859,157.70997639565925L107.55826442241668,157.14043663615874L108.04558341979981,157.23547381518617L108.11520041942596,157.3109013023858L108.32405141830445,157.48258814527182L108.46328541755676,157.933345105813L108.88098741531373,157.9230979825114L108.95060441493987,158.10332700331696L109.0898384141922,158.09508033082136L109.22907241344451,157.85916596213133L109.50754041194915,157.26761729953537L109.78600841045379,159.41996248016895L109.92524240970612,158.98185800694864L110.27332740783692,157.72572777716024L110.34294440746307,157.47135991766157L110.41256140708924,159.017587927504L110.89988040447236,159.0316077755514L110.96949740409852,158.87631518694496L111.38719940185547,158.61242400831193L111.6656674003601,158.62083979241075L111.73528439998627,158.8251536922837L111.80490139961243,158.67599085642655L112.43145439624786,158.5726366530593L112.57068839550018,158.77409946114264L112.77953939437867,158.54411387225815L113.19724139213561,158.0038053908787L113.26685839176179,160.12747399320554L113.54532639026642,160.03850901393525L113.75417738914489,159.77574820218865L113.82379438877106,159.5179745321999L113.89341138839721,158.968306367871L114.86804938316345,159.53638761280226L115.07690038204193,159.04084383960307L115.2857513809204,158.14100794446364L115.35536838054657,157.87498746293076L115.42498538017273,157.81509692739147L115.63383637905122,157.6359762383285L115.70345337867737,156.92518968119217L115.77307037830353,155.91143590107384L117.02617637157441,155.90901437750128L117.16541037082672,155.85930445880763L117.23502737045288,155.74529074232356L117.3742613697052,155.52094383642338L117.44387836933136,155.0894387357567L117.86158036708832,154.91487679635267L117.93119736671447,156.04738580005505L118.0704313659668,157.82094638665174L118.20966536521911,157.25773621140314L118.34889936447144,157.11361410761052L118.48813336372375,156.60442315240732L118.69698436260224,155.7910696923057L118.83621836185456,155.43225333349528L118.97545236110687,155.04931041274023L119.1146863603592,155.1574605682506L119.25392035961151,154.76798825229798L119.39315435886384,154.3507052050937L120.08932435512543,153.51974270084025L120.36779235363007,152.70743087827546L120.64626035213472,152.46361906181778L120.71587735176087,149.97137704104225L120.78549435138703,152.4450513300373L120.92472835063936,151.80517490933966L121.13357934951782,150.79709591028978L121.3424303483963,150.2770892687613L121.48166434764863,149.81793995619162L121.69051534652709,149.07444110953116L122.10821734428406,148.76533727099377L122.24745134353638,148.15655879203248L122.3866853427887,147.11428999486827L122.45630234241484,148.8298213211083L122.66515334129333,147.47128933712844L122.73477034091948,146.65105256828187L122.80438734054566,130.16071207494898L123.01323833942412,130.5627224728981L123.57017433643341,130.75560571583483L123.91825933456421,128.86154348420797L124.05749333381652,129.46319560671066L124.47519533157349,128.86656618301635L124.75366333007813,129.05970416661017L124.82328032970428,129.12732336058554L124.89289732933045,129.73235318829379L124.9625143289566,130.39841620763912L125.38021632671355,129.69071284896322L125.58906732559204,129.8602795238739L126.07638632297515,132.61602793037727L126.21562032222748,127.1676447836025L126.42447132110595,127.06757331920366L126.49408832073212,127.14883045627569L126.7029393196106,126.2675985237737L127.12064131736756,125.01456451824292L127.25987531661988,124.46332129620919L127.46872631549834,128.24890425800527L127.67757731437683,128.62195719611807L127.74719431400298,127.80488621953918L127.81681131362916,127.93278848328336L127.88642831325531,128.4293077711995L127.95604531288147,127.84039384140611L128.37374731063844,128.54868256591632L128.79144930839539,128.36253189002483L129.20915130615236,126.73715067945172L129.62685330390931,126.88547842643494L129.9749383020401,130.05110990978957L130.25340630054473,129.96252109395544L130.74072529792784,129.7586787344138L130.87995929718016,127.50398582667773L131.08881029605865,127.0920754481374L131.22804429531098,123.32578563302458L131.29766129493711,126.78260865992435L131.5065122938156,127.14345212143432L131.57612929344177,127.11642168230142L131.7153632926941,127.21370474617866L131.78498029232026,126.8438077653749L131.99383129119872,127.06559455062109L133.17732028484346,127.25865507114891L133.2469372844696,127.29541126736953L133.31655428409576,127.38627754789425L133.66463928222655,127.40012596248657L133.87349028110503,127.2977496811845L134.1519582796097,126.41561221703611L134.22157527923582,126.04330906529594L134.291192278862,125.65406790893374L134.56966027736664,127.72369889861565L134.6392772769928,126.70207822471693L134.70889427661896,128.82620522566106L134.8481282758713,128.33441140641258L134.9873622751236,127.9567415633449L135.1265962743759,127.77234505486773L135.26583027362824,129.77436200463774L135.82276627063752,130.93800204589124L136.1708512687683,130.12122704969516L136.24046826839447,129.39750671857905L136.8670212650299,132.44811667908365L136.93663826465607,132.69527501594598L137.70242526054383,131.98108874592103L138.2593612575531,133.26235734401104L138.32897825717927,133.04410063212148L138.53782925605773,132.63410987543344L138.67706325531006,131.5931425714963L138.74668025493622,130.4704681312721L139.3036162519455,134.04891589236973L139.37323325157163,133.20721533285754L139.44285025119783,135.33586874080132L139.512467250824,135.1775162743445L139.72131824970245,137.15831983091047L139.86055224895478,135.76907546159194L139.9301692485809,134.61609476760367L139.9997862482071,133.41920729878112L140.55672224521638,132.1796722149228L140.90480724334716,130.20313286459364L140.97442424297333,129.04738747356663L141.18327524185182,128.00679013748834L141.67059423923493,126.99168995410696L141.80982823848723,126.19936745765905L142.50599823474886,125.39696377504684L142.85408323287965,124.91867191745106L142.92370023250578,123.53807913922344L143.06293423175813,122.76495581094561L143.13255123138427,121.34343974867255L143.55025322914122,121.14249213542911L144.03757222652436,120.52776547280095L144.1071892261505,120.35736303562209L144.73374222278596,119.69601336573423L145.0122102212906,119.0747565336833L145.1514442205429,108.23011480322536L145.42991221904754,111.48116100552821L146.05646521568298,111.36036727879986L146.1956992149353,111.31539824037854L146.4045502138138,101.91375036446988L146.5437842130661,103.9158068356765L146.61340121269225,104.2815127297978L146.96148621082307,101.82367375318536L147.17033720970153,101.9088090744353L147.51842220783234,102.53391022660853L147.65765620708464,103.21313353964872L147.9361242055893,103.56603305441551L148.0753582048416,102.11892882081183L148.14497520446778,103.76121993518682L148.21459220409395,103.17859466284897L148.49306020259857,106.94439364753366L148.84114520072936,111.2193832586683L149.04999619960785,110.82675398328335L149.18923019886014,111.50888078228671L149.39808119773863,111.21148286408062L149.60693219661712,110.21744645694288L149.88540019512178,109.66819113936369L150.3727191925049,110.24335343500412L150.44233619213105,111.32856204808282L150.5119531917572,112.44026151615239L150.99927218914033,111.83171010900108L151.13850618839263,111.41347760846762L151.27774018764495,114.96294143899519L151.48659118652344,113.6035714498692L151.5562081861496,112.9822731802386L151.97391018390655,105.09064846497286L152.04352718353272,105.16340579368017L152.600463180542,98.8225681990717L152.80931417942045,98.87412461277742L152.87893117904665,98.98807467464333L152.9485481786728,99.11802182952509L153.01816517829894,98.60740494186419L153.15739917755127,95.11287601976993L153.36625017642973,94.68452320110198L153.85356917381287,93.99716073110123L153.923186173439,93.47880777316202L154.27127117156985,90.42586166962698L154.41050517082215,87.19048093158112L154.48012217044828,87.83242857557222L154.54973917007447,88.48862326378308L155.1762921667099,88.25369837084264L155.45476016521454,89.3244592421901L155.59399416446684,89.84192675259838L155.66361116409303,90.14582700642951L155.80284516334532,94.78755697330915L156.15093016147614,91.62326640910722L156.2205471611023,93.93536200119571L156.3597811603546,87.48307704611561L156.42939815998076,83.04295590194683L156.49901515960696,86.97412987798377L156.70786615848542,86.84336465191723L156.84710015773774,86.2854808847363L156.98633415699004,86.44006034349448L157.61288715362548,86.49210958563928L157.82173815250397,87.82509896299227L158.44829114913938,87.93549705061668L158.86599314689636,88.0110872043849L158.93561014652252,87.88304071522514L159.3533121442795,83.93953301574443L159.42292914390563,83.85441412354452L159.4925461435318,82.16208283730998L159.63178014278412,81.90822022110838L160.04948214054107,83.44310055263286L160.46718413829805,83.74920458817752L160.5368011379242,86.2005036226423L161.09373713493346,81.4467197880483L161.16335413455963,81.84315750630579L161.37220513343811,79.85335523475372L161.5810561323166,79.50004473228748L161.85952413082123,79.6878008273942L161.99875813007355,76.5870263036161L162.27722612857818,78.36538730636939L162.69492812633516,66.64875645475516L162.9733961248398,70.97917740667116L163.04301312446594,71.23284490317106L163.25186412334443,71.87671386239727L163.59994912147522,72.05578263661205L163.87841711997987,74.18576143063312L164.01765111923217,76.73526811473809L164.1568851184845,59.84976768746938L164.22650211811066,60.014632999724796L164.2961191177368,60.65331295696576L164.78343811511994,66.8294523787608L164.92267211437226,67.34973987602172L164.99228911399842,67.29807236574051L165.40999111175537,67.66150341098692L165.4796081113815,68.10761114894326L165.5492251110077,72.54198979423111L165.68845911026,66.65731547838013L165.82769310951232,67.57136250393911L166.66309710502625,65.61482641999251L167.2896501016617,65.65927002607832L167.56811810016632,71.12547347018061L167.9162030982971,69.73088967601304L167.98582009792327,68.18983078412631L168.33390509605408,67.7961774286305L168.40352209568024,66.49902963747772L168.47313909530638,66.73103226248482L168.75160709381103,66.97825003391583L168.8212240934372,66.0679011983264L169.23892609119414,66.2751766662601L169.5173940896988,66.26699744206655L169.58701108932496,66.26626946525435L169.6566280889511,66.66149302824935L169.79586208820342,67.07676816784749L169.86547908782958,66.69642234795232L170.21356408596037,67.35426069616891L170.42241508483886,67.41593946994048L170.5616490840912,41.19964130010134L170.77050008296965,42.42171576594747L170.97935108184814,43.257761607453375L171.18820208072663,40.5489572739274L171.32743607997892,41.631442553907895L171.7451380777359,35.6579765378242L171.81475507736207,37.41046351831191L171.9539890766144,39.09644571342744L172.0932230758667,40.276894877663L172.71977607250213,42.370409689062406L172.78939307212832,42.286405003754865L172.85901007175445,46.68030748471458L172.92862707138062,47.46445708444684L173.90326506614687,54.31150322071026L174.18173306465147,55.64571016529813L174.46020106315612,60.2528111564017L174.52981806278228,66.81804402229949L174.73866906166074,70.56004081087501L174.80828606128694,72.43485240738362L175.0171370601654,73.18754007686398L175.15637105941772,72.14617802932112L175.29560505867002,76.8586576748158L175.64369005680086,69.81675279536672L175.8525410556793,70.21491541767587L175.99177505493165,70.14705173788657L176.06139205455779,70.30875860506401L176.20062605381014,70.95943914402851L176.40947705268857,69.98125826142099L176.61832805156706,70.69907064067971L176.75756205081942,69.63596754614625L176.96641304969788,71.09922586774358L177.17526404857634,70.05393347232092L177.2448810482025,65.52899375069778L177.453732047081,66.12037628098552L177.66258304595948,66.91721063013973L178.21951904296876,70.6652583976716L178.28913604259492,76.08282366439599L178.42837004184724,76.92924646312835L178.77645503997803,75.88825213898785L179.12454003810882,74.9701526165638L179.19415703773498,72.56380798393256L179.26377403736115,71.00309420288775L179.40300803661347,70.28938581217821L179.4726250362396,66.46219173031855L179.61185903549196,66.35560739686943L179.75109303474426,72.79542385232453L179.95994403362275,71.6928104402341L180.02956103324888,75.05780955718484L180.30802903175353,77.46549145459159L180.65611402988435,74.53373317019779L180.79534802913665,69.0242755331636L181.21305002689363,68.56083513159263L181.2826670265198,59.53421502729594L181.35228402614592,52.80256443863868L181.4219010257721,42.97205661897712L181.49151802539828,44.12148295022832L181.7003690242767,47.435173049030894L181.83960302352907,38.333384814733755L182.04845402240755,39.93776730347108L182.1180710220337,41.20968272776147L182.32692202091218,42.0567861592129L182.46615602016448,43.641573791924465L182.60539001941683,49.465849112627076L182.67500701904297,52.869017393496904L182.74462401866913,54.360174560751624L183.02309201717378,60.55606999089963L183.3015600156784,60.41187154101661L183.37117701530457,59.82493193066855L183.4407940149307,59.01663144382324L183.71926201343535,39.51397972900175L183.78887901306155,43.375782636356114L183.92811301231384,44.88553526902591L183.99773001193998,46.04291740580102L184.13696401119233,48.0714753477208L184.20658101081847,48.99695556406707L184.27619801044463,50.17775844973849L184.41543200969696,49.90949189507794L184.48504900932312,50.7258496355745L184.62428300857545,50.848295500112236L184.8331340074539,51.297778591946674L184.97236800670623,52.02019545065471L185.0419850063324,46.75538309178297L185.45968700408937,50.17200313026018L185.5293040037155,51.00675893187526L185.59892100334167,51.064260681044246L185.8773890018463,51.54976456194451L186.01662300109865,56.52374340716532L186.15585700035095,58.006100348702674L186.43432499885557,59.19549260268446L186.9216439962387,63.87927929892949L187.1304949951172,64.20752972730641L187.2697289943695,64.75761240208215L187.40896299362183,64.93361097799422L187.478579993248,68.44344288551854L187.75704799175264,68.3699168594111L187.89628199100494,72.66362894379792L187.9658989906311,78.11519087459058L188.03551599025727,83.44234963910775L188.24436698913576,83.17901632373133L188.52283498764038,81.90896809869619L188.59245198726654,81.34044933481628L188.80130298614503,81.27736368437004L189.0101539850235,78.51925667263515L189.7063239812851,82.1227759392044L189.77594098091126,85.45772575918949L189.98479197978975,74.32591563308127L190.05440897941588,74.00488635339705L190.19364297866824,73.08194235757556L190.40249397754667,79.03185205491232L190.54172797679902,78.14177620175518L190.61134497642516,77.6080613315224L190.7505789756775,77.19370865384116L190.82019597530365,76.34041378905043L190.8898129749298,76.087965516125L190.95942997455597,80.71042502907939L191.0986639738083,78.42855905306271L191.2378979730606,77.04644663111169L191.3075149726868,76.84076191142216L191.58598297119138,72.27358237308303L191.65559997081758,71.0172687980689L191.79483397006987,70.80246813177503L192.00368496894836,75.50185384197434L192.35176996707915,75.35528969110992L193.18717396259308,80.06080366576745L193.4656419610977,80.85049540538186L193.6744929599762,78.32117896688305L194.02257795810698,81.9032711408801L194.16181195735933,81.79318222841917L194.3706629562378,78.64452709126351L194.78836495399474,77.9117832076763L194.8579819536209,77.37248787782508L194.99721595287323,77.4123528030242L195.2060669517517,76.29977654447208L195.41491795063018,82.27666735807249L195.48453495025635,81.89706242896258L195.5541519498825,80.42613878704961L196.18070494651795,75.41167620558389L196.2503219461441,74.9075942000711L196.31993894577025,77.15856534869629L196.38955594539644,77.78730302328057L196.52878994464874,78.21205454970703L196.66802394390106,76.51707760937519L196.87687494277952,79.03996673755736L197.22495994091034,73.68752095090086L197.36419394016266,73.89003306050257L197.4338109397888,74.56445796510155L197.503427939415,76.06802673588474L197.57304493904115,76.22059367655554L198.12998093605043,74.29741202391658L198.75653393268584,73.23024606882774L199.10461893081663,73.40668460228424L199.66155492782593,72.55279208551704L199.7311719274521,72.13213773428639L199.94002292633056,71.7008958472995L200.2184909248352,72.35559345972752L200.4273419237137,72.72846466554975L200.70580992221832,66.3117742940316L200.9146609210968,66.02591035767749L201.12351191997527,65.33182535817089L201.19312891960146,65.90537289014075L201.2627459192276,66.23625144635665L201.4019799184799,70.62430891600486L201.95891591548917,74.96493535139695L202.09814991474153,77.51304578257185L202.23738391399382,77.09486003866459L202.37661791324615,76.34022481666783L202.72470291137694,77.16493760675516L203.07278790950775,75.82505469002018L203.62972390651703,76.77166309752943L203.6993409061432,76.81430357040878L203.76895790576935,75.08190233264793L204.04742590427398,74.74866631547772L204.25627690315247,74.91732780499385L204.46512790203093,77.46028181710994L205.0220638990402,75.94473016401437L205.16129789829256,76.42891066360141L205.43976589679718,79.13546844905072L205.50938289642335,77.48531789074467L205.57899989604948,76.7965746881001L205.64861689567567,76.11727764330064L205.78785089492797,75.23742750025247L205.9270848941803,74.50627631036916L206.13593589305876,79.26182318727795L206.55363789081574,79.85371759017025L206.69287189006803,79.12803856412806L207.18019088745118,74.1219093186078L207.4586588859558,74.58362113262413L207.59789288520815,73.18975551666655L207.87636088371278,72.32472828631113L207.94597788333894,72.6692023166336L208.08521188259124,71.73376303686268L208.29406288146973,71.1700356430346L208.43329688072205,70.73009894084788L208.64214787960051,70.13833030627588L208.78138187885284,70.4733532696155L208.9902328777313,58.63176519087921L209.0598498773575,57.55756777905068L209.12946687698366,57.95136799101908L209.82563687324523,58.22572960202823L209.89525387287142,57.69525743784481L210.03448787212372,50.237032326944515L210.10410487174985,46.33066454654844L210.17372187137605,47.19854907311941L210.2433388710022,46.70871924473046L210.4521898698807,52.03459550763054L210.52180686950683,52.136175137127715L210.66104086875913,56.59985857309779L210.86989186763762,57.297332243860716L211.00912586688997,57.35253564446173L211.14835986614227,58.47032089220529L211.2875938653946,57.99206304535525L211.91414686203004,59.42456525845225L212.19261486053466,59.373813411411504L212.331848859787,51.514756335104515L212.4710828590393,51.52281665337008L212.6103168582916,52.60086729386901L212.74955085754394,53.31388746744906L212.8191678571701,51.51470590424337L213.0280188560486,51.106000904694895L213.44572085380554,51.69094119605501L213.5153378534317,52.45864985877185L213.79380585193636,53.054617853215824L214.00265685081482,60.37014334530808L214.2115078496933,59.75253660568154L214.35074184894563,46.87840311554477L214.4203588485718,43.28949565828617L214.69882684707642,42.69871699246287L214.97729484558107,44.441581913979995L215.18614584445956,8.437191515457652L215.2557628440857,11.353497728126996L215.32537984371186,13.164957803907097L215.394996843338,15.070273031211256L215.60384784221648,16.3963064320417L215.88231584072113,18.092507824529008L216.3000178384781,-34.48494969309276L217.34427283287047,-2.633956254905846L217.4835068321228,6.245726845841367L217.62274083137513,15.624666304129889L217.69235783100126,18.97316611525915L217.90120882987975,21.102038391376055L217.9708258295059,23.851025196951184L218.11005982875824,28.72877698413034L218.31891082763673,29.754661360580734L218.3885278272629,35.24667485387012L218.5277618265152,40.4082735585418L218.94546382427217,39.635605779800166L219.15431482315066,45.32282494767363L219.3631658220291,46.48628488451814L219.43278282165528,46.951361132122216L219.71125082015993,46.36665481289614L220.12895281791685,48.39905989283132L221.03397381305695,45.95545359486729L221.31244181156157,46.30978547839826L221.4516758108139,52.864606288101264L221.7997608089447,52.99310106343114L222.00861180782317,56.79665430748069L222.1478458070755,58.58717872466588L222.42631380558012,59.88641432459689L222.77439880371094,60.8372802472327L223.0528668022156,61.14140406504841L223.3313348007202,61.431194100653265L223.54018579959867,62.20597754733426L224.16673879623414,66.04465475840655L224.5844407939911,66.23484471542591L225.2806107902527,65.20781017897444L225.35022778987886,64.03484856619944L225.419844789505,55.60341321250994L225.62869578838348,56.34558664421419L225.69831278800964,55.43158697284544L226.04639778614043,60.838734239497356L226.18563178539276,63.161250757045636L226.4640997838974,61.64081008487892L226.53371678352357,61.434553678068994L226.6033337831497,61.50138721628425L226.67295078277587,62.06846245774757L226.74256778240203,55.061462451173995L226.8121847820282,37.38215884390325L226.88180178165436,42.41058631179304L227.43873777866364,43.306441089049514L227.64758877754213,44.99157095945566L228.06529077529905,45.69811438664671L229.0399287700653,45.159608166893015L229.10954576969147,51.50413846739457L229.17916276931763,51.20304629597857L229.66648176670074,50.96799587407573L230.01456676483153,51.50016603589482L230.22341776371002,51.24961275820567L230.36265176296234,55.01769671227328L230.4322687625885,55.22757748141641L230.50188576221467,56.2848897806257L230.5715027618408,57.363437474495775L230.84997076034546,56.93261360628158L231.40690675735473,56.68362600737343L231.4765237569809,58.12583194327236L231.68537475585936,57.3172026295129L231.8246087551117,57.37757692745853L231.89422575473785,57.15142889277838L232.03345975399017,61.26518301821125L232.8688637495041,60.32960615007532L233.0080977487564,59.89035911958432L233.2169487476349,38.23193292181511L233.35618274688719,37.841878529075046L233.70426774501803,38.35880102051864L233.91311874389646,39.433867227044196L234.12196974277495,38.31449298116435L234.7485227394104,42.16062366236938L234.81813973903658,44.1707463222656L235.02699073791504,44.259978610839255L235.23584173679353,52.312803527800774L235.37507573604583,54.061326502894L235.444692735672,50.76507694361339L235.86239473342894,53.47582073171609L236.07124573230743,54.0345441853666L236.1408627319336,53.742674771395414L236.48894773006438,48.46865255787827L236.6281817293167,49.14604507678111L236.767415728569,49.754017027514514L236.9762667274475,51.17162385255334L237.04588372707366,52.89163439760423L237.11550072669985,53.46840452003851L237.60281972408293,52.93709633807437L237.95090472221375,53.502373285037656L238.09013872146605,53.57250647273344L238.1597557210922,53.70068088390534L238.2293727207184,53.53237843938991L238.50784071922303,58.31149182192098L238.5774577188492,58.29315413781861L238.99515971660614,58.65013463261129L239.27362771511076,58.34684437449867L239.48247871398925,57.43389977863258L239.55209571361542,56.69962146428399L239.69132971286774,60.18465068987237L240.17864871025085,54.991943422059585L240.24826570987702,62.411464203650965L240.5963507080078,61.19378327622149L241.43175470352173,61.004699254430875L241.77983970165252,60.254922676839364L241.91907370090485,60.673316736278L241.988690700531,59.099402343692994L242.1975416994095,59.54307356546833L242.26715869903563,59.538583517757885L242.89371169567107,56.13444229459801L243.31141369342805,59.8952707477535L243.58988169193267,63.65458071125178L243.65949869155884,62.820209889106245L243.9379666900635,67.64174912697999L244.0772006893158,67.53827908769482L244.2164346885681,66.5310365468991L244.3556686878204,63.73304767567736L244.49490268707277,62.91656939477373L244.70375368595126,63.09272429218556L244.7733706855774,68.07395901150649L244.84298768520355,70.60417730562968L245.05183868408204,69.9509543864387L245.12145568370818,70.41802338431003L245.19107268333434,69.60099546608451L245.26068968296053,69.45042810673107L245.46954068183896,66.76753024735835L245.53915768146516,67.58431087710053L245.60877468109132,67.24284282405944L245.8176256799698,66.82473777558282L245.88724267959594,66.99166601947384L246.02647667884824,66.94675714120872L246.09609367847443,68.70784306173574L246.37456167697908,68.17929635594102L246.51379567623138,68.62235160767098L246.58341267585755,71.77912451696471L246.6530296754837,76.92784017844069L246.93149767398836,79.68726739484629L247.07073167324066,78.50379849860714L247.20996567249298,77.53936666343785L247.41881667137145,80.23707599570461L248.0453696680069,78.83726790739802L248.25422066688537,78.26379651154001L248.3934546661377,75.47754735322401L248.53268866539,75.45246294127367L248.67192266464235,75.19571822907993L248.81115666389465,74.40837585246616L249.02000766277314,72.86072312005932L249.15924166202547,72.2013014265017L249.4377096605301,71.43194929342052L249.71617765903474,70.57580121013987L249.85541165828704,74.74572076471539L250.06426265716553,75.61314357454864L250.34273065567018,78.40364510877488L250.6211986541748,76.03531175001856L250.8300496530533,75.15223358144898" fill="none"></path></g></g></g></g><g opacity="0.2"><g><g><g><path style="fill: none;" stroke="rgb(255, 112, 67)" stroke-width="2px" d="M35.64390380859375,195.8140825304256L35.85275480747223,140.26349695141366L35.922371807098386,100.74205565614493L36.13122280597687,-25.01297228977471L36.548924803733826,-76.98537700785842L37.38432879924775,58.65031811054719L37.662796797752385,33.040341050827266L37.802030797004704,53.50750147188736L37.94126479625702,26.659536250188637L38.01088179588318,67.77224943514723L38.1501157951355,69.62213914915422L38.56781779289246,97.71945211173707L38.63743479251862,102.02427121416636L38.70705179214478,108.43747429169747L38.77666879177094,97.3022367727973L39.40322178840637,43.42095325837074L39.612072787284845,1.250604790732572L39.82092378616333,8.386973983217542L39.89054078578949,1.7739527000976292L39.960157785415646,-42.216169005493924L40.02977478504181,12.501728137073213L40.3778597831726,57.64925830859417L40.93479578018188,12.560791357342486L41.00441277980804,122.79976306265726L41.422114777565,13.685958059794372L41.979050774574276,85.99618545536107L42.18790177345276,59.230900504491174L42.257518773078914,77.03372482548806L42.744837770462034,111.36313013187255L43.092922768592835,100.1426010393785L43.64985876560211,100.37700047212078L43.858709764480594,44.03377741579226L43.92832676410675,69.43180236149148L44.55487976074219,74.29266420191189L44.69411375999451,100.19968724809064L44.76373075962067,89.7973361509669L44.83334775924683,53.3926700506107L45.32066675662995,102.79472085552827L45.66875175476074,105.17926863251674L45.80798575401306,82.72694148165301L45.87760275363922,120.48093444484708L46.15607075214386,54.12492218117921L46.50415575027466,71.8518457334786L46.57377274990082,55.48624291413033L46.7826237487793,92.40696669373466L47.20032574653626,73.92866342405155L47.26994274616242,46.11153418685485L47.40917674541474,91.01505170693696L47.618027744293215,63.757416740408196L47.757261743545534,90.41796126649092L47.8268787431717,73.45615766189736L47.96611274242401,23.371008176250413L48.10534674167633,39.00775273486991L48.174963741302484,82.74681044780218L48.662282738685604,51.539369991667655L49.21921873569488,73.61758065553707L49.288835735321044,1.5192806613466043L49.3584527349472,119.50350816854993L49.63692073345184,55.73419311358711L50.33309072971344,37.105109762480154L50.402707729339596,43.3236513395673L50.541941728591915,29.993420264266696L50.82040972709655,11.22181085498694L51.029260725975035,44.029131438633L51.0988777256012,20.938888558668495L51.168494725227355,29.35886545481305L51.37734572410584,34.26447365680984L52.21274971961975,41.01407348833485L52.63045171737671,24.76625113250263L52.83930271625519,24.23843847203772L52.97853671550751,17.253804916562515L53.048153715133665,16.548538993748835L53.187387714385984,58.89199129831008L53.46585571289063,8.465444866939313L53.74432371139527,18.740814159258207L53.88355771064759,67.71855709627482L54.23164270877838,16.165690705710517L55.20628070354462,52.489208719194686L55.554365701675415,19.28594214594432L55.62398270130158,67.8402256825199L55.90245069980622,75.76428570465458L55.97206769943238,76.11627613730535L56.25053569793702,50.41393968767482L56.320152697563174,30.52742756094395L56.45938669681549,59.80266872190962L56.66823769569397,42.668815686556755L57.01632269382476,47.852342288197164L57.085939693450925,75.06536269392002L57.15555669307708,12.52856606896126L57.50364169120788,16.02230794252963L57.573258690834045,52.095091465280724L57.6428756904602,71.6283610520413L57.85172668933868,26.337135090509584L58.478279685974115,73.43162624349263L58.61751368522644,46.31285986375597L59.0352156829834,31.60751839989326L59.452917680740356,61.930542735945465L59.940236678123476,-30.643616530156486L60.14908767700195,43.40301187848978L60.42755567550659,27.8617899282723L60.70602367401123,71.33933843748514L60.845257673263546,48.64551932491791L61.12372567176819,-6.304001196663371L61.19334267139435,39.126505229068215L61.26295967102051,35.10407751493054L61.40219367027283,-9.319125047346759L61.750278668403624,89.49575951302295L62.098363666534425,68.78736249425218L62.16798066616059,37.90975346623226L63.28185266017914,122.75280903817543L63.76917165756226,84.94191109232862L64.18687365531922,55.8326318140359L64.25649065494538,65.78220607683599L64.39572465419769,60.675881776501534L64.81342665195466,67.31000765799381L65.43997964859008,-29.193297326941874L65.57921364784241,48.14958597581173L65.64883064746856,93.83772172008184L65.85768164634705,78.09233213884988L66.275383644104,78.4858398142004L66.83231964111327,80.55723719808755L66.90193664073944,82.49983227902766L67.11078763961791,75.1870312801651L67.18040463924407,65.36960376486286L67.80695763587951,101.96833002464773L67.87657463550568,109.71653486877565L68.64236163139343,100.74089416185512L68.85121263027192,115.43676244533991L68.92082962989807,104.46848355243941L69.06006362915039,96.8958126219402L69.1992976284027,87.79871750502663L70.17393562316894,119.22052367679116L70.52202062129973,126.93136300248932L70.66125462055206,-64.97275823500004L70.87010561943055,111.076908283689L71.00933961868286,111.30179334831257L71.35742461681366,111.8138887668983L71.42704161643982,92.53685635303813L71.84474361419677,131.09725585528943L71.9839776134491,131.59958977931183L72.05359461307525,131.66527598829748L72.19282861232757,121.04953120622596L72.26244561195374,126.38877218063486L72.47129661083221,75.13014277260866L72.61053061008452,124.81408247538043L72.95861560821534,110.73485233411279L73.02823260784149,121.04821319852121L73.65478560447693,110.03120920828559L73.79401960372925,120.61313061763387L74.07248760223389,126.27254861372006L74.14210460186004,134.25682511286567L74.2117216014862,116.24755136001542L74.49018959999086,-115.13494527098985L74.7686575984955,53.18615471837211L74.83827459812164,5.004043607426338L75.04712559700013,87.49201711213045L75.18635959625244,121.19443791581547L75.32559359550477,147.4375611642546L75.39521059513092,135.78015370537548L75.46482759475708,122.79694582118836L75.53444459438323,141.77834910687227L75.67367859363556,115.53710401941244L75.74329559326172,122.16521649075177L76.09138059139252,121.08973044122095L76.16099759101868,134.19782779298163L76.6483165884018,134.2308274108894L76.78755058765411,136.6684579481868L77.20525258541107,158.1379385160676L77.34448658466339,160.9282184898682L77.6925715827942,122.53579083203958L78.04065658092499,121.76272165036448L78.1798905801773,141.14731996802885L79.01529457569123,132.8738149156232L79.50261357307433,146.46053852781702L79.5722305727005,145.59076053080562L79.71146457195282,147.71426864431947L79.78108157157898,164.13564790222327L79.85069857120514,139.79156781763032L79.92031557083129,138.10644554181383L80.05954957008362,157.2230187551684L80.2684005689621,142.18872728084364L80.54686856746673,142.97302424065361L80.6164855670929,133.06238063043267L80.89495356559753,136.6036531568537L81.10380456447602,132.53498808492364L81.38227256298066,150.51695436564103L81.59112356185912,153.91485236642933L81.6607405614853,150.65636663061133L81.79997456073761,150.05374055780536L81.86959156036376,146.1537557594393L82.00882555961608,153.9466328272102L82.07844255924225,158.31600135697983L82.1480595588684,151.16552124450584L82.35691055774689,146.59489293822034L82.42652755737305,155.13601533630214L82.49614455699921,115.31071148347652L82.63537855625152,155.67774945314852L82.77461255550385,151.55901244476004L82.84422955513,203.92576094933196L83.33154855251313,149.7047650677792L83.5403995513916,153.2173091450107L83.81886754989624,146.48688220681578L84.02771854877473,147.80141366624815L84.16695254802704,150.9251660644477L84.30618654727937,155.30182894310832L84.584654545784,144.40617639351382L84.86312254428864,154.990169546223L85.07197354316712,158.64619523721325L85.14159054279328,164.14905451184507L85.21120754241943,162.12713596094918L85.2808245420456,153.6362296564185L85.69852653980256,152.65012100436627L86.11622853755952,160.68288783072458L86.25546253681183,148.00100945803678L86.32507953643798,153.73589163276824L86.60354753494262,153.321472941427L86.81239853382111,159.4864580991863L86.88201553344726,162.15996670911977L87.09086653232573,156.9219610827582L87.16048353195191,153.21957858952732L87.23010053157806,154.8845682976537L87.36933453083037,160.25479480944654L87.5085685300827,160.56388409130756L87.92627052783965,152.23585882643997L88.13512152671814,158.07664292024842L88.20473852634429,158.40282511453046L88.41358952522278,158.71327771061112L88.48320652484894,147.84038550656808L88.5528235244751,159.32913328575358L88.69205752372741,159.05029639949072L88.76167452335358,156.94465140915034L89.17937652111053,159.98919154429421L89.45784451961516,154.41870611808628L89.52746151924134,150.91284269240825L89.66669551849365,159.64399708887106L89.80592951774598,162.55515072551978L89.94516351699829,160.66444807918026L90.01478051662444,159.5395696909138L90.08439751625062,161.74431650432942L90.15401451587677,146.95536804547046L90.22363151550293,151.73574904041936L90.4324825143814,193.8825731299147L90.57171651363372,149.94628174212716L90.71095051288604,151.76236455850722L90.91980151176453,152.51052751333654L91.05903551101684,161.53508689997383L91.12865251064301,156.48336930635696L91.19826951026917,161.80027005017027L91.61597150802612,176.90150807834837L91.68558850765228,167.60188872127713L91.8248225069046,150.52989555379207L92.03367350578309,152.83568413287335L92.31214150428772,158.1824665826179L92.5209925031662,157.14948628156537L92.72984350204469,156.21910052400568L92.79946050167084,153.3738390350465L92.93869450092315,157.15163216285967L93.07792850017547,35.190868322288566L93.21716249942779,193.25787248744112L93.5652474975586,156.50761652935034L93.77409849643708,154.71856522723996L93.91333249568939,151.71590478691465L94.95758749008179,155.99828068939644L95.23605548858643,159.87240782410487L95.37528948783876,164.1182048940057L95.4449064874649,139.06149039977464L95.72337448596954,147.78949393406828L95.86260848522187,152.83853844330898L96.14107648372651,162.52958549482165L96.28031048297882,168.37077322848964L96.41954448223115,162.60757036320229L96.6283954811096,143.83085779284067L96.76762948036193,162.42339938033334L96.8372464799881,148.8288253847481L96.97648047924042,154.76121513281097L97.25494847774506,155.8089653577049L97.5334164762497,161.24312348072644L98.02073547363281,159.66901452261692L98.09035247325897,150.4913850161688L98.15996947288512,156.81825858903855L98.2295864725113,143.26634685534654L98.36882047176361,143.0714794161987L98.57767147064209,161.86236880693457L98.64728847026825,168.81972372169545L98.7169054698944,162.30922284413498L98.92575646877289,154.80387327593013L98.99537346839904,156.889311560647L99.06499046802521,155.25176936297214L99.13460746765136,143.3335817233853L99.69154346466064,161.6754753144005L99.7611604642868,156.46564210272803L99.97001146316528,153.23026680825805L100.4573304605484,151.74610363844982L100.66618145942688,168.26753615624074L101.22311745643616,158.52989753236503L101.29273445606232,166.31504777996685L101.43196845531465,158.15653066225278L101.5015854549408,155.87613020658432L101.57120245456696,164.12624474100468L101.78005345344543,157.74805948067925L101.8496704530716,155.2649082522789L101.98890445232392,162.48017668098967L102.12813845157623,157.97471973693018L102.47622344970704,163.41314079112178L102.5458404493332,153.83272813010095L102.82430844783784,154.73536982547557L102.89392544746399,154.13165227753908L102.96354244709015,158.51346774257047L103.03315944671631,161.87216737046458L103.2420104455948,159.44340867252978L103.31162744522095,155.18156074004955L103.38124444484711,162.98904709947283L103.59009544372559,157.25724576775121L103.65971244335175,150.27305703987636L104.21664844036103,154.1202638672152L104.49511643886565,153.90966682986596L104.63435043811798,159.98009317235733L104.77358443737029,160.49481225003032L104.84320143699647,158.96266124344683L105.05205243587493,154.32693159409465L105.26090343475342,160.16136041950173L105.33052043437957,155.95561430872914L105.40013743400574,155.5989984927895L105.46975443363189,153.31812025932805L105.67860543251038,160.57176742489162L106.23554142951966,158.0069820942781L106.37477542877197,157.20392823731984L106.6532434272766,160.50913734627136L106.72286042690277,155.54473776309442L106.93171142578126,160.40430630845452L107.07094542503357,160.23091003857195L107.2101794242859,159.98898148681627L107.55826442241668,146.9639433330995L108.04558341979981,158.93359093600884L108.11520041942596,158.65863393492685L108.32405141830445,160.550275661756L108.46328541755676,165.98743637107992L108.88098741531373,157.74000315858393L108.95060441493987,161.32364551393874L109.0898384141922,157.94772941040128L109.22907241344451,153.64386586355792L109.50754041194915,146.69787052770238L109.78600841045379,197.87790342939746L109.92524240970612,151.15384040122245L110.27332740783692,135.28128778912622L110.34294440746307,152.92633423154186L110.41256140708924,186.6454731392069L110.89988040447236,159.28211336088648L110.96949740409852,156.10155894938612L111.38719940185547,153.8972363697005L111.6656674003601,158.7712123867832L111.73528439998627,162.47581901801584L111.80490139961243,156.01076057485082L112.43145439624786,156.72591155545015L112.57068839550018,162.37382169676422L112.77953939437867,154.43474874311758L113.19724139213561,148.34961425839597L113.26685839176179,198.07302417315105L113.54532639026642,158.44888948381163L113.75417738914489,155.08075786328035L113.82379438877106,154.91209406481266L113.89341138839721,149.14687711900146L114.86804938316345,169.68682039678248L115.07690038204193,150.18650512141483L115.2857513809204,142.06280811975074L115.35536838054657,153.12175358641605L115.42498538017273,156.74497736065425L115.63383637905122,154.43546129103296L115.70345337867737,144.2249091463694L115.77307037830353,137.79775989981238L117.02617637157441,155.8657467771353L117.16541037082672,154.97109138469668L117.23502737045288,153.70810226406834L117.3742613697052,151.5123302593673L117.44387836933136,147.3793381738971L117.86158036708832,151.7958172415635L117.93119736671447,176.28297118128154L118.0704313659668,189.5107930579228L118.20966536521911,147.19433931743862L118.34889936447144,154.53845123683723L118.48813336372375,147.5062376032204L118.69698436260224,141.258131465806L118.83621836185456,149.0209497203604L118.97545236110687,148.20691521171193L119.1146863603592,157.08987938311788L119.25392035961151,147.80892631016525L119.39315435886384,146.89472321595548L120.08932435512543,138.67216739888673L120.36779235363007,138.19310454840138L120.64626035213472,148.1072079288473L120.71587735176087,105.44018473276904L120.78549435138703,196.64447680970932L120.92472835063936,140.37191132267782L121.13357934951782,132.7848164453597L121.3424303483963,140.9856498479445L121.48166434764863,141.61389469551165L121.69051534652709,135.78965983594603L122.10821734428406,143.2422932147348L122.24745134353638,137.27895087948056L122.3866853427887,128.4911097953911L122.45630234241484,179.482805574238L122.66515334129333,123.19714238564049L122.73477034091948,131.9951238915084L122.80438734054566,-164.48744722375687L123.01323833942412,137.74581392114877L123.57017433643341,134.20202894254055L123.91825933456421,95.01858248560772L124.05749333381652,140.2134703214701L124.47519533157349,118.20603667134597L124.75366333007813,132.5106790803191L124.82328032970428,130.33553801497152L124.89289732933045,140.54298048520667L124.9625143289566,142.29957996636156L125.38021632671355,117.04552264976222L125.58906732559204,132.89008407322876L126.07638632297515,181.85553246962448L126.21562032222748,29.816345929133043L126.42447132110595,125.27950394612157L126.49408832073212,128.60072684868584L126.7029393196106,110.52181286373568L127.12064131736756,102.62544747849714L127.25987531661988,114.61374900920279L127.46872631549834,195.88941490830044L127.67757731437683,135.2876389387535L127.74719431400298,113.20552367705875L127.81681131362916,130.2181364786706L127.88642831325531,137.3010769338241L127.95604531288147,117.31772419098647L128.37374731063844,141.2043320388076L128.79144930839539,125.03640566252791L129.20915130615236,97.69496188107311L129.62685330390931,129.53578741482332L129.9749383020401,186.6143743355358L130.25340630054473,128.37962281866527L130.74072529792784,126.11643883864014L130.87995929718016,87.21730311871902L131.08881029605865,119.73209189229499L131.22804429531098,56.03000346782276L131.29766129493711,188.54886160970466L131.5065122938156,133.59097585797227L131.57612929344177,126.63344383592607L131.7153632926941,128.95195118935823L131.78498029232026,120.23451642934708L131.99383129119872,131.02846409064944L133.17732028484346,130.7082458812314L133.2469372844696,127.95216820736918L133.31655428409576,129.009869390434L133.66463928222655,127.64756838925246L133.87349028110503,125.4684980134351L134.1519582796097,110.65364658440366L134.22157527923582,119.39102444849736L134.291192278862,118.69913630388693L134.56966027736664,164.7037092229721L134.6392772769928,108.4478371272761L134.70889427661896,166.77994616640015L134.8481282758713,119.5470765607402L134.9873622751236,121.20856531090081L135.1265962743759,124.4775621581642L135.26583027362824,165.54624976700995L135.82276627063752,151.72983448084426L136.1708512687683,115.52715306124155L136.24046826839447,116.46612646275251L136.8670212650299,186.9561852180544L136.93663826465607,137.1114815254953L137.70242526054383,119.2200623740945L138.2593612575531,156.15596795494798L138.32897825717927,129.14430617631888L138.53782925605773,125.30842597769276L138.67706325531006,112.99321734846741L138.74668025493622,110.41060596364709L139.3036162519455,197.98835041566878L139.37323325157163,118.16777326016734L139.44285025119783,173.37048718060586L139.512467250824,132.34808635484143L139.72131824970245,172.55116828481613L139.86055224895478,110.94616191937743L139.9301692485809,114.01472274494041L139.9997862482071,112.03331233709532L140.55672224521638,110.0317528864638L140.90480724334716,94.88647692585063L140.97442424297333,108.3966160528501L141.18327524185182,109.41347547216387L141.67059423923493,108.85395648885148L141.80982823848723,112.04220888910241L142.50599823474886,111.05967533294933L142.85408323287965,116.37258910345578L142.92370023250578,98.86975157360897L143.06293423175813,108.95084653024718L143.13255123138427,95.94389803227818L143.55025322914122,117.55197534786197L144.03757222652436,109.54387585945292L144.1071892261505,117.3126251486787L144.73374222278596,107.87906737738597L145.0122102212906,107.97418634592842L145.1514442205429,-85.54112517268891L145.42991221904754,169.5706091861899L146.05646521568298,109.20203408612876L146.1956992149353,110.5118948557574L146.4045502138138,-66.07418432367005L146.5437842130661,139.68840076454072L146.61340121269225,110.8159180455033L146.96148621082307,57.90719241641446L147.17033720970153,103.43000056921953L147.51842220783234,113.70317043618113L147.65765620708464,115.34944443489998L147.9361242055893,109.87161495033624L148.0753582048416,76.26217959022158L148.14497520446778,133.1055536203115L148.21459220409395,92.76829026844473L148.49306020259857,174.23140569457686L148.84114520072936,187.6045749896339L149.04999619960785,103.81128372310846L149.18923019886014,123.69707094560171L149.39808119773863,105.8975993067038L149.60693219661712,92.45607895583305L149.88540019512178,99.85413857809687L150.3727191925049,120.5203099250266L150.44233619213105,130.71898764402513L150.5119531917572,132.30402370976188L150.99927218914033,100.9581594944356L151.13850618839263,103.94053085365586L151.27774018764495,178.3844932787705L151.48659118652344,89.31445107813778L151.5562081861496,101.88096258891888L151.97391018390655,-35.91630635302348L152.04352718353272,106.46342825190268L152.600463180542,-14.47503938757258L152.80931417942045,99.79533072182038L152.87893117904665,101.02412578005853L152.9485481786728,101.43990778561937L153.01816517829894,89.48374093026523L153.15739917755127,32.672896977838256L153.36625017642973,87.0307473656593L153.85356917381287,81.71541999354352L153.923186173439,84.2169162416844L154.27127117156985,35.87605110270106L154.41050517082215,29.380942083867673L154.48012217044828,99.30270062952424L154.54973917007447,100.21346042860532L155.1762921667099,84.0560781139637L155.45476016521454,108.45673367928319L155.59399416446684,99.08799717441987L155.66361116409303,95.57589380601465L155.80284516334532,177.72563770226043L156.15093016147614,35.083961422336735L156.2205471611023,135.2477115428476L156.3597811603546,-27.80586356634032L156.42939815998076,3.7072064014302892L156.49901515960696,157.21604978942952L156.70786615848542,84.5068614616339L156.84710015773774,76.31725583718398L156.98633415699004,89.20207444621121L157.61288715362548,87.42212151603773L157.82173815250397,111.64285255456205L158.44829114913938,89.90808174835882L158.86599314689636,89.36172636699766L158.93561014652252,85.59511571080454L159.3533121442795,13.477235064650321L159.42292914390563,82.33351618178405L159.4925461435318,51.92363513798858L159.63178014278412,77.37222215426142L160.04948214054107,110.86822647628571L160.46718413829805,89.21864839309849L160.5368011379242,130.00012976675617L161.09373713493346,-3.4935309923356073L161.16335413455963,88.92667673630294L161.37220513343811,44.29971842041893L161.5810561323166,73.18711933916452L161.85952413082123,83.04261256448967L161.99875813007355,21.182621133470064L162.27722612857818,110.14100748763973L162.69492812633516,-142.7031193278549L162.9733961248398,148.35481215128158L163.04301312446594,75.76535658591469L163.25186412334443,83.3813158319669L163.59994912147522,75.25536997965658L163.87841711997987,112.24406176908543L164.01765111923217,122.289661130725L164.1568851184845,-241.85907956957038L164.22650211811066,62.96043395643997L164.2961191177368,72.0651982306856L164.78343811511994,177.1842454436625L164.92267211437226,76.64619761009787L164.99228911399842,66.37488119147109L165.40999111175537,74.15526189869132L165.4796081113815,76.07863054223833L165.5492251110077,151.775132758147L165.68845911026,-38.48960107088082L165.82769310951232,83.90348577194584L166.66309710502625,30.655587335134932L167.2896501016617,66.45338502538549L167.56811810016632,168.79518406574255L167.9162030982971,44.81257169343488L167.98582009792327,40.65430681022603L168.33390509605408,60.76240898231861L168.40352209568024,43.32169080310648L168.47313909530638,70.87643765647934L168.75160709381103,71.39551851590026L168.8212240934372,49.80185690958722L169.23892609119414,69.97875908386794L169.5173940896988,66.12085168147614L169.58701108932496,66.25326203051495L169.6566280889511,73.72331782365093L169.79586208820342,74.49687302066715L169.86547908782958,59.90043194340972L170.21356408596037,79.10846665392603L170.42241508483886,68.51801114468947L170.5616490840912,-427.23119581004136L170.77050008296965,64.25765008965114L170.97935108184814,58.1961656056817L171.18820208072663,-7.851754119451897L171.32743607997892,60.97320783959765L171.7451380777359,-71.07546340993565L171.81475507736207,68.72376862249781L171.9539890766144,69.2214483318128L172.0932230758667,61.36907145372041L172.71977607250213,79.7771743380291L172.78939307212832,40.7854156266564L172.85901007175445,125.19022539922082L172.92862707138062,61.47558295136081L173.90326506614687,176.654006825266L174.18173306465147,79.48521915632986L174.46020106315612,142.57214395970462L174.52981806278228,184.12512938088804L174.73866906166074,137.42175701429062L174.80828606128694,105.93384451858452L175.0171370601654,86.63650654852302L175.15637105941772,53.539199557186684L175.29560505867002,161.06088832167387L175.64369005680086,-56.007472126109974L175.8525410556793,77.32925510308645L175.99177505493165,68.934468629199L176.06139205455779,73.19812470349922L176.20062605381014,82.58574990628128L176.40947705268857,52.503196075961384L176.61832805156706,83.52488805875535L176.75756205081942,50.64052168721828L176.96641304969788,97.2446151234551L177.17526404857634,51.376727840901054L177.2448810482025,-15.322287690380847L177.453732047081,76.68715469952309L177.66258304595948,81.15498664238595L178.21951904296876,137.63509303640132L178.28913604259492,172.88347097737716L178.42837004184724,92.053065149912L178.77645503997803,57.28784412085441L179.12454003810882,58.56561964042046L179.19415703773498,29.567423698994006L179.26377403736115,43.11637815289848L179.40300803661347,57.53689815176392L179.4726250362396,-1.921823279513184L179.61185903549196,64.45116657090159L179.75109303474426,187.8615782545127L179.95994403362275,51.99139720910923L180.02956103324888,135.18335981666303L180.30802903175353,120.4857698856139L180.65611402988435,22.149297409425323L180.79534802913665,-29.418297717239632L181.21305002689363,60.28011701295663L181.2826670265198,-101.75275174192933L181.4219010257721,-132.6787151776174L181.49151802539828,64.65934588786743L181.7003690242767,106.64393764461686L181.83960302352907,-124.29668042827345L182.04845402240755,68.60475252675856L182.1180710220337,63.93617153536541L182.32692202091218,57.19276634005274L182.46615602016448,71.95843960660055L182.60539001941683,153.53356097499227L182.67500701904297,113.67657139318956L182.74462401866913,81.00405828509535L183.02309201717378,171.2638619220351L183.3015600156784,57.83534452140908L183.37117701530457,49.33753927029882L183.4407940149307,44.57397934868185L183.71926201343535,-308.9579292131856L183.78887901306155,112.37818552814042L183.92811301231384,71.86168136597531L183.99773001193998,66.72293407610391L184.13696401119233,84.31759555523128L184.20658101081847,65.5333662221785L184.27619801044463,71.27625529371636L184.41543200969696,45.11612534293596L184.48504900932312,65.31246813086179L184.62428300857545,53.03614896647483L184.8331340074539,59.32910855359163L184.97236800670623,64.92828536002241L185.0419850063324,-47.31588679220831L185.45968700408937,111.21991211965477L185.5293040037155,65.92211259469559L185.59892100334167,52.09169759544098L185.8773890018463,60.22471126406805L186.01662300109865,145.3984220189413L186.15585700035095,84.49274230409672L186.43432499885557,80.44746363137789L186.9216439962387,147.5688264940999L187.1304949951172,70.07268360792794L187.2697289943695,74.58644811930148L187.40896299362183,68.07834024947995L187.478579993248,131.15685451618876L187.75704799175264,67.05615937405825L187.89628199100494,149.38335241387873L187.9658989906311,175.52328801535785L188.03551599025727,178.62762039378268L188.24436698913576,78.47379651879821L188.52283498764038,59.215842266464364L188.59245198726654,71.18219896888588L188.80130298614503,80.15015404337808L189.0101539850235,29.237608745975713L189.7063239812851,146.51018623054546L189.77594098091126,145.04635744835713L189.98479197978975,-124.57642756360741L190.05440897941588,68.26875941262423L190.19364297866824,56.59084869638806L190.40249397754667,185.3443894771371L190.54172797679902,62.237968033079255L190.61134497642516,68.07168431057094L190.7505789756775,69.79008628093246L190.82019597530365,61.09380554458261L190.8898129749298,71.57723882819317L190.95942997455597,163.30418274167943L191.0986639738083,37.65635000989706L191.2378979730606,52.35096618606234L191.3075149726868,73.16560286338442L191.58598297119138,-9.332436925164771L191.65559997081758,48.569552655835174L191.79483397006987,66.9644260378074L192.00368496894836,159.4701230411955L192.35176996707915,72.73649250490925L193.18717396259308,164.1385722318182L193.4656419610977,94.96064780943564L193.6744929599762,33.12754373559303L194.02257795810698,145.9078237592804L194.16181195735933,79.8261218491644L194.3706629562378,22.38459473491647L194.78836495399474,64.81917079716511L194.8579819536209,67.73639962557793L194.99721595287323,78.12465627780897L195.2060669517517,56.42034792468186L195.41491795063018,189.07130132938565L195.48453495025635,75.11431020505532L195.5541519498825,54.143786166453495L196.18070494651795,-14.18636275003891L196.2503219461441,65.90069496949334L196.31993894577025,117.37874794771656L196.38955594539644,89.02154034085258L196.52878994464874,85.80148276717634L196.66802394390106,46.23135756231326L196.87687494277952,124.11875927318948L197.22495994091034,-21.94957640690472L197.36419394016266,77.50850415093295L197.4338109397888,86.61503126048368L197.503427939415,102.93368005535008L197.57304493904115,78.9466482579749L198.12998093605043,39.934147400348635L198.75653393268584,54.16220532412743L199.10461893081663,76.55927500196937L199.66155492782593,57.29550504063829L199.7311719274521,64.6159175339958L199.94002292633056,63.995498357175634L200.2184909248352,84.05368098745066L200.4273419237137,79.39089922995842L200.70580992221832,-48.34116498573618L200.9146609210968,60.918115117538946L201.12351191997527,52.92996697076062L201.19312891960146,76.15347690477202L201.2627459192276,72.14836451685555L201.4019799184799,149.02978860953039L201.95891591548917,152.5229209045353L202.09814991474153,123.04249065658396L202.23738391399382,69.62274872771766L202.37661791324615,62.85645962363122L202.72470291137694,91.90084349756111L203.07278790950775,51.88412785703859L203.62972390651703,93.68559068076065L203.6993409061432,77.57620032166835L203.76895790576935,44.12748776360024L204.04742590427398,68.79443031056893L204.25627690315247,77.93095857049912L204.46512790203093,122.89759218454262L205.0220638990402,48.8649676077594L205.16129789829256,85.08021128829805L205.43976589679718,127.49603869094656L205.50938289642335,48.00055225459671L205.57899989604948,64.49016312386598L205.64861689567567,63.97964931452597L205.78785089492797,59.51633154805189L205.9270848941803,61.44212203075638L206.13593589305876,164.23357587468647L206.55363789081574,90.4296421097743L206.69287189006803,66.16166049503457L207.18019088745118,-15.327230219273673L207.4586588859558,82.83345297929343L207.59789288520815,48.284269888141246L207.87636088371278,56.868487019394415L207.94597788333894,78.8242382923959L208.08521188259124,55.019404585106585L208.29406288146973,61.09739711557806L208.43329688072205,62.869343148945184L208.64214787960051,59.56465300552742L208.78138187885284,76.45951829381582L208.9902328777313,-152.95283689522L209.0598498773575,38.36388949600144L209.12946687698366,64.98776045769942L209.82563687324523,63.12800216100309L209.89525387287142,48.21682084385048L210.03448787212372,-83.02597106970751L210.10410487174985,-23.468020133358785L210.17372187137605,62.70584429317049L210.2433388710022,37.95647683936578L210.4521898698807,147.19695062020367L210.52180686950683,53.95119229059637L210.66104086875913,136.3566173252421L210.86989186763762,69.7597391535305L211.00912586688997,58.33890584010652L211.14835986614227,78.4428233377365L211.2875938653946,49.446587932770875L211.91414686203004,85.02040668869485L212.19261486053466,58.466983238815956L212.331848859787,-88.91028236796544L212.4710828590393,51.66683781181364L212.6103168582916,71.8633947759915L212.74955085754394,66.05407811613405L212.8191678571701,19.367065520171906L213.0280188560486,43.80329081842346L213.44572085380554,62.14261017564033L213.5153378534317,66.17601030392008L213.79380585193636,63.70332899922437L214.00265685081482,191.08340072288112L214.2115078496933,48.71718599386389L214.35074184894563,-183.15564245350237L214.4203588485718,-20.836831927070136L214.69882684707642,32.1427283786011L214.97729484558107,75.5829607946731L215.18614584445956,-634.8865388128563L215.2557628440857,63.46183703752088L215.32537984371186,45.531989723978356L215.394996843338,49.11430171530617L215.60384784221648,40.08977116008742L215.88231584072113,48.40010629029278L216.3000178384781,-973.9349925079563L216.36963483810425,-15.971900737861304L216.57848583698274,84.3688825300425L216.92657083511352,190.18902128830567L217.135421833992,63.12908951735951L217.20503883361818,53.741662015733155L217.34427283287047,94.88432692578226L217.4835068321228,164.90723432523052L217.62274083137513,183.20684870034168L217.69235783100126,78.80390802355008L217.90120882987975,59.14056755142662L217.9708258295059,72.96971396826541L218.11005982875824,115.884077785237L218.31891082763673,48.08508597376035L218.3885278272629,133.37755746038005L218.5277618265152,132.63532965899617L218.94546382427217,25.82963622379419L219.15431482315066,146.94162781514842L219.3631658220291,67.27489922775844L219.43278282165528,55.26130842421781L219.71125082015993,35.919166429742816L220.12895281791685,84.7139204720507L221.03397381305695,2.293280685963188L221.31244181156157,52.64096083130076L221.4516758108139,169.98564981241682L221.7997608089447,55.289036011306564L222.00861180782317,124.75825661153596L222.1478458070755,90.58013387701271L222.42631380558012,83.10105796864734L222.77439880371094,77.82728078942392L223.0528668022156,66.5754654890383L223.3313348007202,66.60914058589475L223.54018579959867,76.04974969840791L224.16673879623414,134.6338494543586L224.5844407939911,69.63314451348892L225.2806107902527,46.85683459370042L225.35022778987886,43.07645899454075L225.419844789505,-95.04883735247034L225.62869578838348,69.60668550881599L225.69831278800964,39.100309825936236L226.04639778614043,157.45323351344808L226.18563178539276,104.65980060833255L226.4640997838974,34.473690904843174L226.53371678352357,57.74917976771081L226.6033337831497,62.695563833073415L226.67295078277587,72.2009200740826L226.74256778240203,-70.13908483609342L226.8121847820282,-278.5103037237452L226.88180178165436,132.2581488040883L227.43873777866364,59.31350663738661L227.64758877754213,75.1013443042598L228.06529077529905,58.322579019663884L229.0399287700653,35.53761967431294L229.10954576969147,164.86772704428054L229.17916276931763,45.82315410105475L229.66648176670074,46.7681326751705L230.01456676483153,61.00894232349278L230.22341776371002,46.77274570213714L230.36265176296234,122.34553641985839L230.4322687625885,58.977711224408L230.50188576221467,75.17686614574218L230.5715027618408,76.63484626874067L230.84997076034546,49.234685244039106L231.40690675735473,52.234734381599374L231.4765237569809,83.89505876018356L231.68537475585936,42.86867507988634L231.8246087551117,58.45634032660007L231.89422575473785,53.110632876889724L232.03345975399017,134.769431259437L232.8688637495041,43.61278927979763L233.0080977487564,52.041926329490224L233.2169487476349,-348.7591917817217L233.35618274688719,30.872416077663217L233.70426774501803,47.59513308461449L233.91311874389646,58.643069068171044L234.12196974277495,18.31359843685862L234.7485227394104,110.8829964001271L234.81813973903658,80.08746630192073L235.02699073791504,45.8543744085611L235.23584173679353,196.2000713836979L235.37507573604583,85.30380305786136L235.444692735672,-8.13206140806038L235.86239473342894,101.9111861530985L236.07124573230743,64.01777268738597L236.1408627319336,48.52757411043877L236.48894773006438,-45.76717831383384L236.6281817293167,61.24964348057342L236.767415728569,60.61721395854369L236.9762667274475,76.50131561315283L237.04588372707366,83.62465300445704L237.11550072669985,63.77408953787333L237.60281972408293,43.44372184147036L237.95090472221375,63.60269911096643L238.09013872146605,54.82564097741149L238.1597557210922,55.990891589184194L238.2293727207184,50.52516306285972L238.50784071922303,143.70432905318432L238.5774577188492,57.9654977822535L238.99515971660614,65.02863517164309L239.27362771511076,52.92767693237361L239.48247871398925,41.121474641175965L239.55209571361542,43.57959196073415L239.69132971286774,122.45488987161217L240.17864871025085,-37.79095813678353L240.24826570987702,194.9829015652931L240.5963507080078,39.43635236535949L241.43175470352173,57.62616022356836L241.77983970165252,46.85797137534577L241.91907370090485,68.14915021341784L241.988690700531,30.976818762976016L242.1975416994095,67.47055747152912L242.26715869903563,59.458355684139036L242.89371169567107,-4.690496164503948L243.31141369342805,127.09346971262588L243.58988169193267,130.82564741753234L243.65949869155884,47.911735010392626L243.9379666900635,153.7926483395542L244.0772006893158,65.68948423480657L244.2164346885681,48.533702846265875L244.3556686878204,13.738793693658684L244.49490268707277,48.327797092590735L244.70375368595126,66.2402467044305L244.7733706855774,157.07828503409013L244.84298768520355,115.81392682515147L245.05183868408204,58.27921656617749L245.12145568370818,78.76357698778462L245.19107268333434,55.00240228571526L245.26068968296053,66.76010189337796L245.46954068183896,18.82971377894384L245.53915768146516,82.1784855255124L245.60877468109132,61.14151742349469L245.8176256799698,59.3540683245004L245.88724267959594,69.9743272829607L246.02647667884824,66.14432869371706L246.09609367847443,100.17479337756711L246.37456167697908,58.73526370711856L246.51379567623138,76.53882940744937L246.58341267585755,128.1841046132132L246.6530296754837,168.92470303537908L246.93149767398836,128.99250463892386L247.07073167324066,57.357665579013734L247.20996567249298,60.306971419940986L247.41881667137145,128.4395427439426L248.0453696680069,53.82560263142965L248.25422066688537,68.0170528912089L248.3934546661377,25.693057675389092L248.53268866539,75.00425656170839L248.67192266464235,70.60822308856197L248.81115666389465,60.34020168919709L249.02000766277314,45.20738090139384L249.15924166202547,60.41880437368933L249.4377096605301,57.685223443837636L249.71617765903474,55.278211873031275L249.85541165828704,149.2535286549605L250.06426265716553,91.1121888747773L250.34273065567018,128.2641159184399L250.6211986541748,33.71811003790052L250.8300496530533,59.37345951285659" fill="none"></path></g></g></g></g></g></g><g transform="translate(51, 176)" clip-path="url(#clip_1)"><clipPath id="clip_1"><rect width="278" height="23"></rect></clipPath><g><g><line x1="0" y1="0" x2="0" y2="5" style="visibility: inherit;" fill="rgb(0, 0, 0)" stroke="rgb(204, 204, 204)" stroke-width="1px"></line><line x1="34.808499813079834" y1="0" x2="34.808499813079834" y2="5" style="visibility: inherit;" fill="rgb(0, 0, 0)" stroke="rgb(204, 204, 204)" stroke-width="1px"></line><line x1="69.61699962615967" y1="0" x2="69.61699962615967" y2="5" style="visibility: inherit;" fill="rgb(0, 0, 0)" stroke="rgb(204, 204, 204)" stroke-width="1px"></line><line x1="104.4254994392395" y1="0" x2="104.4254994392395" y2="5" style="visibility: inherit;" fill="rgb(0, 0, 0)" stroke="rgb(204, 204, 204)" stroke-width="1px"></line><line x1="139.23399925231934" y1="0" x2="139.23399925231934" y2="5" style="visibility: inherit;" fill="rgb(0, 0, 0)" stroke="rgb(204, 204, 204)" stroke-width="1px"></line><line x1="174.04249906539917" y1="0" x2="174.04249906539917" y2="5" style="visibility: inherit;" fill="rgb(0, 0, 0)" stroke="rgb(204, 204, 204)" stroke-width="1px"></line><line x1="208.850998878479" y1="0" x2="208.850998878479" y2="5" style="visibility: inherit;" fill="rgb(0, 0, 0)" stroke="rgb(204, 204, 204)" stroke-width="1px"></line><line x1="243.65949869155884" y1="0" x2="243.65949869155884" y2="5" style="visibility: inherit;" fill="rgb(0, 0, 0)" stroke="rgb(204, 204, 204)" stroke-width="1px"></line><line x1="278.4679985046387" y1="0" x2="278.4679985046387" y2="5" style="visibility: inherit;" fill="rgb(0, 0, 0)" stroke="rgb(204, 204, 204)" stroke-width="1px"></line></g><g transform="translate(0, 8)"><text style="text-anchor: middle; visibility: hidden; font-family: Roboto, sans-serif; font-size: 12px; font-weight: 200;" x="0" y="0" dx="0em" dy="0.95em" fill="rgb(33, 33, 33)" stroke="none" stroke-width="1px">-500</text><text style="text-anchor: middle; visibility: inherit; font-family: Roboto, sans-serif; font-size: 12px; font-weight: 200;" x="34.808499813079834" y="0" dx="0em" dy="0.95em" fill="rgb(33, 33, 33)" stroke="none" stroke-width="1px">0</text><text style="text-anchor: middle; visibility: inherit; font-family: Roboto, sans-serif; font-size: 12px; font-weight: 200;" x="69.61699962615967" y="0" dx="0em" dy="0.95em" fill="rgb(33, 33, 33)" stroke="none" stroke-width="1px">500</text><text style="text-anchor: middle; visibility: inherit; font-family: Roboto, sans-serif; font-size: 12px; font-weight: 200;" x="104.4254994392395" y="0" dx="0em" dy="0.95em" fill="rgb(33, 33, 33)" stroke="none" stroke-width="1px">1k</text><text style="text-anchor: middle; visibility: inherit; font-family: Roboto, sans-serif; font-size: 12px; font-weight: 200;" x="139.23399925231934" y="0" dx="0em" dy="0.95em" fill="rgb(33, 33, 33)" stroke="none" stroke-width="1px">1.5k</text><text style="text-anchor: middle; visibility: inherit; font-family: Roboto, sans-serif; font-size: 12px; font-weight: 200;" x="174.04249906539917" y="0" dx="0em" dy="0.95em" fill="rgb(33, 33, 33)" stroke="none" stroke-width="1px">2k</text><text style="text-anchor: middle; visibility: inherit; font-family: Roboto, sans-serif; font-size: 12px; font-weight: 200;" x="208.850998878479" y="0" dx="0em" dy="0.95em" fill="rgb(33, 33, 33)" stroke="none" stroke-width="1px">2.5k</text><text style="text-anchor: middle; visibility: inherit; font-family: Roboto, sans-serif; font-size: 12px; font-weight: 200;" x="243.65949869155884" y="0" dx="0em" dy="0.95em" fill="rgb(33, 33, 33)" stroke="none" stroke-width="1px">3k</text><text style="text-anchor: middle; visibility: hidden; font-family: Roboto, sans-serif; font-size: 12px; font-weight: 200;" x="278.4679985046387" y="0" dx="0em" dy="0.95em" fill="rgb(33, 33, 33)" stroke="none" stroke-width="1px">3.5k</text></g><line x1="0" y1="0" x2="278.4679985046387" y2="0" fill="rgb(0, 0, 0)" stroke="rgb(204, 204, 204)" stroke-width="1px"></line></g></g></g></g></svg>