<svg viewBox="0 0 330 200" xmlns="http://www.w3.org/2000/svg"><g><g><g><g><g><line x1="30.766000747680664" y1="176.89999961853027" x2="25.766000747680664" y2="176.89999961853027" style="visibility: inherit;" fill="rgb(0, 0, 0)" stroke="rgb(204, 204, 204)" stroke-width="1px"></line><line x1="30.766000747680664" y1="157.24444410536023" x2="25.766000747680664" y2="157.24444410536023" style="visibility: inherit;" fill="rgb(0, 0, 0)" stroke="rgb(204, 204, 204)" stroke-width="1px"></line><line x1="30.766000747680664" y1="137.58888859219022" x2="25.766000747680664" y2="137.58888859219022" style="visibility: inherit;" fill="rgb(0, 0, 0)" stroke="rgb(204, 204, 204)" stroke-width="1px"></line><line x1="30.766000747680664" y1="117.9333330790202" x2="25.766000747680664" y2="117.9333330790202" style="visibility: inherit;" fill="rgb(0, 0, 0)" stroke="rgb(204, 204, 204)" stroke-width="1px"></line><line x1="30.766000747680664" y1="98.27777756585016" x2="25.766000747680664" y2="98.27777756585016" style="visibility: inherit;" fill="rgb(0, 0, 0)" stroke="rgb(204, 204, 204)" stroke-width="1px"></line><line x1="30.766000747680664" y1="78.62222205268012" x2="25.766000747680664" y2="78.62222205268012" style="visibility: inherit;" fill="rgb(0, 0, 0)" stroke="rgb(204, 204, 204)" stroke-width="1px"></line><line x1="30.766000747680664" y1="58.9666665395101" x2="25.766000747680664" y2="58.9666665395101" style="visibility: inherit;" fill="rgb(0, 0, 0)" stroke="rgb(204, 204, 204)" stroke-width="1px"></line><line x1="30.766000747680664" y1="39.31111102634006" x2="25.766000747680664" y2="39.31111102634006" style="visibility: inherit;" fill="rgb(0, 0, 0)" stroke="rgb(204, 204, 204)" stroke-width="1px"></line><line x1="30.766000747680664" y1="19.65555551317004" x2="25.766000747680664" y2="19.65555551317004" style="visibility: inherit;" fill="rgb(0, 0, 0)" stroke="rgb(204, 204, 204)" stroke-width="1px"></line><line x1="30.766000747680664" y1="0" x2="25.766000747680664" y2="0" style="visibility: inherit;" fill="rgb(0, 0, 0)" stroke="rgb(204, 204, 204)" stroke-width="1px"></line></g><g transform="translate(20.766000747680664, 0)"><text style="text-anchor: end; visibility: hidden; font-family: Roboto, sans-serif; font-size: 12px; font-weight: 200;" x="0" y="176.89999961853027" dx="0em" dy="0.3em" fill="rgb(33, 33, 33)" stroke="none" stroke-width="1px">-5</text><text style="text-anchor: end; visibility: inherit; font-family: Roboto, sans-serif; font-size: 12px; font-weight: 200;" x="0" y="157.24444410536023" dx="0em" dy="0.3em" fill="rgb(33, 33, 33)" stroke="none" stroke-width="1px">0</text><text style="text-anchor: end; visibility: hidden; font-family: Roboto, sans-serif; font-size: 12px; font-weight: 200;" x="0" y="137.58888859219022" dx="0em" dy="0.3em" fill="rgb(33, 33, 33)" stroke="none" stroke-width="1px">5</text><text style="text-anchor: end; visibility: inherit; font-family: Roboto, sans-serif; font-size: 12px; font-weight: 200;" x="0" y="117.9333330790202" dx="0em" dy="0.3em" fill="rgb(33, 33, 33)" stroke="none" stroke-width="1px">10</text><text style="text-anchor: end; visibility: hidden; font-family: Roboto, sans-serif; font-size: 12px; font-weight: 200;" x="0" y="98.27777756585016" dx="0em" dy="0.3em" fill="rgb(33, 33, 33)" stroke="none" stroke-width="1px">15</text><text style="text-anchor: end; visibility: inherit; font-family: Roboto, sans-serif; font-size: 12px; font-weight: 200;" x="0" y="78.62222205268012" dx="0em" dy="0.3em" fill="rgb(33, 33, 33)" stroke="none" stroke-width="1px">20</text><text style="text-anchor: end; visibility: hidden; font-family: Roboto, sans-serif; font-size: 12px; font-weight: 200;" x="0" y="58.9666665395101" dx="0em" dy="0.3em" fill="rgb(33, 33, 33)" stroke="none" stroke-width="1px">25</text><text style="text-anchor: end; visibility: inherit; font-family: Roboto, sans-serif; font-size: 12px; font-weight: 200;" x="0" y="39.31111102634006" dx="0em" dy="0.3em" fill="rgb(33, 33, 33)" stroke="none" stroke-width="1px">30</text><text style="text-anchor: end; visibility: hidden; font-family: Roboto, sans-serif; font-size: 12px; font-weight: 200;" x="0" y="19.65555551317004" dx="0em" dy="0.3em" fill="rgb(33, 33, 33)" stroke="none" stroke-width="1px">35</text><text style="text-anchor: end; visibility: hidden; font-family: Roboto, sans-serif; font-size: 12px; font-weight: 200;" x="0" y="0" dx="0em" dy="0.3em" fill="rgb(33, 33, 33)" stroke="none" stroke-width="1px">40</text></g><line x1="30.766000747680664" y1="0" x2="30.766000747680664" y2="176.89999961853027" fill="rgb(0, 0, 0)" stroke="rgb(204, 204, 204)" stroke-width="1px"></line></g></g><g transform="translate(30, 0)" clip-path="url(#clip_0)"><clipPath id="clip_0"><rect width="299" height="176"></rect></clipPath><g><g><g><line x1="0" y1="0" x2="0" y2="176.89999961853027" fill="rgb(0, 0, 0)" stroke="rgb(66, 66, 66)" stroke-width="1px" opacity="0.25"></line><line x1="37.40424990653992" y1="0" x2="37.40424990653992" y2="176.89999961853027" fill="rgb(0, 0, 0)" stroke="rgb(66, 66, 66)" stroke-width="1px" opacity="0.25"></line><line x1="74.80849981307983" y1="0" x2="74.80849981307983" y2="176.89999961853027" fill="rgb(0, 0, 0)" stroke="rgb(66, 66, 66)" stroke-width="1px" opacity="0.25"></line><line x1="112.21274971961975" y1="0" x2="112.21274971961975" y2="176.89999961853027" fill="rgb(0, 0, 0)" stroke="rgb(66, 66, 66)" stroke-width="1px" opacity="0.25"></line><line x1="149.61699962615967" y1="0" x2="149.61699962615967" y2="176.89999961853027" fill="rgb(0, 0, 0)" stroke="rgb(66, 66, 66)" stroke-width="1px" opacity="0.25"></line><line x1="187.02124953269958" y1="0" x2="187.02124953269958" y2="176.89999961853027" fill="rgb(0, 0, 0)" stroke="rgb(66, 66, 66)" stroke-width="1px" opacity="0.25"></line><line x1="224.4254994392395" y1="0" x2="224.4254994392395" y2="176.89999961853027" fill="rgb(0, 0, 0)" stroke="rgb(66, 66, 66)" stroke-width="1px" opacity="0.25"></line><line x1="261.8297493457794" y1="0" x2="261.8297493457794" y2="176.89999961853027" fill="rgb(0, 0, 0)" stroke="rgb(66, 66, 66)" stroke-width="1px" opacity="0.25"></line><line x1="299.23399925231934" y1="0" x2="299.23399925231934" y2="176.89999961853027" fill="rgb(0, 0, 0)" stroke="rgb(66, 66, 66)" stroke-width="1px" opacity="0.25"></line></g><g><line x1="0" y1="176.89999961853027" x2="299.23399925231934" y2="176.89999961853027" fill="rgb(0, 0, 0)" stroke="rgb(66, 66, 66)" stroke-width="1px" opacity="0.25"></line><line x1="0" y1="157.24444410536023" x2="299.23399925231934" y2="157.24444410536023" fill="rgb(0, 0, 0)" stroke="rgb(66, 66, 66)" stroke-width="1px" opacity="0.25"></line><line x1="0" y1="137.58888859219022" x2="299.23399925231934" y2="137.58888859219022" fill="rgb(0, 0, 0)" stroke="rgb(66, 66, 66)" stroke-width="1px" opacity="0.25"></line><line x1="0" y1="117.9333330790202" x2="299.23399925231934" y2="117.9333330790202" fill="rgb(0, 0, 0)" stroke="rgb(66, 66, 66)" stroke-width="1px" opacity="0.25"></line><line x1="0" y1="98.27777756585016" x2="299.23399925231934" y2="98.27777756585016" fill="rgb(0, 0, 0)" stroke="rgb(66, 66, 66)" stroke-width="1px" opacity="0.25"></line><line x1="0" y1="78.62222205268012" x2="299.23399925231934" y2="78.62222205268012" fill="rgb(0, 0, 0)" stroke="rgb(66, 66, 66)" stroke-width="1px" opacity="0.25"></line><line x1="0" y1="58.9666665395101" x2="299.23399925231934" y2="58.9666665395101" fill="rgb(0, 0, 0)" stroke="rgb(66, 66, 66)" stroke-width="1px" opacity="0.25"></line><line x1="0" y1="39.31111102634006" x2="299.23399925231934" y2="39.31111102634006" fill="rgb(0, 0, 0)" stroke="rgb(66, 66, 66)" stroke-width="1px" opacity="0.25"></line><line x1="0" y1="19.65555551317004" x2="299.23399925231934" y2="19.65555551317004" fill="rgb(0, 0, 0)" stroke="rgb(66, 66, 66)" stroke-width="1px" opacity="0.25"></line><line x1="0" y1="0" x2="299.23399925231934" y2="0" fill="rgb(0, 0, 0)" stroke="rgb(66, 66, 66)" stroke-width="1px" opacity="0.25"></line></g></g></g><g><g><line x1="0" y1="157.24444410536023" x2="299.23399925231934" y2="157.24444410536023" fill="rgb(0, 0, 0)" stroke="rgb(153, 153, 153)" stroke-width="1.5px"></line></g></g><g><g><line x1="37.40424990653992" y1="0" x2="37.40424990653992" y2="176.89999961853027" fill="rgb(0, 0, 0)" stroke="rgb(153, 153, 153)" stroke-width="1.5px"></line></g></g><g><g><g><g><g><path style="fill: none;" stroke="rgb(255, 112, 67)" stroke-width="2px" d="M37.853100905418394,148.29564275816944L38.30195190429688,148.41990611614145L38.52637740373611,148.08568455381754L38.601185903549194,145.65999892888055L38.825611402988436,146.31595718944178L39.27446240186691,144.59282090373222L40.172164399623874,142.54878759349324L40.47139839887619,143.63488819294113L40.62101539850235,144.54347211295743L40.77063239812851,145.49298423092142L40.84544089794159,146.14210136982186L40.995057897567754,146.4812082459915L41.44390889644623,146.87273335935296L41.51871739625931,147.30268228446025L41.59352589607239,147.47906724166856L41.66833439588547,145.75359711720867L42.341610894203185,146.040180738567L42.56603639364242,142.64283129996718L42.79046189308166,144.16648908483526L42.86527039289474,143.74731570370585L42.940078892707824,143.91357259160674L43.014887392520905,142.80906898416882L43.3889298915863,144.00421593973658L43.98739789009094,143.0318371735037L44.06220638990402,144.32485548581425L44.5110573887825,144.71343581883661L45.109525387287135,144.93532208744142L45.33395088672638,145.46107142567564L45.40875938653946,145.74347931510306L45.932418885231016,146.24906177531707L46.30646138429642,146.4055278966174L46.90492938280106,146.5933675505035L47.12935488224029,146.8413577426462L47.20416338205337,147.09492968760745L47.87743988037109,147.3234140445255L48.027056879997254,147.28374099272298L48.101865379810334,147.52176485565042L48.176673879623415,143.63618620336183L48.70033337831497,144.19845386973745L49.074375877380376,144.47668123268085L49.22399287700653,144.4561232886686L49.29880137681961,144.7652981075587L49.598035376071934,144.183485039955L49.97207787513733,144.5609959058754L50.04688637495041,144.80296074780654L50.27131187438965,145.22116936068784L50.72016287326813,145.35401449031318L50.79497137308121,145.8770847524074L50.94458837270737,146.2092157867243L51.16901387214661,146.36214637635567L51.31863087177277,146.65378553531272L51.39343937158585,147.00089784942404L51.543056371212,147.35241709161372L51.692673370838165,147.50294953781372L51.76748187065124,147.75328038375736L52.2911413693428,147.7291238048697L52.88960936784744,148.09651880998504L52.96441786766052,148.82046924671573L53.0392263674736,149.46398647951L53.33846036672592,149.53842985562088L54.08654536485672,147.69414516611616L54.1613538646698,148.0819805005905L54.31097086429596,148.29225693624582L54.610204863548276,148.49118303665458L54.83463036298752,148.53904069988968L54.9094388628006,148.3599599955071L54.98424736261368,147.3256807356561L55.208672862052914,147.36864445442777L56.106374859809875,146.1327214470443L56.55522585868835,146.6632386234452L56.779651358127595,146.40677213313504L56.929268357753756,146.51400462206323L57.00407685756684,146.70594815718897L57.15369385719299,146.96732887398232L57.452927856445314,147.17573250814607L57.752161855697636,147.45950413436137L57.90177885532379,147.6418855327959L58.275821354389194,145.30132580284973L59.32314035177231,145.57672098961856L59.69718285083771,145.930465432369L59.771991350650794,145.97198018030988L60.07122534990311,146.03383935358465L60.14603384971619,146.13678488961213L60.44526784896851,144.97322439173612L60.520076348781586,145.22238984843887L60.66969334840775,145.52107967449203L60.89411884784698,145.84363975892927L61.26816134691238,146.09426500023707L61.34296984672546,146.6518139139188L61.41777834653854,146.77045813074196L61.79182084560394,146.65842756860133L61.86662934541702,146.94586217726257L61.9414378452301,147.09273785363035L62.16586334466934,146.92155133190684L62.83913984298706,147.10580854239709L62.98875684261322,147.32441858278315L63.4376078414917,147.2650928630417L63.886458840370175,146.65489056667045L64.41011833906174,146.65828815124902L64.63454383850097,146.84608211616373L64.9337778377533,144.12740371758952L65.23301183700562,144.45256069537746L65.38262883663178,144.67755929104757L65.68186283588409,144.27272070740037L65.75667133569718,144.80181425618946L65.83147983551025,144.60834656741972L65.98109683513641,144.8077569993994L66.35513933420181,144.95627696599558L66.72918183326722,145.20409871835483L66.80399033308029,142.18846109231288L68.00092633008957,143.1971682632412L68.52458582878113,144.15216665039333L68.97343682765961,144.4743226398848L69.04824532747269,144.88602192820753L69.19786232709885,144.9829012431793L69.64671332597733,145.1718329579423L70.31998982429504,145.56241792497266L70.4696068239212,145.74636924902666L70.54441532373428,145.88265842447373L70.76884082317352,146.16356851654027L71.217691822052,146.13137528934877L71.81615982055663,145.3044321124004L71.89096832036972,144.86255887271153L72.11539381980896,145.0560023690114L72.19020231962203,142.5053251886456L72.86347881793975,140.60591959360943L72.93828731775284,141.01071002849991L73.76118081569672,140.84854641223635L73.98560631513595,141.50079360390072L74.06041481494904,141.95797925730568L74.21003181457519,140.22616506384932L74.35964881420135,140.53538441583996L75.40696781158448,139.94431295026573L75.78101031064986,139.6876967457854L75.93062731027602,140.82728437476572L76.15505280971527,141.13546209753767L76.30466980934143,141.65238170348388L76.67871230840683,139.44957291114162L76.75352080821992,140.19837590753812L77.20237180709839,140.7746391066321L77.35198880672455,141.1305589570466L77.42679730653762,141.68237865211827L77.57641430616378,142.3155055520997L77.65122280597687,141.55853229194608L77.8756483054161,142.2929059930888L78.02526530504227,141.31917243818833L78.39930780410766,141.68020598742356L78.47411630392074,142.06915019507028L79.14739280223847,142.95324255394846L79.29700980186463,143.41225896626784L79.59624380111694,143.65663594811764L79.67105230093001,143.98287383235578L79.7458608007431,144.4293943275873L80.04509479999543,145.31714324325466L80.34432879924775,146.04592230486722L80.41913729906082,146.7703573907662L80.64356279850007,147.3102816228104L80.79317979812623,147.10709618966416L80.94279679775238,146.72479414824213L81.01760529756545,146.7504347920669L81.09241379737854,146.70234832701829L81.16722229719161,146.6117683638005L81.31683929681778,146.40919591599112L81.39164779663086,144.6263196335117L81.76569029569626,144.71108792476784L81.84049879550935,143.25053261769693L82.36415829420089,140.3130792608595L82.51377529382705,138.99725318264277L82.96262629270554,140.1728216016171L83.1122432923317,141.28607267420554L83.48628579139711,141.00406213926323L83.86032829046249,141.29043612449672L84.00994529008865,136.39329833471987L84.9076472878456,136.41636835492668L85.43130678653716,136.65229216314484L85.50611528635025,137.34488887504827L85.65573228597641,132.64207299867292L85.73054078578949,133.30793044870546L85.80534928560257,127.97936225423473L85.88015778541565,126.82152167777289L86.02977478504181,127.76369611857355L86.25420028448104,128.36463189656368L86.55343428373337,128.23858842474903L86.62824278354644,129.36978377168904L86.92747678279876,129.93049792147852L87.15190228223801,128.24742664625677L87.45113628149034,127.92161012870676L87.67556178092956,128.78376976841244L87.75037028074264,128.6706040635643L87.8999872803688,124.57128371426644L87.97479578018188,124.17591984224971L88.12441277980804,125.20133801613814L88.19922127962113,126.10032002830434L88.2740297794342,127.1738415223895L88.49845527887345,127.90361207443003L88.57326377868652,127.56276782779914L88.64807227849961,128.46884257799562L88.79768927812577,126.62056761425258L88.94730627775192,127.17054545355614L89.022114777565,128.97284453059615L89.54577427625657,122.696949398359L89.7701997756958,121.98129377466014L90.06943377494812,121.89683485435023L90.29385927438736,121.604243040595L90.44347627401352,122.45326543355227L90.59309327363968,123.32423249573112L90.892327272892,124.83760663138344L91.19156127214433,125.5237086524044L91.41598677158356,123.70699222360807L91.49079527139665,119.5619779065302L91.56560377120971,121.02213815973157L91.6404122710228,119.91300102506935L92.08926326990128,120.55537930280595L92.53811426877976,120.32543742827896L92.68773126840593,121.98250597750133L92.762539768219,122.5014966979348L93.06177376747131,122.57317716399072L93.28619926691056,123.9537828516556L93.36100776672363,124.81467986209483L93.58543326616287,123.29186529382262L93.66024176597595,123.31857207671906L93.73505026578903,120.39497017304316L93.88466726541519,120.90100397052677L94.03428426504135,118.76455315081908L94.48313526391982,120.88125770948812L94.70756076335907,111.05768709207958L94.78236926317214,110.04188590523272L95.00679476261139,111.86222935373159L95.08160326242447,113.54514451758163L95.15641176223755,114.9388244034606L95.30602876186371,116.51562898090582L95.38083726167679,117.70999950953609L95.82968826055526,119.22653125294335L96.12892225980758,120.59743847164064L96.20373075962067,121.92880008852168L96.35334775924683,119.12517071611023L96.50296475887299,118.02530742310624L96.65258175849915,117.20255015120286L96.72739025831223,118.66388094154848L96.80219875812531,120.08243341199362L96.87700725793837,119.83621867860313L96.95181575775146,120.21769514534729L97.1762412571907,122.38846561606375L97.32585825681686,120.71162110756694L97.47547525644302,114.54215360692874L97.69990075588227,115.25541274680096L97.84951775550843,116.65639925583937L97.9243262553215,118.07346849484371L97.99913475513459,117.2938903205899L98.44798575401306,119.61962140443875L98.52279425382613,121.82208844728383L98.6724112534523,114.90746991355394L98.89683675289155,115.70214176875082L99.19607075214387,117.26354197604034L99.4204962515831,118.67652078389025L99.64492175102234,110.82311725196617L99.71973025083541,112.24665406292033L99.86934725046157,111.65565412620218L100.01896425008773,114.28021085006695L100.1685812497139,116.76566586463854L100.5426237487793,117.98885624802001L100.76704924821854,116.36188057073439L100.91666624784469,117.82759092863235L102.0387937450409,117.37790729439688L102.33802774429321,118.79608832244239L102.48764474391938,121.0210994995171L102.56245324373245,123.14494484186724L102.86168724298477,121.87784029156344L103.01130424261093,116.19815344052859L103.31053824186326,117.29122465093707L103.46015524148942,118.35005736726899L103.60977224111556,116.45341405564162L103.8341977405548,117.30533678592568L103.98381474018096,118.37159658870486L104.05862323999405,119.39353305971053L104.20824023962021,119.3788546022984L104.50747423887253,120.75416502123328L104.80670823812486,121.81001692067939L105.3303677368164,123.09735867189963L105.40517623662949,124.23167880897286L105.47998473644256,124.35265390521496L105.55479323625565,125.28488866483447L105.70441023588181,125.7835725147705L105.92883573532104,126.73519171630801L106.00364423513413,127.76933597392505L106.0784527349472,128.63010686367198L106.30287823438644,120.4859147365149L106.37768673419951,120.39630634442325L106.4524952340126,121.35740218281235L106.52730373382568,122.60098101299894L107.12577173233032,123.5574186613354L107.20058023214341,124.5015151142201L107.42500573158264,115.83279098801287L107.9486652302742,116.85810747951986L108.17309072971344,118.37363725658108L108.77155872821808,117.86443827825205L108.84636722803117,118.23754869786325L108.99598422765732,102.93583979202388L109.07079272747039,105.17467422033253L109.14560122728348,107.03488563182019L109.37002672672271,97.66832025124039L109.4448352265358,100.08025325075866L109.59445222616196,102.52540480310962L109.74406922578812,99.80915629215403L110.11811172485352,94.95673232338865L110.19292022466661,97.17503413285787L110.49215422391892,97.31067192956135L110.56696272373199,98.21215475690666L110.64177122354508,96.81811176809605L110.71657972335815,82.98576895196423L110.9410052227974,68.13088553716659L111.01581372261047,70.48455397868103L111.09062222242356,70.52630654117682L111.3150477218628,71.63457851907424L111.38985622167588,75.62384011715731L111.98832422018052,79.04473106556456L112.28755821943282,78.86643923656793L112.43717521905899,77.25473285343416L112.58679221868515,79.91958357354721L112.66160071849824,76.1892329110445L112.88602621793746,78.87700642666263L113.1104517173767,82.32308969015062L113.18526021718978,85.362903082281L113.26006871700287,88.3923797182969L113.33487721681594,91.20808849662689L113.55930271625519,94.12264335694705L114.15777071475983,96.78812552884088L114.30738771438598,99.36583749653848L114.6066217136383,101.79040345763288L114.68143021345138,104.05954641096204L114.90585571289063,106.32994453298812L115.05547271251679,107.00286119540222L115.20508971214295,104.14036807634992L115.57913221120833,106.31125870388263L116.1027917098999,107.94935883412954L116.17760020971298,108.79386007070421L116.40202570915223,110.59934568463493L116.55164270877839,112.2980453193457L117.00049370765686,111.59407349586792L117.07530220746993,108.36014539338146L117.2249192070961,106.09228619401681L117.37453620672225,108.41670704056692L117.67377020597458,108.40202732109641L117.9730042052269,111.19902431957046L118.12262120485306,106.24004487500228L118.49666370391846,107.80756910324273L118.57147220373153,107.08471507391934L118.64628070354462,109.95152961789832L119.16994020223618,104.31093488011304L119.24474870204926,105.02827963211296L119.69359970092773,102.51993799789041L119.99283370018006,103.68493942633567L120.06764219999313,105.47293221299498L120.14245069980622,91.80244538221065L120.81572719812394,77.41060024647469L120.96534419775008,79.80018747799423L121.18976969718933,78.35607330753977L121.6386206960678,77.43842187148375L121.71342919588089,81.87648995266831L122.01266319513321,78.22314858072137L122.23708869457244,68.53939830418581L122.31189719438552,69.52136206152551L122.3867056941986,68.1472773469116L123.43402469158173,73.07777608569077L123.65845019102096,74.51098387508519L123.8828756904602,78.65375250254266L123.95768419027328,82.28389799811801L124.03249269008636,85.80066583364236L124.2569181895256,88.13924202248923L124.33172668933868,74.97814886355755L124.40653518915177,78.57153198737618L125.7530881857872,75.21863581563329L125.90270518541337,77.93380460360642L125.97751368522644,81.48877907007291L126.1271306848526,84.60894708513078L126.20193918466569,88.66697732084143L126.65079018354416,92.48923193768267L126.72559868335723,96.12960707519171L126.8752156829834,99.5770423299812L127.02483268260956,102.20567188066946L127.17444968223572,104.7890198465844L127.32406668186188,107.34810331401499L127.54849218130113,106.98213826073825L127.69810918092728,105.78957204075495L127.84772618055344,103.3659720030284L127.9973431801796,105.66634537586943L128.14696017980577,108.07890215662444L128.29657717943192,110.3362439056624L129.0446621775627,107.15912185193696L129.34389617681504,104.03499796781995L129.64313017606736,104.96155570043601L129.71793867588042,107.94089767593364L129.7927471756935,110.7623345265651L129.94236417531968,105.98769935686745L130.16678967475892,103.02139267488603L130.39121517419815,103.30568463428725L130.54083217382433,105.2025915948325L130.76525767326356,103.52714051945854L131.21410867214203,104.4229005746484L131.36372567176818,103.5349899784253L131.51334267139435,100.71750224095561L131.58815117120741,103.92177904920503L131.81257667064668,106.95622918651442L131.88738517045974,104.37305330099468L131.96219367027282,107.38358590286067L132.18661916971206,104.50278812428128L132.7850871682167,99.04556558155745L133.15912966728212,102.33845503249714L133.30874666690826,99.33939702217529L133.75759766578673,99.36777928522784L134.05683166503906,101.55899011427584L134.13164016485214,103.85774657067114L134.20644866466523,105.87873790025934L134.2812571644783,98.94854722839273L134.7301081633568,94.26710886427534L134.95453366279602,93.37426575995977L135.47819316148758,96.96773410119927L135.62781016111373,100.37074862030218L135.852235660553,87.95633224448154L135.92704416036605,86.87642006066018L136.15146965980531,90.814274223904L136.60032065868378,94.543422116451L136.74993765830993,98.0749251706527L136.97436315774917,101.41925856294566L137.19878865718843,86.18215656066239L137.2735971570015,83.70360791347156L137.34840565681458,86.7451518034419L137.42321415662767,89.81222516960496L137.49802265644075,92.77145421605361L137.94687365531922,96.39687156887183L138.3957246541977,93.05053951708328L138.8445756530762,96.66116534892073L139.29342665195466,91.5763115558378L139.66746915102004,95.26507146960292L139.96670315027237,95.36836045093173L140.49036264896392,89.21649589890305L140.63997964859007,93.03032604246121L140.86440514802933,91.6790692763938L141.01402214765548,95.36238303092136L141.08883064746857,98.85048115644318L141.3132561469078,101.3673528592632L141.3880646467209,101.92435463497411L141.53768164634704,99.39628005465322L141.61249014616013,101.84786316587L141.83691564559936,98.97743311974686L143.1086601424217,101.456094818382L143.1834686422348,103.8049406613043L143.2582771420479,105.54008523473463L143.63231964111327,104.16184027650776L143.85674514055253,95.79002699215299L144.15597913980486,97.74516272387316L144.23078763961792,99.7757815242727L144.305596139431,99.79837629057221L144.60483013868333,103.05136677325518L144.67963863849639,106.1319487603498L144.75444713830947,109.04925990212287L144.90406413793565,111.02614995083003L145.0536811375618,88.00519827416092L145.20329813718797,80.43062552977575L145.35291513681412,84.71010680277789L145.95138313531876,88.76277556830506L146.32542563438415,87.25609506180116L146.40023413419723,73.87869734827377L147.07351063251494,78.50543081488814L147.14831913232803,82.88694740776687L147.9712126302719,80.14723003478156L148.56968062877655,84.4417312690006L148.64448912858964,88.50862393780201L148.86891462802888,90.61103239688543L149.01853162765502,89.05792276466428L149.0933401274681,89.15928841978433L149.69180812597273,92.9761505595857L149.76661662578582,90.79386127351283L149.8414251255989,94.52409105206335L149.916233625412,98.0566186523483L150.14065912485123,101.40192228981606L150.29027612447737,104.56992483449606L150.36508462429046,83.01172141966714L150.43989312410355,71.00413891730672L151.0383611226082,59.54062459401301L151.41240362167358,63.79185091330575L151.48721212148666,68.3823612817596L151.7116376209259,68.98430746044836L152.23529711961748,66.11614199545957L152.3849141192436,66.67626889462146L153.13299911737442,70.65913497928611L153.50704161643984,74.76714623402029L153.5818501162529,78.63702174459581L153.73146711587907,82.2293472439075L153.80627561569213,85.69240777434533L154.2551266145706,88.94366363639641L154.77878611326219,92.02900197411986L154.85359461307524,94.8933307659966L155.52687111139298,96.6500498346861L155.8261051106453,99.41511895705396L155.97572211027145,102.68842207835989L156.27495610952377,105.78824013423596L156.94823260784148,108.3922790720875L157.09784960746765,110.62298859859649L157.32227510690691,113.3022746288986L157.47189210653306,115.83955849959428L157.54670060634612,117.87911438583644L157.92074310541153,120.17382574941375L158.14516860485077,117.05114167980726L158.51921110391618,112.88822325251121L158.66882810354232,114.13529014782058L158.96806210279465,115.81251442389191L159.1176791024208,117.4417201175796L159.19248760223388,119.7596133773737L159.26729610204697,121.9546582943985L159.5665301012993,124.03336583082078L159.94057260036467,126.00190186781252L160.16499809980394,119.99722647573789L160.31461509943006,121.65086912382742L160.53904059886932,122.96390733317612L160.76346609830856,124.31325171417255L161.06270009756088,125.42873224357164L161.58635959625246,126.48676563156121L161.66116809606552,127.49623722479923L161.73597659587858,128.45044224535712L162.25963609457017,90.92254952860655L162.40925309419632,81.37348990403424L162.5588700938225,85.60299936514593L162.78329559326173,82.24807683334106L162.85810409307481,69.008814029545L163.30695509195326,73.8936513120046L163.38176359176637,71.17854060970969L163.98023159027102,75.94838238342037L164.20465708971022,68.16258456603404L164.27946558952334,63.69102595646688L164.3542740893364,66.31795877605738L164.42908258914946,59.48560727975618L164.57869958877563,64.87517451995416L164.80312508821487,58.26458974556853L165.32678458690643,63.20078812642277L165.40159308671952,68.39345078174716L165.77563558578493,73.31090231633925L165.92525258541107,77.96772891959783L166.00006108522413,81.6758014141994L166.07486958503725,84.21112255087351L166.74814608335495,65.28914935209512L167.04738008260728,69.61520238156048L167.19699708223342,50.99561815574794L167.2718055820465,51.86556244150833L167.42142258167266,57.658992058132846L167.79546508073807,63.14536990507617L167.87027358055116,68.34096972613146L168.0198905801773,73.26120275667073L168.0946990799904,77.92066343659135L168.16950757980348,82.33317270047615L168.3939330792427,69.9369918715797L168.54355007886886,32.15970227290026L168.693167078495,36.59027308379047L169.36644357681274,16.65439875267851L169.59086907625198,24.314020044810842L170.26414557456968,30.25939459935612L170.71299657344818,37.197951111614444L170.78780507326127,38.28131535243433L171.23665607213974,44.73986585992704L171.31146457195283,50.87172267654382L171.38627307176588,56.67704088526828L171.53589007139206,62.16532072456938L171.98474107027053,67.37471868370989L172.43359206914903,72.24864291242626L172.5084005689621,76.96176926409157L173.10686856746673,81.4204155259595L173.18167706727982,79.31492333041656L173.40610256671906,83.65353681992833L173.63052806615832,77.84542569994231L173.9297620654106,72.05564773270977L174.07937906503676,76.77900282890002L174.37861306428908,81.25202010499214L174.82746406316758,85.48796746545139L175.1266980624199,89.49940961580626L175.20150656223296,93.29824533219234L175.42593206167223,81.1075951623292L175.7999745607376,83.44981414466342L176.09920855998993,87.56927842102004L176.24882555961608,91.47041109072978L176.39844255924226,95.16478372894485L176.47325105905531,83.29974776827599L176.5480595588684,86.44104922209202L177.07171905755996,90.4019780393449L177.22133605718614,86.8035267016045L177.29614455699922,79.44412197799507L177.74499555587767,81.86178187513809L177.81980405569075,73.38965779600271L177.89461255550384,78.04231035883832L178.04422955513,82.44837233584366L178.19384655475616,85.35868437849561L179.09154855251313,89.20783791441931L179.76482505083084,89.55233395964032L180.06405905008316,93.34836468580309L180.43810154914854,96.44261801587238L180.51291004896163,99.32447852516357L180.88695254802704,98.05766509557616L180.96176104784013,100.72840203526847L181.0365695476532,89.08214031355831L181.3358035469055,82.2592284888408L181.4106120467186,86.44179380495598L181.85946304559707,89.84991070872972L182.1586970448494,93.34774153982944L182.23350554466248,91.02626474493833L182.30831404447554,92.8284346070751L182.4579310441017,95.90756074135732L182.5327395439148,97.0722742692173L182.90678204298018,91.72859812384827L183.13120754241942,80.84340388190822L183.2808245420456,85.10100790219079L183.50525004148483,74.10071345663545L183.72967554092406,77.33534315098271L183.95410104036333,81.77887439000433L184.10371803998947,70.4550906536098L184.55256903886794,75.26327527499218L184.62737753868103,62.38587439708283L184.7769945383072,67.62172748006117L184.92661153793335,66.60882667196803L185.59988803625106,71.62086328437746L185.67469653606418,76.36726195632917L185.74950503587723,80.86210149866746L185.8243135356903,73.02822244514026L186.87163253307344,77.70003108157157L187.17086653232573,82.12423386027199L187.47010053157805,86.31395389170129L187.54490903139114,90.28161876146483L187.76933453083038,94.0389973931309L187.84414303064347,97.59723495731866L188.0685685300827,100.733008590296L188.21818552970888,100.95338600449882L188.367802529335,104.1451609722841L188.74184502840043,107.16777186677675L188.96627052783964,101.51089940079972L189.11588752746582,88.72874551133664L189.1906960272789,88.89953311528735L189.34031302690508,91.6306336813231L189.56473852634429,90.75155861679913L189.78916402578352,94.48403043613247L189.9387810254097,91.86346714810823L190.16320652484893,95.5370078152822L190.38763202428817,99.01585082709595L190.46244052410125,102.31031515928355L190.6868660235405,99.94635469686409L190.91129152297975,97.91421971871871L191.50975952148437,101.2670704996503L191.58456802129746,104.44222018919255L191.73418502092363,107.44908694518904L192.10822751998901,98.02196437336103L192.4822700190544,97.84410177235148L192.55707851886748,99.96427235233271L192.63188701868057,92.83887215539126L192.78150401830672,96.46071635717922L192.8563125181198,99.89060281627242L193.00592951774598,95.92879687268342L193.15554651737213,99.3868750644549L193.37997201681137,99.67286196839417L193.45478051662445,102.93250471009299L193.75401451587675,106.01938638648176L194.1280570149422,108.94266333402193L194.27767401456833,111.71100660334245L194.72652501344683,112.97444458046667L194.8013335132599,115.52910344372565L194.87614201307298,117.94836538723189L194.95095051288604,120.23940644773228L195.02575901269915,117.923768555501L195.25018451213836,120.06230465124993L195.39980151176454,122.24130693075739L195.62422701120377,120.90473957049966L195.69903551101686,121.57391485180878L195.9234610104561,122.85325804943108L196.07307801008224,122.5893890403548L196.22269500970842,124.63445584723968L196.2975035095215,126.57113411335969L196.37231200933456,123.60004668688315L196.6715460085869,125.59154863850203L196.9707800078392,124.52252097192599L197.04558850765227,120.49605423813014L197.12039700746536,121.3008229905864L197.41963100671768,123.41418379810901L197.49443950653077,125.41553648283293L197.64405650615691,125.90482460355209L197.71886500596997,118.87258660311093L197.86848200559615,120.28646939703077L197.94329050540924,121.66549984345156L198.0180990052223,122.44177348736186L198.16771600484847,116.50108426202576L198.24252450466156,118.33827088385482L198.39214150428774,102.4081574297854L198.61656700372694,84.19478588141732L198.76618400335312,88.27476665572591L198.8409925031662,92.13850844899615L199.28984350204468,95.79747192722303L199.36465200185776,93.8673324701325L199.43946050167082,91.60611638693582L199.73869450092315,89.39634411427826L199.88831150054932,93.20064230224523L200.03792850017547,96.80331268624994L200.3371624994278,91.18529764726658L200.86082199811935,94.89478129798513L201.0852474975586,98.19858343389829L201.23486449718476,100.82220608988453L201.38448149681093,99.80356825624146L201.459289996624,103.05628356468436L201.75852399587632,99.99507313514835L201.90814099550246,103.2376386850092L201.98294949531555,106.30834826072741L202.05775799512864,109.21631022893256L202.28218349456787,111.97015021282283L202.5814174938202,114.3942742574042L202.65622599363329,116.30074731816543L202.88065149307252,118.2685253721125L203.10507699251173,119.76319865271142L203.85316199064255,121.9580535501414L203.92797049045564,124.03658113800762L204.15239598989487,126.0049467637169L204.22720448970796,127.86898901126362L204.37682148933413,125.6251220175231L204.60124698877334,127.50929497661808L204.75086398839952,126.1687130154322L204.82567248821258,123.68227593126353L204.97528948783875,120.18426431722845L205.05009798765184,121.80575142196216L205.1249064874649,120.47670178717516L205.19971498727799,122.63374101847857L205.34933198690416,124.6764571705229L205.4989489865303,125.01815513950359L205.5737574863434,120.97359577831375L205.8729914855957,123.1042996280868L205.94779998540878,125.12207617382191L206.09741698503493,121.84094804482889L206.3218424844742,123.92568222447666L206.69588498353957,124.29466488004618L207.59358698129654,126.24935206742744L207.89282098054886,127.1674104162129L208.1172464799881,128.9698420901773L208.49128897905348,130.6767448854216L208.64090597867965,130.29911473738878L208.8653314781189,131.93556608233087L209.3141824769974,133.48528550599102L209.38899097681045,133.92982175068576L209.53860797643662,133.60650231820037L209.76303347587583,132.53777602322512L209.9874589753151,134.0555783200179L210.06226747512815,133.3535666709729L210.13707597494127,133.61019644873954L210.81035247325897,135.07116046298006L210.88516097307206,133.52620027373237L210.95996947288512,134.99161608524824L211.03477797269824,136.37936485875377L211.18439497232436,137.45243565076024L211.33401197195053,137.75512063339542L211.55843747138977,138.99640366584916L211.93247997045518,140.17189869758283L212.08209697008132,140.84118450503462L212.1569054698944,141.78020174884048L212.2317139697075,142.46349499871192L212.3065224695206,143.11103562715314L212.9049904680252,144.06845516493775L213.57826696634294,135.2637837998086L213.95230946540832,131.59377051048827L214.55077746391297,132.4956468742045L214.62558596372605,126.47106375767943L214.8500114631653,115.3433277586407L215.14924546241758,117.77243581345644L215.37367096185685,112.64840409577896L215.67290496110917,115.22034310472638L215.8973304605484,110.98136013754491L216.12175595998764,110.71429869405014L216.19656445980073,111.09379313993016L216.2713729596138,110.24644348709407L216.42098995923993,112.94568640830178L217.01945795774458,115.50186945468549L217.16907495737075,117.92257479961084L217.3186919569969,116.17572741362191L217.46830895662308,114.85356706471104L217.84235145568846,117.30489795133246L218.21639395475387,119.62161401021034L218.81486195325851,121.69210153049055L218.8896704530716,123.60405283559128L218.9644789528847,125.2881507275787L219.26371295213698,126.97289765001328L219.48813845157625,127.07570133653162L219.71256395101545,128.88299359171913L220.3110319495201,129.9860759052581L220.46064894914628,131.14579030755465L220.7598829483986,132.73736784727794L220.83469144821166,133.17796242560374L220.90949994802475,130.7626604715916L220.98430844783783,128.8371697057732L221.13392544746398,123.82733808974277L221.28354244709016,122.60664038050872L221.5079679465294,124.65079286636545L221.95681894540786,126.26258816176423L222.106435945034,127.81012578802267L222.6300954437256,129.57849354728117L222.92932944297792,129.385607019684L223.0789464426041,126.06257510415722L223.3781804418564,127.92356304966057L223.45298894166947,128.7718466407216L223.60260594129562,130.48924319478706L223.82703144073486,131.21359422650892L223.97664844036103,130.86398730318254L224.20107393980027,131.0688710155349L224.35069093942644,132.05247297292306L224.57511643886565,133.59599633138183L224.64992493867874,134.26939826650104L224.72473343849182,135.44941447096238L225.47281843662262,128.7211488625489L225.5476269364357,128.83256453042316L225.69724393606185,130.54674303633442L225.7720524358749,132.17007008143239L225.84686093568803,131.86451154075647L225.9216694355011,132.28980104421393L226.14609493494035,133.8207460148943L226.2209034347534,132.7062284310424L226.37052043437956,134.21510275022086L226.59494593381882,132.87669244033614L226.744562933445,133.9075919856886L226.89417993307114,134.88476187551603L227.04379693269732,136.01739127162963L227.71707343101502,134.83477558910533L228.01630743026735,136.23083690890647L228.1659244298935,137.5529069787581L228.31554142951967,136.74835282014473L228.4651584291458,137.7256537684145L228.61477542877196,138.0894680063232L228.68958392858505,139.16206282058315L228.9140094280243,139.80431578793716L229.36286042690276,140.3406202638347L229.43766892671587,140.76614457733368L229.7369029259682,140.05044612275785L229.9613284254074,141.17007690427536L230.18575392484664,141.07433727454224L230.3353709244728,142.13970182501518L230.4101794242859,143.14860205431307L230.70941342353822,142.49209652200483L231.00864742279055,139.56851341499961L231.23307292222978,140.71368663002835L231.30788142204284,139.7940059549384L231.38268992185593,138.8680110110051L231.457498421669,138.01950448732273L231.68192392110825,137.9118305829828L231.98115792036057,136.67437580275674L232.43000891923907,137.97293831123432L232.50481741905213,139.2026770067626L232.72924291849137,139.64460460113563L233.10328541755678,140.7857449832991L233.327710916996,140.65684160662002L233.4025194168091,140.60841466222206L233.55213641643525,141.698473111148L233.70175341606142,142.73075846228085L233.85137041568754,143.70833268980363L233.92617891550063,144.63409548326774L234.15060441493986,144.87842747800823L234.22541291475295,145.11984852055224L234.37502991437913,145.97080097498664L234.59945541381836,145.79860633912253L234.67426391363145,146.61358462917272L234.8238809132576,147.38536906985027L235.27273191213607,147.05406115640614L235.49715741157533,147.8025003411403L235.72158291101454,147.67021275396468L235.79639141082765,146.2016720756184L236.09562541007998,146.77056320431393L236.54447640895842,147.09881283562254L237.51698690652847,147.84488018135823L237.81622090578077,144.64774858494363L237.96583790540694,145.5237223359653L238.33988040447235,143.49586080947927L238.5643059039116,144.43288461260056L238.71392290353774,144.63595629420624L239.01315690279006,145.512555036637L239.38719940185547,139.3722154907954L239.6864334011078,127.2445684998946L239.98566740036011,127.419411190637L240.21009289979935,128.64749467614558L240.88336939811708,130.37148188433355L241.33222039699555,128.4951044673147L242.08030539512635,126.49342194067626L242.15511389493943,128.3315750038441L242.2299223947525,130.07230595466407L242.45434789419176,129.86918415910327L242.52915639400481,128.46263545648873L242.90319889307023,130.1964202033185L243.0528158926964,131.83831435856632L243.3520498919487,132.8758149812081L243.42685839176178,132.1296692547545L243.50166689157484,131.84388969304968L243.57647539138793,128.42331962227314L243.65128389120102,130.15918810831639L243.7260923910141,131.8030555645993L243.80090089082717,133.35979804569922L244.3993688893318,132.47870039042692L244.62379438877105,132.89562129474484L245.07264538764952,134.279400825894L246.11996438503266,135.70489700814528L246.19477288484572,137.05484189273727L246.2695813846588,137.12931758592381L246.79324088335036,138.40376817989355L247.16728338241575,139.38737759148938L247.391708881855,140.3884187452284L247.54132588148119,141.28547617931838L247.61613438129424,141.83201889150567L247.69094288110733,142.6401314711882L247.7657513809204,142.95228006004123L248.06498538017271,142.0715563073882L248.66345337867736,142.80466358069074L248.73826187849045,143.55308006127763L248.96268737792968,143.18089727932656L249.11230437755586,142.528436749106L249.18711287736892,143.33100204359303L249.3367298769951,144.2767633613063L250.23443187475206,144.5868244654504L250.3840488743782,145.1607498071453L250.60847437381744,146.00953449339028L250.7580913734436,146.3056891996278L251.13213387250903,146.69078849247538L251.35655937194824,146.23675298437345L251.58098487138747,146.63761665164935L252.2542613697052,147.231704240805L252.3290698695183,146.80572858429804L252.5534953689575,147.4039374784482L252.77792086839676,148.13383321811415L252.9275378680229,147.01109441595113L253.002346367836,147.76181083792943L253.45119736671447,148.47273928954286L253.67562286615373,149.1459885332208L253.7504313659668,149.78355556698378L254.12447386503217,150.38733154795733L254.27409086465835,148.5218747008156L254.4237078642845,148.05646747805218L254.64813336372376,146.24945706997946L254.72294186353682,145.12199909187282L254.79775036334993,145.57464217906713L255.32140986204146,145.06562004912038L255.69545236110687,145.9194466125407L255.84506936073302,146.72802036809972L255.9198778605461,146.92447283131423L255.9946863603592,145.95083359343914L256.29392035961155,146.75774383901057L256.3687288594246,144.67647152931778L256.8175798583031,142.00839298810536L257.11681385755537,139.58692531068792L257.3412393569946,140.73112269524515L257.4160478568077,139.29902279435416L257.5656648564339,140.45847901227705L258.0893243551254,141.55648405065008L258.1641328549385,142.59629482198932L258.5381753540039,143.09763682062803L259.43587735176084,141.27166727730886L259.80991985082625,141.84720288102207L259.9595368504524,140.474384663544L260.0343453502655,141.07268034611172L260.2587708497048,138.4437378381361L260.33357934951783,138.568235780192L261.00685584783554,139.252314612514L261.455706846714,140.41424636407447L261.75494084596636,141.51459573280223L261.8297493457794,139.94910619745065L262.1289833450317,141.07410799500946L262.2786003446579,129.5960191093665L262.42821734428406,130.0457765016691L262.5778343439102,131.69565477310434L262.72745134353636,130.2722095173594L262.95187684297565,124.4441430488595L263.0266853427887,126.39090789329366L263.10149384260177,128.2344942009728L263.325919342041,126.44490830857183L263.40072784185406,127.7313109281087L263.4755363416672,128.95191062473583L263.55034484148024,130.08580534567955L263.7747703409195,131.7335620883822L263.8495788407326,133.29398772372167L263.92438734054565,117.75686684370146L264.1488128399849,111.34543779438842L264.223621339798,109.4406424359553L264.3732383394241,109.80497457169524L264.44804683923724,112.52761534541906L264.74728083848953,102.31046728994716L264.8968978381157,100.99065181163763L264.97170633792877,104.18045169164454L265.0465148377419,107.20119217801111L265.3457488369942,110.06183341860019L265.49536583662035,97.4059265285283L265.6449828362465,94.34026725561566L265.8694083356857,97.88253751709173L266.54268483400347,100.18174366324766L266.7671103334427,102.83386491429742L266.9167273330689,105.92597449986333L267.066344332695,108.66784191900608L267.21596133232117,110.63767337670629L267.3655783319473,112.297529085996L267.5900038313866,114.46061370956426L267.73962083101276,114.29181795714769L268.03885483026505,111.83222862642656L268.3380888295174,112.45032711502719L268.4877058291435,115.03276420395447L268.71213132858276,116.70474590542253L269.0113653278351,119.06169879845883L269.3105993270874,121.29373318816423L269.53502482652664,119.07337232471909" fill="none"></path></g></g></g></g><g opacity="0.2"><g><g><g><path style="fill: none;" stroke="rgb(255, 112, 67)" stroke-width="2px" d="M37.853100905418394,148.29564275816944L38.30195190429688,148.53758351614093L38.52637740373611,147.4694438292107L38.601185903549194,139.1274162079165L38.825611402988436,148.6100751114648L39.27446240186691,137.25399419856765L40.172164399623874,132.3689557474166L40.47139839887619,149.78581577584868L40.62101539850235,150.2767796208377L40.77063239812851,152.06618982742944L40.84544089794159,151.01230711770873L40.995057897567754,149.21175300952797L41.44390889644623,150.22904360774007L41.51871739625931,151.20019667259888L41.59352589607239,149.16030080048415L41.66833439588547,128.5447248770452L42.341610894203185,149.0183139978415L42.56603639364242,105.99195552222069L42.79046189308166,161.17555520799425L42.86527039289474,138.91900181695425L42.940078892707824,145.88457576552273L43.014887392520905,129.36301529115045L43.3889298915863,158.91442652918394L43.98739789009094,130.62290225365544L44.06220638990402,161.17555520799425L44.5110573887825,149.87703362464165L45.109525387287135,147.93768358118237L45.33395088672638,152.69587415907813L45.40875938653946,149.69114791008772L45.932418885231016,153.4206174240183L46.30646138429642,148.6555026780011L46.90492938280106,149.32921666792538L47.12935488224029,150.4967025036091L47.20416338205337,150.8745876139672L47.87743988037109,150.7649968549262L48.027056879997254,146.68026064872595L48.101865379810334,151.1759406445818L48.176673879623415,83.46614709869213L48.70033337831497,152.97643430014253L49.074375877380376,148.85356608080951L49.22399287700653,144.13039162867622L49.29880137681961,149.6971936407185L49.598035376071934,134.84343238362962L49.97207787513733,150.65761847432933L50.04688637495041,148.73261585269714L50.27131187438965,152.0491993608184L50.72016287326813,147.53380759319901L50.79497137308121,154.50035651600027L50.94458837270737,151.70901512862827L51.16901387214661,148.90515137934247L51.31863087177277,151.52246256075384L51.39343937158585,152.81724708690598L51.543056371212,153.26331900368984L51.692673370838165,150.04259601185706L51.76748187065124,151.98986019366936L52.2911413693428,147.31909113375193L52.88960936784744,154.35007223978593L52.96441786766052,161.17555520799425L53.0392263674736,160.47372676643081L53.33846036672592,150.815054436084L54.08654536485672,115.99634865436751L54.1613538646698,154.76171802963412L54.31097086429596,151.92106089441864L54.610204863548276,151.93054867539303L54.83463036298752,149.36795039550893L54.9094388628006,145.25302864965133L54.98424736261368,129.35319478645326L55.208672862052914,148.11633560082768L56.106374859809875,124.59367471954121L56.55522585868835,155.92120970925262L56.779651358127595,141.925546799421L56.929268357753756,148.38991697896256L57.00407685756684,150.06759059281373L57.15369385719299,151.54998068712925L57.452927856445314,150.83326988834492L57.752161855697636,152.444546843124L57.90177885532379,150.84870452008315L58.275821354389194,104.11183592491935L59.32314035177231,150.42710091842397L59.69718285083771,152.16555659568127L59.771991350650794,146.7042504977648L60.07122534990311,147.12571210606055L60.14603384971619,147.9550545712623L60.44526784896851,124.40923143261934L60.520076348781586,149.62854383283056L60.66969334840775,150.80592234145556L60.89411884784698,151.55381216481604L61.26816134691238,150.5331943293759L61.34296984672546,156.5314224980087L61.41777834653854,148.873731950161L61.79182084560394,144.67156442068568L61.86662934541702,152.04554268024233L61.9414378452301,149.69959393777225L62.16586334466934,143.8821272454717L62.83913984298706,150.37840563002982L62.98875684261322,151.20839573492862L63.4376078414917,146.21075279760797L63.886458840370175,135.8072402208389L64.41011833906174,146.71870382883324L64.63454383850097,150.1862806427359L64.9337778377533,95.75988188968664L65.23301183700562,150.23869915645074L65.38262883663178,148.68225928881375L65.68186283588409,137.06560508946833L65.75667133569718,154.2228079932522L65.83147983551025,141.16284186652166L65.98109683513641,148.35971784918132L66.35513933420181,147.60219872010808L66.72918183326722,149.61979929104544L66.80399033308029,88.44770542145271L68.00092633008957,161.17555520799425L68.52458582878113,161.17555520799425L68.97343682765961,150.21765930154572L69.04824532747269,152.22659499694143L69.19786232709885,146.71044853150812L69.64671332597733,148.5412144223441L70.31998982429504,152.5287601546146L70.4696068239212,149.0275777760842L70.54441532373428,148.31392006892526L70.76884082317352,151.17515241739622L71.217691822052,145.5569844233031L71.81615982055663,130.54899259919753L71.89096832036972,136.97748297717226L72.11539381980896,148.50817355079516L72.19020231962203,96.98324422267748L72.86347881793975,106.70501901292818L72.93828731775284,148.2358996363034L73.76118081569672,137.9538930768513L73.98560631513595,153.1441504876818L74.06041481494904,150.11967169655614L74.21003181457519,109.30830565511104L74.35964881420135,146.05608500350192L75.40696781158448,129.39107093035693L75.78101031064986,135.105778009683L75.93062731027602,161.17555520799425L76.15505280971527,146.63842556114594L76.30466980934143,150.8830505121504L76.67871230840683,100.11259799985467L76.75352080821992,153.57064114475395L77.20237180709839,151.06595342882318L77.35198880672455,147.48700039477546L77.42679730653762,151.5376886543841L77.57641430616378,153.62321172726885L77.65122280597687,128.03860429492028L77.8756483054161,155.40948296671098L78.02526530504227,123.92705008803739L78.39930780410766,148.12885257355444L78.47411630392074,149.01645636849335L79.14739280223847,158.74514501711633L79.29700980186463,151.61147459185216L79.59624380111694,148.0219076710471L79.67105230093001,149.8105029388305L79.7458608007431,152.40576062954474L80.04509479999543,161.17555520799425L80.34432879924775,159.06472287249105L80.41913729906082,159.71171422691236L80.64356279850007,156.95563461264993L80.79317979812623,143.47729713706633L80.94279679775238,139.8951026241586L81.01760529756545,147.20850032904266L81.09241379737854,145.84328428289828L81.16722229719161,144.993544447614L81.31683929681778,142.79018047323768L81.39164779663086,112.77446956475421L81.76569029569626,146.22552104465063L81.84049879550935,117.15670904750874L82.36415829420089,87.83310940769555L82.51377529382705,115.48881282485826L82.96262629270554,161.17555520799425L83.1122432923317,161.17555520799425L83.48628579139711,135.9655998423931L83.86032829046249,146.40688265382445L84.00994529008865,48.89909526452804L84.9076472878456,136.8285483408476L85.43130678653716,140.8674375611708L85.50611528635025,149.71925556666494L85.65573228597641,48.61829518748329L85.73054078578949,145.20464593410657L85.80534928560257,32.77478254668103L85.88015778541565,106.13452248256593L86.02977478504181,144.59746637899315L86.25420028448104,139.1015443610315L86.55343428373337,125.98656494417327L86.62824278354644,149.58094700134657L86.92747678279876,139.94885015826478L87.15190228223801,98.17570355119464L87.45113628149034,122.10017753338315L87.67556178092956,144.1881908942012L87.75037028074264,126.64864016454901L87.8999872803688,51.32741984001397L87.97479578018188,117.11181477617882L88.12441277980804,143.5228756008403L88.19922127962113,142.16280037052564L88.2740297794342,146.3549196435724L88.49845527887345,140.94276058851318L88.57326377868652,121.47273744667599L88.64807227849961,144.65814300178286L88.79768927812577,93.59645413454555L88.94730627775192,136.9973039385519L89.022114777565,161.17555520799425L89.54577427625657,10.56181690057775L89.7701997756958,109.19423859043594L90.06943377494812,120.38775444137269L90.29385927438736,116.37631727130531L90.44347627401352,137.6233062838766L90.59309327363968,138.8863855196206L90.892327272892,151.87809829518082L91.19156127214433,137.78277186034038L91.41598677158356,91.24643116665854L91.49079527139665,45.500019704400465L91.56560377120971,147.11188954419055L91.6404122710228,100.0952251352749L92.08926326990128,132.03323469936163L92.53811426877976,116.21689105933831L92.68773126840593,151.59062453005663L92.762539768219,131.77470742949606L93.06177376747131,123.85394834301341L93.28619926691056,148.6221590747269L93.36100776672363,140.19701519297743L93.58543326616287,96.082509556312L93.66024176597595,123.79576386776995L93.73505026578903,68.15658199023999L93.88466726541519,129.9427268627594L94.03428426504135,80.59081429374889L94.48313526391982,158.7021844095346L94.70756076335907,-64.46829359775535L94.78236926317214,91.89170899390746L95.00679476261139,144.3878494963792L95.08160326242447,143.6152237730409L95.15641176223755,139.84089583758995L95.30602876186371,144.68975175544887L95.38083726167679,139.05084851267586L95.82968826055526,146.32371765637313L96.12892225980758,145.09262957226386L96.20373075962067,145.71739943393928L96.35334775924683,69.03027137281639L96.50296475887299,98.37308463605886L96.65258175849915,102.5016218115534L96.72739025831223,144.77476782149887L96.80219875812531,145.4289654562686L96.87700725793837,115.4368816811036L96.95181575775146,127.03387425155634L97.1762412571907,161.17555520799425L97.32585825681686,90.7499436392461L97.47547525644302,4.30676087192486L97.69990075588227,127.99985275958818L97.84951775550843,141.6890823927518L97.9243262553215,143.3935182409152L97.99913475513459,103.36446533801644L98.44798575401306,161.17555520799425L98.52279425382613,161.17555520799425L98.6724112534523,-8.642269073499627L98.89683675289155,129.90126292614903L99.19607075214387,145.16249405605248L99.4204962515831,143.92349464533993L99.64492175102234,-29.500773616329294L99.71973025083541,137.68227992355554L99.86934725046157,101.09572068348497L100.01896425008773,161.17555520799425L100.1685812497139,161.17555520799425L100.5426237487793,139.8447141937778L100.76704924821854,87.29122149399458L100.91666624784469,144.01677631846422L102.0387937450409,109.3429988982749L102.33802774429321,144.13602543796566L102.48764474391938,160.7774098003549L102.56245324373245,161.0936337068788L102.86168724298477,99.2373227904079L103.01130424261093,14.713984021140558L103.31053824186326,136.82213005337226L103.46015524148942,137.26919264332517L103.60977224111556,82.56434771641369L103.8341977405548,132.52742221546208L103.98381474018096,137.42343961221556L104.05862323999405,137.65341075141555L104.20824023962021,119.11658111529037L104.50747423887253,145.32810049401425L104.80670823812486,140.6758936688294L105.3303677368164,146.09947780045462L105.40517623662949,144.49962029874203L105.47998473644256,126.51422727853718L105.55479323625565,141.94198522582715L105.70441023588181,134.69401600084433L105.92883573532104,143.73864834095102L106.00364423513413,146.24734397186663L106.0784527349472,144.01029336074419L106.30287823438644,-25.03387047349599L106.37768673419951,118.79519061856382L106.4524952340126,138.53018743523958L106.52730373382568,144.8211504457071L107.12577173233032,140.6469720106937L107.20058023214341,141.37055706904104L107.42500573158264,-39.0592982149256L107.9486652302742,135.17838301224762L108.17309072971344,145.4530059168033L108.77155872821808,108.76611032343519L108.84636722803117,124.90425685015131L108.99598422765732,-170.4739142238589L109.07079272747039,145.17799523253527L109.14560122728348,140.2729999187657L109.37002672672271,-69.69274961065918L109.4448352265358,143.17648677415738L109.59445222616196,146.21518505249563L109.74406922578812,51.2754362102636L110.11811172485352,8.253992673241006L110.19292022466661,136.81148101974284L110.49215422391892,99.73423770378541L110.56696272373199,114.31978099542593L110.64177122354508,71.90945814944457L110.71657972335815,-164.16947637124298L110.9410052227974,-197.29503782324804L111.01581372261047,112.53972219994466L111.09062222242356,71.27233814552876L111.3150477218628,91.43709779307166L111.38985622167588,146.90366260321298L111.98832422018052,140.16895018127173L112.28755821943282,75.680734399145L112.43717521905899,48.45688575467842L112.58679221868515,127.53493368409505L112.66160071849824,9.5356107124695L112.88602621793746,126.90193945434194L113.1104517173767,143.89744378371958L113.18526021718978,139.67805803590184L113.26006871700287,142.52283836784275L113.33487721681594,141.51895934740926L113.55930271625519,146.19968856226245L114.15777071475983,144.41475887892938L114.30738771438598,145.4241995404082L114.6066217136383,145.11236430665053L114.68143021345138,144.6044207734246L114.90585571289063,146.89724619023752L115.05547271251679,119.02648515465563L115.20508971214295,52.993557781808185L115.57913221120833,145.10056807911488L116.1027917098999,137.21880796194407L116.17760020971298,123.88334424961032L116.40202570915223,142.85962600631058L116.55164270877839,142.6502818634243L117.00049370765686,99.01555821153703L117.07530220746993,50.57656268339609L117.2249192070961,65.57034954766293L117.37453620672225,149.94928294086031L117.67377020597458,108.13973120364132L117.9730042052269,161.17555520799425L118.12262120485306,17.633375070482074L118.49666370391846,135.81597351562496L118.57147220373153,94.1688139177555L118.64628070354462,161.17555520799425L119.16994020223618,3.5252144038158106L119.24474870204926,117.84574145018075L119.69359970092773,57.701079222971096L119.99283370018006,124.5010969211094L120.06764219999313,137.42065223094343L120.14245069980622,-152.4607804804219L120.81572719812394,-179.74180137021463L120.96534419775008,122.49715161293074L121.18976969718933,52.55275039784393L121.6386206960678,61.04189532786138L121.71342919588089,161.17555520799425L122.01266319513321,12.945520881711364L122.23708869457244,-104.48912025807658L122.31189719438552,87.06701631632322L122.3867056941986,43.59523543811544L123.43402469158173,161.17555520799425L123.65845019102096,100.11943242629596L123.8828756904602,152.67642950354272L123.95768419027328,147.1470635965651L124.03249269008636,148.63800797093128L124.2569181895256,129.92474478572942L124.33172668933868,-160.18326996911296L124.40653518915177,142.77783033099732L125.7530881857872,15.309340168470554L125.90270518541337,126.44823551143199L125.97751368522644,145.00879444111732L126.1271306848526,140.35987361416383L126.20193918466569,161.17555520799425L126.65079018354416,160.78498887186032L126.72559868335723,161.17555520799425L126.8752156829834,161.17555520799425L127.02483268260956,149.17382625412844L127.17444968223572,150.94808628433375L127.32406668186188,153.07361352707315L127.54849218130113,100.44310231483614L127.69810918092728,84.4808888457376L127.84772618055344,60.06126947802695L127.9973431801796,146.76924315645167L128.14696017980577,151.1862846033612L128.29657717943192,150.67025588367122L129.0446621775627,50.39054481660293L129.34389617681504,48.213388224584186L129.64313017606736,121.51721932803962L129.71793867588042,161.17555520799425L129.7927471756935,161.17555520799425L129.94236417531968,20.674878537840975L130.16678967475892,50.01964877892347L130.39121517419815,108.3853919065587L130.54083217382433,139.09638198845352L130.76525767326356,73.59030716603617L131.21410867214203,120.42827363006029L131.36372567176818,87.66987046304024L131.51334267139435,50.374844005886466L131.58815117120741,161.17555520799425L131.81257667064668,161.17555520799425L131.88738517045974,58.21706154878986L131.96219367027282,161.17555520799425L132.18661916971206,53.02891084891808L132.7850871682167,1.5363250784063422L133.15912966728212,161.17555520799425L133.30874666690826,45.752454849764035L133.75759766578673,99.87491141928541L134.05683166503906,140.7113798254284L134.13164016485214,144.93175343466538L134.20644866466523,141.98965844317988L134.2812571644783,-24.879576642109416L134.7301081633568,10.619521503860437L134.95453366279602,77.42101255887827L135.47819316148758,161.17555520799425L135.62781016111373,161.17555520799425L135.852235660553,-133.86352259273664L135.92704416036605,67.58063066532364L136.15146965980531,161.17555520799425L136.60032065868378,161.17555520799425L136.74993765830993,161.17555520799425L136.97436315774917,161.17555520799425L137.19878865718843,-186.07323202062398L137.2735971570015,39.417087749676526L137.34840565681458,141.091228474376L137.42321415662767,144.61446059460388L137.49802265644075,145.646735475966L137.94687365531922,161.17555520799425L138.3957246541977,33.25853097313488L138.8445756530762,161.17555520799425L139.29342665195466,0.7205277490972878L139.66746915102004,161.17555520799425L139.96670315027237,97.21392017381986L140.49036264896392,-20.70455561941488L140.63997964859007,161.17555520799425L140.86440514802933,67.53491536306085L141.01402214765548,161.17555520799425L141.08883064746857,161.17555520799425L141.3132561469078,146.33862649090435L141.3880646467209,111.87682032513649L141.53768164634704,54.22483425315207L141.61249014616013,145.65256517048945L141.83691564559936,47.688805693468495L143.1086601424217,145.7446349794628L143.1834686422348,145.77394091006704L143.2582771420479,136.54351751764867L143.63231964111327,79.53546338202318L143.85674514055253,-53.79690093413536L144.15597913980486,132.6793804200396L144.23078763961792,136.05872499478016L144.305596139431,100.20209786953811L144.60483013868333,161.17555520799425L144.67963863849639,161.17555520799425L144.75444713830947,161.17555520799425L144.90406413793565,146.3490721413004L145.0536811375618,-323.3314288478481L145.20329813718797,-54.91126859903646L145.35291513681412,161.17555520799425L145.95138313531876,161.17555520799425L146.32542563438415,60.33484148366259L146.40023413419723,-165.14763537927905L147.07351063251494,161.17555520799425L147.14831913232803,161.17555520799425L147.9712126302719,31.194166785895423L148.56968062877655,161.17555520799425L148.64448912858964,161.17555520799425L148.86891462802888,128.17670807113038L149.01853162765502,61.30707707218292L149.0933401274681,90.9704822952172L149.69180812597273,161.17555520799425L149.76661662578582,51.8008810113088L149.8414251255989,161.17555520799425L149.916233625412,161.17555520799425L150.14065912485123,161.17555520799425L150.29027612447737,161.17555520799425L150.36508462429046,-302.18863016025927L151.0383611226082,-145.28858416274466L151.41240362167358,139.75244193882102L151.48721212148666,150.40525409133497L151.7116376209259,79.73983635131583L152.23529711961748,14.867977932551653L152.3849141192436,76.6845740550817L153.13299911737442,141.82468558616634L153.50704161643984,148.16878129479028L153.5818501162529,147.7836653012733L153.73146711587907,146.41674814651793L153.80627561569213,147.57011196898114L154.2551266145706,147.03685800157433L154.77878611326219,147.1575945367042L154.85359461307524,146.07294144337394L155.52687111139298,128.03897357139007L155.8261051106453,148.82116535095827L155.97572211027145,161.17555520799425L156.27495610952377,161.17555520799425L156.94823260784148,154.9210502822963L157.09784960746765,150.4811380627565L157.32227510690691,161.17555520799425L157.47189210653306,161.17555520799425L157.54670060634612,154.32174503241416L157.92074310541153,161.17555520799425L158.14516860485077,61.25525839841907L158.51921110391618,38.50551097619739L158.66882810354232,136.41778731492704L158.96806210279465,145.78103120573743L159.1176791024208,146.5522444934412L159.19248760223388,161.17555520799425L159.26729610204697,161.17555520799425L159.5665301012993,161.17555520799425L159.94057260036467,161.17555520799425L160.16499809980394,12.706139753280626L160.31461509943006,151.1980311566509L160.53904059886932,146.42517496057906L160.76346609830856,148.4232352764888L161.06270009756088,145.36005415565205L161.58635959625246,145.39162635657104L161.66116809606552,145.53339946623117L161.73597659587858,145.50010553720293L162.25963609457017,-579.6230052401642L162.40925309419632,-89.24838678399749L162.5588700938225,161.17555520799425L162.78329559326173,22.30257423677782L162.85810409307481,-167.54933455894158L163.30695509195326,161.17555520799425L163.38176359176637,22.665147495137678L163.98023159027102,161.17555520799425L164.20465708971022,-70.9534632275966L164.27946558952334,-16.206445803132677L164.3542740893364,113.25579613740604L164.42908258914946,-62.594333606950464L164.57869958877563,161.17555520799425L164.80312508821487,-59.85284009106593L165.32678458690643,151.4004082522317L165.40159308671952,161.17555520799425L165.77563558578493,161.17555520799425L165.92525258541107,161.17555520799425L166.00006108522413,147.93136089319927L166.07486958503725,129.51204927596703L166.74814608335495,-272.80723969017043L167.04738008260728,146.9127914174667L167.19699708223342,-281.69770753938L167.2718055820465,67.4096612833003L167.42142258167266,161.17555520799425L167.79546508073807,161.17555520799425L167.87027358055116,161.17555520799425L168.0198905801773,161.17555520799425L168.0946990799904,161.17555520799425L168.16950757980348,161.17555520799425L168.3939330792427,-151.55703161830283L168.54355007886886,-642.8420571600443L168.693167078495,115.75537795006672L169.36644357681274,-339.558299201311L169.59086907625198,161.17555520799425L170.26414557456968,136.49089843245025L170.71299657344818,161.17555520799425L170.78780507326127,57.63878584406354L171.23665607213974,160.14075889002575L171.31146457195283,160.435277494199L171.38627307176588,160.4060285015276L171.53589007139206,160.22949068339696L171.98474107027053,160.45584825551737L172.43359206914903,159.33555318778832L172.5084005689621,161.17555520799425L173.10686856746673,161.08717043140715L173.18167706727982,41.69414768552823L173.40610256671906,161.17555520799425L173.63052806615832,-25.933465443954635L173.9297620654106,-31.395668021422804L174.07937906503676,161.17555520799425L174.37861306428908,161.17555520799425L174.82746406316758,161.17555520799425L175.1266980624199,161.17555520799425L175.20150656223296,161.17555520799425L175.42593206167223,-136.71402202371002L175.7999745607376,125.30040614976635L176.09920855998993,161.17555520799425L176.24882555961608,161.17555520799425L176.39844255924226,161.17555520799425L176.47325105905531,-128.70381930253936L176.5480595588684,142.56958651952112L177.07171905755996,161.17555520799425L177.22133605718614,22.506669780093144L177.29614455699922,-52.053166196684636L177.74499555587767,125.06034645239109L177.81980405569075,-77.9896158443953L177.89461255550384,161.17555520799425L178.04422955513,161.17555520799425L178.19384655475616,137.35992031040823L179.09154855251313,157.9842227921494L179.76482505083084,95.7077632959473L180.06405905008316,161.17555520799425L180.43810154914854,151.73050298899665L180.51291004896163,150.8173446062718L180.88695254802704,75.42233834426872L180.96176104784013,148.44892810863846L181.0365695476532,-119.0123851668083L181.3358035469055,-39.6520450584689L181.4106120467186,161.17555520799425L181.85946304559707,150.7458863289885L182.1586970448494,155.84671884268596L182.23350554466248,49.54629257962006L182.30831404447554,125.02946969091523L182.4579310441017,150.92515412183346L182.5327395439148,117.88328768211137L182.90678204298018,-3.7518039452922527L183.13120754241942,-113.65242530898183L183.2808245420456,161.17555520799425L183.50525004148483,-122.45171748564495L183.72967554092406,135.13146240658332L183.95410104036333,161.17555520799425L184.10371803998947,-131.87742252309917L184.55256903886794,161.17555520799425L184.62737753868103,-167.7065526100891L184.7769945383072,161.17555520799425L184.92661153793335,48.51039147830436L185.59988803625106,161.17555520799425L185.67469653606418,161.17555520799425L185.74950503587723,161.17555520799425L185.8243135356903,-66.94693724712772L186.87163253307344,161.17555520799425L187.17086653232573,161.17555520799425L187.47010053157805,161.17555520799425L187.54490903139114,161.17555520799425L187.76933453083038,161.17555520799425L187.84414303064347,161.17555520799425L188.0685685300827,156.76277520217388L188.21818552970888,104.89107300921718L188.367802529335,161.17555520799425L188.74184502840043,161.17555520799425L188.96627052783964,0.4343291124938473L189.11588752746582,-139.66181549472967L189.1906960272789,91.95115313304794L189.34031302690508,140.42973247445292L189.56473852634429,75.04431170917216L189.78916402578352,161.17555520799425L189.9387810254097,45.039440096052566L190.16320652484893,161.17555520799425L190.38763202428817,161.17555520799425L190.46244052410125,161.17555520799425L190.6868660235405,57.70728756646357L190.91129152297975,61.604185297894496L191.50975952148437,161.17555520799425L191.58456802129746,161.17555520799425L191.73418502092363,161.17555520799425L192.10822751998901,-70.42115025911286L192.4822700190544,94.6660662411054L192.55707851886748,137.84732026256358L192.63188701868057,-34.477240797506084L192.78150401830672,161.17555520799425L192.8563125181198,161.17555520799425L193.00592951774598,25.13954727685696L193.15554651737213,161.17555520799425L193.37997201681137,104.782854384064L193.45478051662445,161.17555520799425L193.75401451587675,161.17555520799425L194.1280570149422,161.17555520799425L194.27767401456833,161.17555520799425L194.72652501344683,135.54945900191237L194.8013335132599,161.17555520799425L194.87614201307298,161.17555520799425L194.95095051288604,161.17555520799425L195.02575901269915,76.54812546223627L195.25018451213836,158.27350621114127L195.39980151176454,161.17555520799425L195.62422701120377,97.02305485042298L195.69903551101686,133.53068827444568L195.9234610104561,145.7124657503426L196.07307801008224,117.87459750082179L196.22269500970842,161.17555520799425L196.2975035095215,161.17555520799425L196.37231200933456,70.51288078361394L196.6715460085869,161.17555520799425L196.9707800078392,105.42121530687837L197.04558850765227,48.5514505229478L197.12039700746536,135.68037032221045L197.41963100671768,161.17555520799425L197.49443950653077,161.17555520799425L197.64405650615691,134.64738781715616L197.71886500596997,-6.778911253828023L197.86848200559615,145.5496204506551L197.94329050540924,146.30591178232876L198.0180990052223,136.312172370061L198.16771600484847,10.353297537624083L198.24252450466156,151.1649827871026L198.39214150428774,-182.22990749481352L198.61656700372694,-241.24036235074388L198.76618400335312,161.17555520799425L198.8409925031662,161.17555520799425L199.28984350204468,161.17555520799425L199.36465200185776,59.37974632174107L199.43946050167082,51.202878070195176L199.73869450092315,49.91229992169918L199.88831150054932,161.17555520799425L200.03792850017547,161.17555520799425L200.3371624994278,-9.196971068153069L200.86082199811935,161.17555520799425L201.0852474975586,157.23067065483704L201.23486449718476,147.7008976977895L201.38448149681093,81.60262432303401L201.459289996624,161.17555520799425L201.75852399587632,45.297596214948456L201.90814099550246,161.17555520799425L201.98294949531555,161.17555520799425L202.05775799512864,161.17555520799425L202.28218349456787,161.17555520799425L202.5814174938202,157.70833973322613L202.65622599363329,150.36546408308774L202.88065149307252,153.42863512848785L203.10507699251173,146.46990802492215L203.85316199064255,161.17555520799425L203.92797049045564,161.17555520799425L204.15239598989487,161.17555520799425L204.22720448970796,161.17555520799425L204.37682148933413,85.53187592182003L204.60124698877334,161.17555520799425L204.75086398839952,102.21529570896038L204.82567248821258,79.25480576696678L204.97528948783875,57.68205679852618L205.05009798765184,150.77836063295874L205.1249064874649,96.72934321843374L205.19971498727799,161.17555520799425L205.34933198690416,161.17555520799425L205.4989489865303,131.12358866072464L205.5737574863434,48.70571436233683L205.8729914855957,161.17555520799425L205.94779998540878,161.17555520799425L206.09741698503493,63.213998268293246L206.3218424844742,161.17555520799425L206.69588498353957,130.887619122015L207.59358698129654,161.17555520799425L207.89282098054886,143.5712077048892L208.1172464799881,161.17555520799425L208.49128897905348,161.17555520799425L208.64090597867965,123.5516477527263L208.8653314781189,161.17555520799425L209.3141824769974,161.17555520799425L209.38899097681045,141.87276182098614L209.53860797643662,127.8294551000181L209.76303347587583,113.44185524319583L209.9874589753151,161.17555520799425L210.06226747512815,120.8100755078482L210.13707597494127,138.19563794958881L210.81035247325897,161.17555520799425L210.88516097307206,105.92096821302387L210.95996947288512,161.17555520799425L211.03477797269824,161.17555520799425L211.18439497232436,156.62598357585654L211.33401197195053,143.16347305897125L211.55843747138977,161.17555520799425L211.93247997045518,161.17555520799425L212.08209697008132,152.7999328004464L212.1569054698944,158.5584909919377L212.2317139697075,154.67252721811292L212.3065224695206,154.68124270515042L212.9049904680252,161.17555520799425L213.57826696634294,-22.05741964881907L213.95230946540832,66.01825003904733L214.55077746391297,148.61030567494592L214.62558596372605,18.824267317127354L214.8500114631653,-83.48621924305125L215.14924546241758,161.17555520799425L215.37367096185685,21.09259208369314L215.67290496110917,161.17555520799425L215.8973304605484,35.239532403189195L216.12175595998764,105.94246497726651L216.19656445980073,117.87457125782393L216.2713729596138,95.10606384113586L216.42098995923993,161.17555520799425L217.01945795774458,161.17555520799425L217.16907495737075,161.17555520799425L217.3186919569969,84.96319015830974L217.46830895662308,91.22930573605854L217.84235145568846,161.10509322737946L218.21639395475387,161.01652170374516L218.81486195325851,158.68741627964812L218.8896704530716,157.76665445691987L218.9644789528847,155.37948475988208L219.26371295213698,157.07582850936322L219.48813845157625,128.91258984847246L219.71256395101545,161.17555520799425L220.3110319495201,149.6958674320769L220.46064894914628,151.86747972217387L220.7598829483986,161.17555520799425L220.83469144821166,141.05047309870773L220.90949994802475,87.60622744424302L220.98430844783783,94.43264602218737L221.13392544746398,34.31204487501074L221.28354244709016,100.79530584004371L221.5079679465294,161.17555520799425L221.95681894540786,155.06202485502172L222.106435945034,155.46141129871586L222.6300954437256,161.17555520799425L222.92932944297792,125.93912510205143L223.0789464426041,66.68689163238628L223.3781804418564,161.17555520799425L223.45298894166947,143.92891382439691L223.60260594129562,161.17555520799425L223.82703144073486,144.15624379331283L223.97664844036103,124.61723718261499L224.20107393980027,134.72971772492573L224.35069093942644,149.6273985134242L224.57511643886565,161.17555520799425L224.64992493867874,146.30169322042363L224.72473343849182,156.53385495445048L225.47281843662262,8.50100676504775L225.5476269364357,130.8233312752705L225.69724393606185,161.17555520799425L225.7720524358749,161.17555520799425L225.84686093568803,126.40481459698161L225.9216694355011,139.8888417946704L226.14609493494035,161.17555520799425L226.2209034347534,112.79211235731192L226.37052043437956,161.17555520799425L226.59494593381882,108.96207803541493L226.744562933445,152.3276272583071L226.89417993307114,152.34475971828152L227.04379693269732,156.25512783992377L227.71707343101502,113.7038878277748L228.01630743026735,161.17555520799425L228.1659244298935,161.17555520799425L228.31554142951967,122.37263983510948L228.4651584291458,155.18799335353637L228.61477542877196,144.59007335159754L228.68958392858505,158.32710601122827L228.9140094280243,151.28004333669645L229.36286042690276,149.92326816336202L229.43766892671587,148.36938089589137L229.7369029259682,127.2624001513745L229.9613284254074,161.17555520799425L230.18575392484664,139.36366879610298L230.3353709244728,161.17555520799425L230.4101794242859,161.17555520799425L230.70941342353822,130.7617052183084L231.00864742279055,87.33015110681211L231.23307292222978,161.17555520799425L231.30788142204284,123.36122106229358L231.38268992185593,122.3224032392163L231.457498421669,122.85845396039448L231.68192392110825,135.98792138656833L231.98115792036057,114.56362718249163L232.43000891923907,161.17555520799425L232.50481741905213,161.17555520799425L232.72924291849137,147.54093350436645L233.10328541755678,161.17555520799425L233.327710916996,138.353605800675L233.4025194168091,139.74312567458261L233.55213641643525,161.17555520799425L233.70175341606142,161.17555520799425L233.85137041568754,161.17555520799425L233.92617891550063,161.17555520799425L234.15060441493986,149.2441331198809L234.22541291475295,149.43354148827189L234.37502991437913,161.17555520799425L234.59945541381836,142.72184558132403L234.67426391363145,161.17555520799425L234.8238809132576,161.17555520799425L235.27273191213607,141.13427636335686L235.49715741157533,161.17555520799425L235.72158291101454,145.3065081302794L235.79639141082765,119.9618980681862L236.09562541007998,156.93546695666583L236.54447640895842,152.96395247428788L237.51698690652847,161.17555520799425L237.81622090578077,87.5216425131578L237.96583790540694,161.17555520799425L238.33988040447235,107.26218410038027L238.5643059039116,161.17555520799425L238.71392290353774,148.26442577497141L239.01315690279006,161.17555520799425L239.38719940185547,29.657091907550388L239.6864334011078,-89.45131263940841L239.98566740036011,130.5434871931476L240.21009289979935,150.59079770966687L240.88336939811708,161.17555520799425L241.33222039699555,94.96813439341152L242.08030539512635,90.72750962508006L242.15511389493943,161.17555520799425L242.2299223947525,161.17555520799425L242.45434789419176,126.23981924596988L242.52915639400481,103.33052939279071L242.90319889307023,161.17555520799425L243.0528158926964,161.17555520799425L243.3520498919487,151.4137978046371L243.42685839176178,118.79759372736738L243.50166689157484,126.73760205277642L243.57647539138793,67.30483175387005L243.65128389120102,161.17555520799425L243.7260923910141,161.17555520799425L243.80090089082717,161.17555520799425L244.3993688893318,116.73531398395754L244.62379438877105,140.3451325473689L245.07264538764952,159.0046690522754L246.11996438503266,161.17555520799425L246.19477288484572,161.17555520799425L246.2695813846588,138.4600436509738L246.79324088335036,161.17555520799425L247.16728338241575,156.96243632321108L247.391708881855,158.27494652996103L247.54132588148119,157.31403070919112L247.61613438129424,151.59760282436116L247.69094288110733,157.07942605532693L247.7657513809204,148.52972748728314L248.06498538017271,126.33485076470112L248.66345337867736,155.90376901120965L248.73826187849045,156.92572925214156L248.96268737792968,136.5307634206913L249.11230437755586,130.8703212374291L249.18711287736892,157.67117815452187L249.3367298769951,161.17555520799425L250.23443187475206,150.1269728734593L250.3840488743782,155.41560449742929L250.60847437381744,161.17555520799425L250.7580913734436,151.5973591393811L251.13213387250903,153.5717135929788L251.35655937194824,138.12408079243858L251.58098487138747,153.80021840467364L252.2542613697052,157.84681644703852L252.3290698695183,139.19442770293833L252.5534953689575,158.09268885128236L252.77792086839676,161.17555520799425L252.9275378680229,126.95008223390631L253.002346367836,161.17555520799425L253.45119736671447,161.17555520799425L253.67562286615373,161.17555520799425L253.7504313659668,161.17555520799425L254.12447386503217,161.17555520799425L254.27409086465835,115.19003254528337L254.4237078642845,139.74060634678858L254.64813336372376,113.96193147667991L254.72294186353682,124.97666503023198L254.79775036334993,153.6624346993124L255.32140986204146,135.9704510479965L255.69545236110687,161.17555520799425L255.84506936073302,161.17555520799425L255.9198778605461,150.43467061743016L255.9946863603592,128.55392117329342L256.29392035961155,161.17555520799425L256.3687288594246,107.48845497688275L256.8175798583031,94.33536697813986L257.11681385755537,96.32032360287086L257.3412393569946,161.17555520799425L257.4160478568077,113.71036984824492L257.5656648564339,161.17555520799425L258.0893243551254,161.17555520799425L258.1641328549385,161.17555520799425L258.5381753540039,152.05557781517197L259.43587735176084,108.64538128630471L259.80991985082625,152.1308296115202L259.9595368504524,115.94497236256748L260.0343453502655,151.76298244784147L260.2587708497048,91.46999151638262L260.33357934951783,140.79275561277598L261.00685584783554,151.4753835598525L261.455706846714,161.17555520799425L261.75494084596636,161.17555520799425L261.8297493457794,111.97705732994218L262.1289833450317,161.17555520799425L262.2786003446579,-75.49360682844257L262.42821734428406,138.08200764337803L262.5778343439102,161.17555520799425L262.72745134353636,104.83819711753976L262.95187684297565,20.308691243776565L263.0266853427887,161.17555520799425L263.10149384260177,161.17555520799425L263.325919342041,94.46872264623813L263.40072784185406,150.71665584700307L263.4755363416672,150.76149388333758L263.55034484148024,150.34615064254163L263.7747703409195,161.17555520799425L263.8495788407326,161.17555520799425L263.92438734054565,-159.8592364276025L264.1488128399849,-3.2134925772988936L264.223621339798,75.40590272961231L264.3732383394241,116.31483367633155L264.44804683923724,161.17555520799425L264.74728083848953,-80.24876305971135L264.8968978381157,77.40828845391847L264.97170633792877,161.17555520799425L265.0465148377419,161.17555520799425L265.3457488369942,161.17555520799425L265.49536583662035,-128.7288626204921L265.6449828362465,39.563298737723855L265.8694083356857,161.17555520799425L266.54268483400347,141.26378555776958L266.7671103334427,150.2217672679599L266.9167273330689,161.17555520799425L267.066344332695,157.65932203085828L267.21596133232117,145.83447319636858L267.3655783319473,141.9557056274555L267.5900038313866,153.11044651181209L267.73962083101276,111.27578819227053L268.03885483026505,67.88447209448479L268.3380888295174,123.49446426040103L268.4877058291435,161.17555520799425L268.71213132858276,146.57958875995584L269.0113653278351,161.17555520799425L269.3105993270874,161.17555520799425L269.53502482652664,79.40013199108644" fill="none"></path></g></g></g></g></g></g><g transform="translate(30, 176)" clip-path="url(#clip_1)"><clipPath id="clip_1"><rect width="299" height="23"></rect></clipPath><g><g><line x1="0" y1="0" x2="0" y2="5" style="visibility: inherit;" fill="rgb(0, 0, 0)" stroke="rgb(204, 204, 204)" stroke-width="1px"></line><line x1="37.40424990653992" y1="0" x2="37.40424990653992" y2="5" style="visibility: inherit;" fill="rgb(0, 0, 0)" stroke="rgb(204, 204, 204)" stroke-width="1px"></line><line x1="74.80849981307983" y1="0" x2="74.80849981307983" y2="5" style="visibility: inherit;" fill="rgb(0, 0, 0)" stroke="rgb(204, 204, 204)" stroke-width="1px"></line><line x1="112.21274971961975" y1="0" x2="112.21274971961975" y2="5" style="visibility: inherit;" fill="rgb(0, 0, 0)" stroke="rgb(204, 204, 204)" stroke-width="1px"></line><line x1="149.61699962615967" y1="0" x2="149.61699962615967" y2="5" style="visibility: inherit;" fill="rgb(0, 0, 0)" stroke="rgb(204, 204, 204)" stroke-width="1px"></line><line x1="187.02124953269958" y1="0" x2="187.02124953269958" y2="5" style="visibility: inherit;" fill="rgb(0, 0, 0)" stroke="rgb(204, 204, 204)" stroke-width="1px"></line><line x1="224.4254994392395" y1="0" x2="224.4254994392395" y2="5" style="visibility: inherit;" fill="rgb(0, 0, 0)" stroke="rgb(204, 204, 204)" stroke-width="1px"></line><line x1="261.8297493457794" y1="0" x2="261.8297493457794" y2="5" style="visibility: inherit;" fill="rgb(0, 0, 0)" stroke="rgb(204, 204, 204)" stroke-width="1px"></line><line x1="299.23399925231934" y1="0" x2="299.23399925231934" y2="5" style="visibility: inherit;" fill="rgb(0, 0, 0)" stroke="rgb(204, 204, 204)" stroke-width="1px"></line></g><g transform="translate(0, 8)"><text style="text-anchor: middle; visibility: hidden; font-family: Roboto, sans-serif; font-size: 12px; font-weight: 200;" x="0" y="0" dx="0em" dy="0.95em" fill="rgb(33, 33, 33)" stroke="none" stroke-width="1px">-500</text><text style="text-anchor: middle; visibility: inherit; font-family: Roboto, sans-serif; font-size: 12px; font-weight: 200;" x="37.40424990653992" y="0" dx="0em" dy="0.95em" fill="rgb(33, 33, 33)" stroke="none" stroke-width="1px">0</text><text style="text-anchor: middle; visibility: inherit; font-family: Roboto, sans-serif; font-size: 12px; font-weight: 200;" x="74.80849981307983" y="0" dx="0em" dy="0.95em" fill="rgb(33, 33, 33)" stroke="none" stroke-width="1px">500</text><text style="text-anchor: middle; visibility: inherit; font-family: Roboto, sans-serif; font-size: 12px; font-weight: 200;" x="112.21274971961975" y="0" dx="0em" dy="0.95em" fill="rgb(33, 33, 33)" stroke="none" stroke-width="1px">1k</text><text style="text-anchor: middle; visibility: inherit; font-family: Roboto, sans-serif; font-size: 12px; font-weight: 200;" x="149.61699962615967" y="0" dx="0em" dy="0.95em" fill="rgb(33, 33, 33)" stroke="none" stroke-width="1px">1.5k</text><text style="text-anchor: middle; visibility: inherit; font-family: Roboto, sans-serif; font-size: 12px; font-weight: 200;" x="187.02124953269958" y="0" dx="0em" dy="0.95em" fill="rgb(33, 33, 33)" stroke="none" stroke-width="1px">2k</text><text style="text-anchor: middle; visibility: inherit; font-family: Roboto, sans-serif; font-size: 12px; font-weight: 200;" x="224.4254994392395" y="0" dx="0em" dy="0.95em" fill="rgb(33, 33, 33)" stroke="none" stroke-width="1px">2.5k</text><text style="text-anchor: middle; visibility: inherit; font-family: Roboto, sans-serif; font-size: 12px; font-weight: 200;" x="261.8297493457794" y="0" dx="0em" dy="0.95em" fill="rgb(33, 33, 33)" stroke="none" stroke-width="1px">3k</text><text style="text-anchor: middle; visibility: hidden; font-family: Roboto, sans-serif; font-size: 12px; font-weight: 200;" x="299.23399925231934" y="0" dx="0em" dy="0.95em" fill="rgb(33, 33, 33)" stroke="none" stroke-width="1px">3.5k</text></g><line x1="0" y1="0" x2="299.23399925231934" y2="0" fill="rgb(0, 0, 0)" stroke="rgb(204, 204, 204)" stroke-width="1px"></line></g></g></g></g></svg>