<svg viewBox="0 0 330 200" xmlns="http://www.w3.org/2000/svg"><g><g><g><g><g><line x1="30.766000747680664" y1="176.89999961853027" x2="25.766000747680664" y2="176.89999961853027" style="visibility: inherit;" fill="rgb(0, 0, 0)" stroke="rgb(204, 204, 204)" stroke-width="1px"></line><line x1="30.766000747680664" y1="159.20999965667724" x2="25.766000747680664" y2="159.20999965667724" style="visibility: inherit;" fill="rgb(0, 0, 0)" stroke="rgb(204, 204, 204)" stroke-width="1px"></line><line x1="30.766000747680664" y1="141.51999969482424" x2="25.766000747680664" y2="141.51999969482424" style="visibility: inherit;" fill="rgb(0, 0, 0)" stroke="rgb(204, 204, 204)" stroke-width="1px"></line><line x1="30.766000747680664" y1="123.82999973297119" x2="25.766000747680664" y2="123.82999973297119" style="visibility: inherit;" fill="rgb(0, 0, 0)" stroke="rgb(204, 204, 204)" stroke-width="1px"></line><line x1="30.766000747680664" y1="106.13999977111816" x2="25.766000747680664" y2="106.13999977111816" style="visibility: inherit;" fill="rgb(0, 0, 0)" stroke="rgb(204, 204, 204)" stroke-width="1px"></line><line x1="30.766000747680664" y1="88.44999980926514" x2="25.766000747680664" y2="88.44999980926514" style="visibility: inherit;" fill="rgb(0, 0, 0)" stroke="rgb(204, 204, 204)" stroke-width="1px"></line><line x1="30.766000747680664" y1="70.75999984741212" x2="25.766000747680664" y2="70.75999984741212" style="visibility: inherit;" fill="rgb(0, 0, 0)" stroke="rgb(204, 204, 204)" stroke-width="1px"></line><line x1="30.766000747680664" y1="53.06999988555909" x2="25.766000747680664" y2="53.06999988555909" style="visibility: inherit;" fill="rgb(0, 0, 0)" stroke="rgb(204, 204, 204)" stroke-width="1px"></line><line x1="30.766000747680664" y1="35.379999923706045" x2="25.766000747680664" y2="35.379999923706045" style="visibility: inherit;" fill="rgb(0, 0, 0)" stroke="rgb(204, 204, 204)" stroke-width="1px"></line><line x1="30.766000747680664" y1="17.689999961853022" x2="25.766000747680664" y2="17.689999961853022" style="visibility: inherit;" fill="rgb(0, 0, 0)" stroke="rgb(204, 204, 204)" stroke-width="1px"></line><line x1="30.766000747680664" y1="0" x2="25.766000747680664" y2="0" style="visibility: inherit;" fill="rgb(0, 0, 0)" stroke="rgb(204, 204, 204)" stroke-width="1px"></line></g><g transform="translate(20.766000747680664, 0)"><text style="text-anchor: end; visibility: hidden; font-family: Roboto, sans-serif; font-size: 12px; font-weight: 200;" x="0" y="176.89999961853027" dx="0em" dy="0.3em" fill="rgb(33, 33, 33)" stroke="none" stroke-width="1px">0</text><text style="text-anchor: end; visibility: inherit; font-family: Roboto, sans-serif; font-size: 12px; font-weight: 200;" x="0" y="159.20999965667724" dx="0em" dy="0.3em" fill="rgb(33, 33, 33)" stroke="none" stroke-width="1px">2</text><text style="text-anchor: end; visibility: hidden; font-family: Roboto, sans-serif; font-size: 12px; font-weight: 200;" x="0" y="141.51999969482424" dx="0em" dy="0.3em" fill="rgb(33, 33, 33)" stroke="none" stroke-width="1px">4</text><text style="text-anchor: end; visibility: inherit; font-family: Roboto, sans-serif; font-size: 12px; font-weight: 200;" x="0" y="123.82999973297119" dx="0em" dy="0.3em" fill="rgb(33, 33, 33)" stroke="none" stroke-width="1px">6</text><text style="text-anchor: end; visibility: hidden; font-family: Roboto, sans-serif; font-size: 12px; font-weight: 200;" x="0" y="106.13999977111816" dx="0em" dy="0.3em" fill="rgb(33, 33, 33)" stroke="none" stroke-width="1px">8</text><text style="text-anchor: end; visibility: inherit; font-family: Roboto, sans-serif; font-size: 12px; font-weight: 200;" x="0" y="88.44999980926514" dx="0em" dy="0.3em" fill="rgb(33, 33, 33)" stroke="none" stroke-width="1px">10</text><text style="text-anchor: end; visibility: hidden; font-family: Roboto, sans-serif; font-size: 12px; font-weight: 200;" x="0" y="70.75999984741212" dx="0em" dy="0.3em" fill="rgb(33, 33, 33)" stroke="none" stroke-width="1px">12</text><text style="text-anchor: end; visibility: inherit; font-family: Roboto, sans-serif; font-size: 12px; font-weight: 200;" x="0" y="53.06999988555909" dx="0em" dy="0.3em" fill="rgb(33, 33, 33)" stroke="none" stroke-width="1px">14</text><text style="text-anchor: end; visibility: hidden; font-family: Roboto, sans-serif; font-size: 12px; font-weight: 200;" x="0" y="35.379999923706045" dx="0em" dy="0.3em" fill="rgb(33, 33, 33)" stroke="none" stroke-width="1px">16</text><text style="text-anchor: end; visibility: inherit; font-family: Roboto, sans-serif; font-size: 12px; font-weight: 200;" x="0" y="17.689999961853022" dx="0em" dy="0.3em" fill="rgb(33, 33, 33)" stroke="none" stroke-width="1px">18</text><text style="text-anchor: end; visibility: hidden; font-family: Roboto, sans-serif; font-size: 12px; font-weight: 200;" x="0" y="0" dx="0em" dy="0.3em" fill="rgb(33, 33, 33)" stroke="none" stroke-width="1px">20</text></g><line x1="30.766000747680664" y1="0" x2="30.766000747680664" y2="176.89999961853027" fill="rgb(0, 0, 0)" stroke="rgb(204, 204, 204)" stroke-width="1px"></line></g></g><g transform="translate(30, 0)" clip-path="url(#clip_0)"><clipPath id="clip_0"><rect width="299" height="176"></rect></clipPath><g><g><g><line x1="0" y1="0" x2="0" y2="176.89999961853027" fill="rgb(0, 0, 0)" stroke="rgb(66, 66, 66)" stroke-width="1px" opacity="0.25"></line><line x1="37.40424990653992" y1="0" x2="37.40424990653992" y2="176.89999961853027" fill="rgb(0, 0, 0)" stroke="rgb(66, 66, 66)" stroke-width="1px" opacity="0.25"></line><line x1="74.80849981307983" y1="0" x2="74.80849981307983" y2="176.89999961853027" fill="rgb(0, 0, 0)" stroke="rgb(66, 66, 66)" stroke-width="1px" opacity="0.25"></line><line x1="112.21274971961975" y1="0" x2="112.21274971961975" y2="176.89999961853027" fill="rgb(0, 0, 0)" stroke="rgb(66, 66, 66)" stroke-width="1px" opacity="0.25"></line><line x1="149.61699962615967" y1="0" x2="149.61699962615967" y2="176.89999961853027" fill="rgb(0, 0, 0)" stroke="rgb(66, 66, 66)" stroke-width="1px" opacity="0.25"></line><line x1="187.02124953269958" y1="0" x2="187.02124953269958" y2="176.89999961853027" fill="rgb(0, 0, 0)" stroke="rgb(66, 66, 66)" stroke-width="1px" opacity="0.25"></line><line x1="224.4254994392395" y1="0" x2="224.4254994392395" y2="176.89999961853027" fill="rgb(0, 0, 0)" stroke="rgb(66, 66, 66)" stroke-width="1px" opacity="0.25"></line><line x1="261.8297493457794" y1="0" x2="261.8297493457794" y2="176.89999961853027" fill="rgb(0, 0, 0)" stroke="rgb(66, 66, 66)" stroke-width="1px" opacity="0.25"></line><line x1="299.23399925231934" y1="0" x2="299.23399925231934" y2="176.89999961853027" fill="rgb(0, 0, 0)" stroke="rgb(66, 66, 66)" stroke-width="1px" opacity="0.25"></line></g><g><line x1="0" y1="176.89999961853027" x2="299.23399925231934" y2="176.89999961853027" fill="rgb(0, 0, 0)" stroke="rgb(66, 66, 66)" stroke-width="1px" opacity="0.25"></line><line x1="0" y1="159.20999965667724" x2="299.23399925231934" y2="159.20999965667724" fill="rgb(0, 0, 0)" stroke="rgb(66, 66, 66)" stroke-width="1px" opacity="0.25"></line><line x1="0" y1="141.51999969482424" x2="299.23399925231934" y2="141.51999969482424" fill="rgb(0, 0, 0)" stroke="rgb(66, 66, 66)" stroke-width="1px" opacity="0.25"></line><line x1="0" y1="123.82999973297119" x2="299.23399925231934" y2="123.82999973297119" fill="rgb(0, 0, 0)" stroke="rgb(66, 66, 66)" stroke-width="1px" opacity="0.25"></line><line x1="0" y1="106.13999977111816" x2="299.23399925231934" y2="106.13999977111816" fill="rgb(0, 0, 0)" stroke="rgb(66, 66, 66)" stroke-width="1px" opacity="0.25"></line><line x1="0" y1="88.44999980926514" x2="299.23399925231934" y2="88.44999980926514" fill="rgb(0, 0, 0)" stroke="rgb(66, 66, 66)" stroke-width="1px" opacity="0.25"></line><line x1="0" y1="70.75999984741212" x2="299.23399925231934" y2="70.75999984741212" fill="rgb(0, 0, 0)" stroke="rgb(66, 66, 66)" stroke-width="1px" opacity="0.25"></line><line x1="0" y1="53.06999988555909" x2="299.23399925231934" y2="53.06999988555909" fill="rgb(0, 0, 0)" stroke="rgb(66, 66, 66)" stroke-width="1px" opacity="0.25"></line><line x1="0" y1="35.379999923706045" x2="299.23399925231934" y2="35.379999923706045" fill="rgb(0, 0, 0)" stroke="rgb(66, 66, 66)" stroke-width="1px" opacity="0.25"></line><line x1="0" y1="17.689999961853022" x2="299.23399925231934" y2="17.689999961853022" fill="rgb(0, 0, 0)" stroke="rgb(66, 66, 66)" stroke-width="1px" opacity="0.25"></line><line x1="0" y1="0" x2="299.23399925231934" y2="0" fill="rgb(0, 0, 0)" stroke="rgb(66, 66, 66)" stroke-width="1px" opacity="0.25"></line></g></g></g><g><g><line x1="0" y1="176.89999961853027" x2="299.23399925231934" y2="176.89999961853027" fill="rgb(0, 0, 0)" stroke="rgb(153, 153, 153)" stroke-width="1.5px"></line></g></g><g><g><line x1="37.40424990653992" y1="0" x2="37.40424990653992" y2="176.89999961853027" fill="rgb(0, 0, 0)" stroke="rgb(153, 153, 153)" stroke-width="1.5px"></line></g></g><g><g><g><g><g><path style="fill: none;" stroke="rgb(255, 112, 67)" stroke-width="2px" d="M37.853100905418394,112.5624805025842L38.30195190429688,124.0444491498415L38.52637740373611,129.34720178128273L38.601185903549194,131.94408817350651L38.825611402988436,134.30241109352554L39.27446240186691,135.7364222582491L40.172164399623874,136.87464755115232L40.47139839887619,137.75661905674775L40.62101539850235,138.54037971167807L40.77063239812851,139.27962688933036L40.84544089794159,139.92874725601067L40.995057897567754,140.49737529617263L41.44390889644623,140.92262620664584L41.51871739625931,141.31865045247127L41.59352589607239,141.68292983682596L41.66833439588547,141.94685931770326L42.341610894203185,142.18398835642395L42.56603639364242,142.11325707116734L42.79046189308166,142.20260181785846L42.86527039289474,142.27403130322304L42.940078892707824,142.34670027537558L43.014887392520905,142.38270212208894L43.3889298915863,142.4257411699674L43.98739789009094,142.57667928408355L44.06220638990402,142.7469734880719L44.5110573887825,142.994859635535L45.109525387287135,143.36220849403884L45.33395088672638,143.61878333567086L45.40875938653946,143.85486440779485L45.932418885231016,144.1023216763628L46.30646138429642,144.3515969404609L46.90492938280106,144.62585100097368L47.12935488224029,144.9299100373525L47.20416338205337,145.21846714546177L47.87743988037109,145.60530121779954L48.027056879997254,145.96583505684546L48.101865379810334,146.30245357006783L48.176673879623415,146.52383237499467L48.70033337831497,146.74713068398708L49.074375877380376,146.97107494423088L49.22399287700653,147.23651675510658L49.29880137681961,147.50190134144947L49.598035376071934,147.69264771314707L49.97207787513733,147.9979427538969L50.04688637495041,148.339696206811L50.27131187438965,148.5941463695977L50.72016287326813,148.91329304957287L50.79497137308121,149.23568795241857L50.94458837270737,149.5149019221687L51.16901387214661,149.75371489114255L51.31863087177277,149.9914778363329L51.39343937158585,150.2178988420544L51.543056371212,150.4412401674539L51.692673370838165,150.62312230287273L51.76748187065124,150.80104077196467L52.2911413693428,151.05239579508364L52.88960936784744,151.345719617044L52.96441786766052,151.63460590410722L53.0392263674736,151.918053030359L53.33846036672592,152.1940543498131L54.08654536485672,152.44168940059217L54.1613538646698,152.68359213836587L54.31097086429596,152.91326859237648L54.610204863548276,153.08638835663882L54.83463036298752,153.21068908895407L54.9094388628006,153.32202237214582L54.98424736261368,153.40054849968777L55.208672862052914,153.45956868631276L56.106374859809875,153.5719607087592L56.55522585868835,153.59208577717598L56.779651358127595,153.5970333260186L56.929268357753756,153.62468521927804L57.00407685756684,153.664744665968L57.15369385719299,153.72082156468946L57.452927856445314,153.76717504519775L57.752161855697636,153.83540966609425L57.90177885532379,153.894302482268L58.275821354389194,153.90701350074252L59.32314035177231,153.9204930689544L59.69718285083771,153.92581549108607L59.771991350650794,153.9301064904736L60.07122534990311,153.90670803547172L60.14603384971619,153.8907733196601L60.44526784896851,153.76414171762497L60.520076348781586,153.63129734040365L60.66969334840775,153.50374886437672L60.89411884784698,153.37730402827168L61.26816134691238,153.26272561741834L61.34296984672546,153.16238774331921L61.41777834653854,153.06591176201377L61.79182084560394,152.97079170957002L61.86662934541702,152.88322505055743L61.9414378452301,152.7986107238095L62.16586334466934,152.77511747999895L62.83913984298706,152.761239170681L62.98875684261322,152.73382324673693L63.4376078414917,152.68601681395802L63.886458840370175,152.7336765389255L64.41011833906174,152.77642283540132L64.63454383850097,152.8136368553445L64.9337778377533,152.76723051962574L65.23301183700562,152.72317130376712L65.38262883663178,152.66979386961572L65.68186283588409,152.5167318481755L65.75667133569718,152.4317915299659L65.83147983551025,152.33542010239154L65.98109683513641,152.24229631983604L66.35513933420181,152.1080863461032L66.72918183326722,151.93697125745285L66.80399033308029,151.7008761474119L68.00092633008957,151.3161475340959L68.52458582878113,150.8955350192866L68.97343682765961,150.4948798595984L69.04824532747269,150.13248065225028L69.19786232709885,149.79774869049353L69.64671332597733,149.41242284741014L70.31998982429504,149.08515527317243L70.4696068239212,148.78753730242482L70.54441532373428,148.5040016817769L70.76884082317352,148.23813312983566L71.217691822052,147.9725269309038L71.81615982055663,147.7345729069377L71.89096832036972,147.49763172191498L72.11539381980896,147.23840310475563L72.19020231962203,146.93264088418982L72.86347881793975,146.64650494634822L72.93828731775284,146.40245068789397L73.76118081569672,146.1309449607331L73.98560631513595,145.92883331550811L74.06041481494904,145.73714118032046L74.21003181457519,145.50148226543678L74.35964881420135,145.3536918852486L75.40696781158448,145.48672267573176L75.78101031064986,145.6514755130618L75.93062731027602,145.80748492475598L76.15505280971527,145.92855795275776L76.30466980934143,146.04735188137894L76.67871230840683,146.10690900959912L76.75352080821992,146.16975385132238L77.20237180709839,146.33316481460676L77.35198880672455,146.48846115075622L77.42679730653762,146.63721594716054L77.57641430616378,146.76521218180523L77.65122280597687,146.8585052938713L77.8756483054161,146.9590572444517L78.02526530504227,147.03192004158737L78.39930780410766,147.1187523747004L78.47411630392074,147.2018430524033L79.14739280223847,147.41229105575124L79.29700980186463,147.65926030638803L79.59624380111694,147.94639721858516L79.67105230093001,148.2813204308477L79.7458608007431,148.60092148053954L80.04509479999543,148.92280315573043L80.34432879924775,149.3354317452916L80.41913729906082,149.7398696050011L80.64356279850007,150.21307239586005L80.79317979812623,150.71268069412514L80.94279679775238,151.15979082964867L81.01760529756545,151.57865673243134L81.09241379737854,151.96911908581473L81.16722229719161,152.33371994861955L81.31683929681778,152.67629007681109L81.39164779663086,152.9526316315296L81.76569029569626,153.12931851617995L81.84049879550935,153.26217214760288L82.36415829420089,152.87615269175717L82.51377529382705,152.4045950935466L82.96262629270554,151.8921962333675L83.1122432923317,151.44798695554724L83.48628579139711,150.94371974591218L83.86032829046249,150.36784602180185L84.00994529008865,149.69419871838468L84.9076472878456,148.66629485844598L85.43130678653716,147.6255100260295L85.50611528635025,146.6706538847359L85.65573228597641,145.63349723527597L85.73054078578949,144.6430661559805L85.80534928560257,143.5623454881683L85.88015778541565,142.48882841527254L86.02977478504181,141.326544714079L86.25420028448104,140.16203075505473L86.55343428373337,138.92019054433726L86.62824278354644,137.73324504191757L86.92747678279876,136.53729065466055L87.15190228223801,135.26115810599146L87.45113628149034,133.87498102602132L87.67556178092956,132.4961252631162L87.75037028074264,131.15061203743832L87.8999872803688,129.72530404774173L87.97479578018188,128.32563391393052L88.12441277980804,126.96456124525699L88.19922127962113,125.68147951832907L88.2740297794342,124.46983651668316L88.49845527887345,123.33752867373705L88.57326377868652,122.23617366107345L88.64807227849961,121.19279296058232L88.79768927812577,120.09655368047606L88.94730627775192,119.13107415039059L89.022114777565,118.24599551726553L89.54577427625657,117.36619468500353L89.7701997756958,116.59315925912136L90.06943377494812,115.90406891918886L90.29385927438736,115.24522053640628L90.44347627401352,114.65568513446543L90.59309327363968,114.04268034637802L90.892327272892,113.48658975585829L91.19156127214433,113.07174780217674L91.41598677158356,112.48967859650331L91.49079527139665,111.9344061325731L91.56560377120971,111.45612914316476L91.6404122710228,110.97682092943332L92.08926326990128,110.43163777565636L92.53811426877976,109.83757718306597L92.68773126840593,109.21553104314557L92.762539768219,108.61185832705833L93.06177376747131,107.96994805108194L93.28619926691056,107.59395272862126L93.36100776672363,107.27850497478612L93.58543326616287,106.99230846197794L93.66024176597595,106.70462581842057L93.73505026578903,106.3475882082008L93.88466726541519,105.85037389243247L94.03428426504135,105.28337059876316L94.48313526391982,104.71042961158342L94.70756076335907,104.07365618644033L94.78236926317214,103.41310172466522L95.00679476261139,102.76376700383796L95.08160326242447,102.16774047001975L95.15641176223755,101.59811935672376L95.30602876186371,101.08253686496447L95.38083726167679,100.69889070775567L95.82968826055526,100.35619945800585L96.12892225980758,100.06948096421156L96.20373075962067,99.84601860308429L96.35334775924683,99.54958404245384L96.50296475887299,99.11631741109089L96.65258175849915,98.59411571474709L96.72739025831223,98.08003289832745L96.80219875812531,97.64558281180682L96.87700725793837,97.26320430716301L96.95181575775146,96.99921152961379L97.1762412571907,97.01645173584048L97.32585825681686,97.0943007103438L97.47547525644302,96.96617160595902L97.69990075588227,96.82127954069249L97.84951775550843,96.71681993625211L97.9243262553215,96.6247775426305L97.99913475513459,96.4968085461416L98.44798575401306,96.27011995505423L98.52279425382613,96.06641918991797L98.6724112534523,95.65164020384364L98.89683675289155,95.43023905829719L99.19607075214387,95.5031017033166L99.4204962515831,95.63976958737751L99.64492175102234,95.42611495196209L99.71973025083541,95.2659497525243L99.86934725046157,95.1256109813292L100.01896425008773,95.05904799595615L100.1685812497139,95.11356684168511L100.5426237487793,95.08717199928469L100.76704924821854,95.00807319694607L100.91666624784469,94.87369401018684L102.0387937450409,95.0447836005088L102.33802774429321,95.53265977024269L102.48764474391938,95.99420100667636L102.56245324373245,96.4521233104851L102.86168724298477,96.90500769852315L103.01130424261093,97.1852156994037L103.31053824186326,97.44659733147924L103.46015524148942,97.67012351835255L103.60977224111556,97.71353700030994L103.8341977405548,97.81255922613879L103.98381474018096,98.02525345457357L104.05862323999405,98.24055411867322L104.20824023962021,98.46200110870164L104.50747423887253,98.71699048286311L104.80670823812486,98.91987715674597L105.3303677368164,99.38543871376517L105.40517623662949,99.8276445712278L105.47998473644256,100.27401952870389L105.55479323625565,100.75330259144043L105.70441023588181,101.21656224014484L105.92883573532104,101.64450483079719L106.00364423513413,102.03196464323547L106.0784527349472,102.44580442474287L106.30287823438644,102.6577042333233L106.37768673419951,102.8451293976818L106.4524952340126,103.01417411728166L106.52730373382568,103.17381284298416L107.12577173233032,103.40551083922499L107.20058023214341,103.62932731969325L107.42500573158264,103.70904521322169L107.9486652302742,103.71667309506304L108.17309072971344,103.70912869322613L108.77155872821808,103.57318109719552L108.84636722803117,103.42168250387012L108.99598422765732,102.71119845981836L109.07079272747039,102.01929322731529L109.14560122728348,101.33913268794905L109.37002672672271,100.61036337239939L109.4448352265358,99.9224590952753L109.59445222616196,99.35823497607772L109.74406922578812,98.74923377756028L110.11811172485352,97.71262574762179L110.19292022466661,96.70190387907667L110.49215422391892,95.83848349652234L110.56696272373199,94.98969414367627L110.64177122354508,94.10073352066176L110.71657972335815,92.89412037214176L110.9410052227974,91.2546728231707L111.01581372261047,89.7555527263458L111.09062222242356,88.32242030599694L111.3150477218628,87.00241808019119L111.38985622167588,85.76948706686863L111.98832422018052,84.28727624183772L112.28755821943282,82.77862951653998L112.43717521905899,81.2344463610304L112.58679221868515,79.70151642119326L112.66160071849824,78.08689731081748L112.88602621793746,76.45127374125343L113.1104517173767,74.737471981989L113.18526021718978,73.12044549228835L113.26006871700287,71.59590388238739L113.33487721681594,70.15203243731133L113.55930271625519,68.78482700838269L114.15777071475983,67.98562506358697L114.30738771438598,67.38065973365539L114.6066217136383,66.86808718836566L114.68143021345138,66.3865373993221L114.90585571289063,66.16464608276337L115.05547271251679,65.94982347242438L115.20508971214295,65.40856785504573L115.57913221120833,64.56585768319779L116.1027917098999,63.72705373032027L116.17760020971298,62.91985630617466L116.40202570915223,62.492917391151L116.55164270877839,62.45725958578527L117.00049370765686,62.497552965093355L117.07530220746993,62.42166190469588L117.2249192070961,62.34032327159176L117.37453620672225,62.5435595219373L117.67377020597458,62.81056169930725L117.9730042052269,62.812904344777344L118.12262120485306,62.806274008825625L118.49666370391846,63.703916942577266L118.57147220373153,64.5812885974021L118.64628070354462,65.42253019536696L119.16994020223618,66.3358730278313L119.24474870204926,67.14913788647083L119.69359970092773,67.42172977169186L119.99283370018006,67.8922880198459L120.06764219999313,68.34969542239133L120.14245069980622,68.58967937412807L120.81572719812394,68.43406735661812L120.96534419775008,68.27636790017104L121.18976969718933,68.0061951531511L121.6386206960678,67.55620800135596L121.71342919588089,67.14970316942174L122.01266319513321,66.50404375853873L122.23708869457244,65.57898460278558L122.31189719438552,64.6487631030581L122.3867056941986,63.644655931883705L123.43402469158173,63.258714920008536L123.65845019102096,62.73792220189558L123.8828756904602,62.261745125936685L123.95768419027328,61.81790085474264L124.03249269008636,61.404720903537104L124.2569181895256,60.659342687246436L124.33172668933868,59.60349736535987L124.40653518915177,58.76229960249511L125.7530881857872,57.76783349475678L125.90270518541337,56.86508213377925L125.97751368522644,56.021139154751786L126.1271306848526,55.25113882618475L126.20193918466569,54.5219485151393L126.65079018354416,54.02570784250098L126.72559868335723,53.607438728540195L126.8752156829834,53.376893496245465L127.02483268260956,53.24023668846944L127.17444968223572,53.32673786196335L127.32406668186188,53.23372606960026L127.54849218130113,52.95831740289044L127.69810918092728,52.83510047384581L127.84772618055344,52.627711054561836L127.9973431801796,52.43984601844498L128.14696017980577,52.503908582207806L128.29657717943192,52.97871746989425L129.0446621775627,53.09115045079064L129.34389617681504,53.18232670355511L129.64313017606736,53.25425937104865L129.71793867588042,53.639184661292994L129.7927471756935,54.09208356734045L129.94236417531968,54.77337432084703L130.16678967475892,55.525247258231886L130.39121517419815,56.02052018908309L130.54083217382433,56.437757508050744L130.76525767326356,56.407952747545394L131.21410867214203,56.0110340601245L131.36372567176818,55.546131840458386L131.51334267139435,54.97088836806029L131.58815117120741,54.50983961669057L131.81257667064668,54.807265513700855L131.88738517045974,54.9880893672472L131.96219367027282,55.1867732859086L132.18661916971206,55.529711360844004L132.7850871682167,56.02653104926436L133.15912966728212,56.455526446218244L133.30874666690826,56.916280914082236L133.75759766578673,57.13530179549137L134.05683166503906,57.36827435408567L134.13164016485214,57.56999464059242L134.20644866466523,57.73814458901499L134.2812571644783,57.67551157716017L134.7301081633568,57.585049084225815L134.95453366279602,57.103234853557176L135.47819316148758,56.57481472071109L135.62781016111373,56.103663257760466L135.852235660553,55.202092434050584L135.92704416036605,54.25257682986031L136.15146965980531,53.487402296928565L136.60032065868378,53.00824705221376L136.74993765830993,52.263173363945626L136.97436315774917,51.84364338929486L137.19878865718843,51.16035360231511L137.2735971570015,50.368081147947144L137.34840565681458,49.59384834826633L137.42321415662767,49.00844795594425L137.49802265644075,48.51880389691375L137.94687365531922,48.26204409578559L138.3957246541977,47.98983044783348L138.8445756530762,48.16698024659497L139.29342665195466,48.17796277785028L139.66746915102004,48.337478813940294L139.96670315027237,47.89061984764096L140.49036264896392,47.2875499693426L140.63997964859007,46.54856510389218L140.86440514802933,46.053549279042144L141.01402214765548,45.66893659012053L141.08883064746857,45.30470837371337L141.3132561469078,44.99523452676431L141.3880646467209,44.67404533255507L141.53768164634704,44.269977302658695L141.61249014616013,43.888184143454495L141.83691564559936,43.37934073996769L143.1086601424217,43.306203962914516L143.1834686422348,43.37537810734459L143.2582771420479,43.471799894944326L143.63231964111327,43.693467924550816L143.85674514055253,43.43573676164538L144.15597913980486,42.951524000717995L144.23078763961792,42.4630227340918L144.305596139431,41.927700860360495L144.60483013868333,40.95993637904991L144.67963863849639,40.45755766555883L144.75444713830947,40.1270020499783L144.90406413793565,39.31789005100528L145.0536811375618,37.99297504193866L145.20329813718797,36.63927906075699L145.35291513681412,35.16349091886148L145.95138313531876,34.06913641117497L146.32542563438415,32.909071764642064L146.40023413419723,31.42134985347345L147.07351063251494,29.338081956689802L147.14831913232803,27.365227258437937L147.9712126302719,25.781742241123773L148.56968062877655,24.412870698159278L148.64448912858964,23.11654934697319L148.86891462802888,21.894753855540262L149.01853162765502,20.592678337754244L149.0933401274681,19.294404346933657L149.69180812597273,18.725096790208113L149.76661662578582,18.33833589904498L149.8414251255989,18.064381297418684L149.916233625412,17.833662375165378L150.14065912485123,17.49789572790174L150.29027612447737,17.572581148274885L150.36508462429046,17.110545098622154L150.43989312410355,16.329782692132184L151.0383611226082,14.927082008338537L151.41240362167358,14.39067092960029L151.48721212148666,13.97668215336845L151.7116376209259,13.57063618237733L152.23529711961748,13.008072884932314L152.3849141192436,12.887304165768454L153.13299911737442,13.155684698304565L153.50704161643984,13.29043271934837L153.5818501162529,13.40206892455583L153.73146711587907,13.6387990684306L153.80627561569213,13.967009923131982L154.2551266145706,15.104749794230615L154.77878611326219,16.802834581896764L154.85359461307524,19.04455199594836L155.52687111139298,21.216083314222786L155.8261051106453,23.00272272355947L155.97572211027145,24.622322089354224L156.27495610952377,25.847144247082547L156.94823260784148,27.561358637469862L157.09784960746765,29.14870697936807L157.32227510690691,30.65565217270458L157.47189210653306,32.082729270793976L157.54670060634612,33.63245229430584L157.92074310541153,35.77852323621766L158.14516860485077,37.620844850944614L158.51921110391618,40.015362551232855L158.66882810354232,42.356635137072594L158.96806210279465,44.58666096908939L159.1176791024208,46.107612080311576L159.19248760223388,47.64506493996503L159.26729610204697,49.11657870104316L159.5665301012993,50.66490228410131L159.94057260036467,52.246868653308084L160.16499809980394,54.10883682339713L160.31461509943006,55.942121280129086L160.53904059886932,57.97354005114037L160.76346609830856,60.160569862849115L161.06270009756088,62.233651512267095L161.58635959625246,64.18844422221576L161.66116809606552,66.03701846362478L161.73597659587858,67.78578573763204L162.25963609457017,68.41120935766484L162.40925309419632,68.5631412183136L162.5588700938225,68.74099608629749L162.78329559326173,69.00420489580306L162.85810409307481,68.87508879715378L163.30695509195326,68.47963839644845L163.38176359176637,68.11006148785098L163.98023159027102,67.81520728990151L164.20465708971022,66.80777106962002L164.27946558952334,65.64220087915947L164.3542740893364,64.51680133737828L164.42908258914946,63.19166078213921L164.57869958877563,61.53216399038112L164.80312508821487,59.82374701849203L165.32678458690643,58.41512016446458L165.40159308671952,57.081150533700644L165.77563558578493,55.67471395696404L165.92525258541107,54.533026372617144L166.00006108522413,53.58233805331497L166.07486958503725,52.7927405871556L166.74814608335495,51.534598149087465L167.04738008260728,50.09372952772535L167.19699708223342,48.179650459180436L167.2718055820465,46.59789791287813L167.42142258167266,45.05454717967883L167.79546508073807,43.58157323075825L167.87027358055116,42.20144876454006L168.0198905801773,40.71058726815632L168.0946990799904,39.31578724792343L168.16950757980348,38.01167042781238L168.3939330792427,36.16345426073088L168.54355007886886,33.46914553411348L168.693167078495,30.886710567545876L169.36644357681274,27.560992521018232L169.59086907625198,24.419377319147703L170.26414557456968,22.598224101084135L170.71299657344818,21.862367406452258L170.78780507326127,21.04204339399023L171.23665607213974,20.568270355043154L171.31146457195283,20.348456140808015L171.38627307176588,20.139374695953347L171.53589007139206,19.9389711289604L171.98474107027053,21.47269100913123L172.43359206914903,23.181895575776508L172.5084005689621,24.80051230038958L173.10686856746673,26.45729825973284L173.18167706727982,28.124013063124117L173.40610256671906,29.486191582182865L173.63052806615832,30.614047140395797L173.9297620654106,31.176690255827346L174.07937906503676,31.89393518314512L174.37861306428908,33.214235123313024L174.82746406316758,34.026690722896035L175.1266980624199,34.44319556382169L175.20150656223296,34.83762564817833L175.42593206167223,34.878893418371874L175.7999745607376,33.9235838641782L176.09920855998993,33.63210358379171L176.24882555961608,32.896663567985584L176.39844255924226,32.200201873017186L176.47325105905531,31.75060839882935L176.5480595588684,31.333209813319996L177.07171905755996,31.300238327160947L177.22133605718614,31.15940840414903L177.29614455699922,30.77176705583714L177.74499555587767,29.77282919291343L177.81980405569075,28.552885047567433L177.89461255550384,27.418680784734764L178.04422955513,26.346320395954706L178.19384655475616,24.78523866104038L179.09154855251313,23.373834675813207L179.76482505083084,21.869622075488326L180.06405905008316,20.38223739843931L180.43810154914854,17.886824622777485L180.51291004896163,15.511471809226407L180.88695254802704,13.322343656062435L180.96176104784013,11.23406311744232L181.0365695476532,8.922336970817566L181.3358035469055,7.549141778295163L181.4106120467186,6.478366989498416L181.85946304559707,5.877321632548142L182.1586970448494,6.387062858315266L182.23350554466248,6.872411195393298L182.30831404447554,7.288931541737909L182.4579310441017,7.65589502664539L182.5327395439148,8.51738946567616L182.90678204298018,9.543494292271406L183.13120754241942,10.602539608917947L183.2808245420456,11.743351031812312L183.50525004148483,13.23879379118782L183.72967554092406,14.89587676752137L183.95410104036333,16.37918503500478L184.10371803998947,17.550302705511214L184.55256903886794,18.65171476732681L184.62737753868103,19.30256050547862L184.7769945383072,20.338548868588035L184.92661153793335,21.24291204888776L185.59988803625106,23.085041318856213L185.67469653606418,24.857938192844095L185.74950503587723,26.548303960864995L185.8243135356903,27.885008773268044L186.87163253307344,27.985829925630874L187.17086653232573,28.01359102876325L187.47010053157805,27.74893952975191L187.54490903139114,27.498314560188152L187.76933453083038,28.301291505350825L187.84414303064347,29.077249869383063L188.0685685300827,29.977164613279978L188.21818552970888,30.652822779143374L188.367802529335,31.39493165708825L188.74184502840043,31.29804947487323L188.96627052783964,31.25410526410724L189.11588752746582,30.703503829632652L189.1906960272789,30.103718578185568L189.34031302690508,29.491681255357957L189.56473852634429,28.40619740302601L189.78916402578352,27.560821488423045L189.9387810254097,26.56428529901859L190.16320652484893,25.81896545941845L190.38763202428817,25.19335160881053L190.46244052410125,24.810712452085944L190.6868660235405,24.878534723561604L190.91129152297975,24.66555687476149L191.50975952148437,25.21209094361889L191.58456802129746,26.07912388205478L191.73418502092363,26.757604514981477L192.10822751998901,27.715300717619247L192.4822700190544,28.867727307001395L192.55707851886748,30.041655492194145L192.63188701868057,30.92548542674249L192.78150401830672,31.660663765851293L192.8563125181198,32.35687765298737L193.00592951774598,33.163755562251254L193.15554651737213,33.68914748131874L193.37997201681137,34.64263122841477L193.45478051662445,35.545580336914746L193.75401451587675,37.03257097933141L194.1280570149422,38.51637538841478L194.27767401456833,39.9215381638167L194.72652501344683,41.70885294984195L194.8013335132599,43.40144005220785L194.87614201307298,45.00432003814838L194.95095051288604,46.52224738483405L195.02575901269915,47.85880653311814L195.25018451213836,49.14254087193137L195.39980151176454,50.387826947563056L195.62422701120377,51.61261144033755L195.69903551101686,52.80663478995705L195.9234610104561,53.65064367973507L196.07307801008224,54.931259666914144L196.22269500970842,56.618926699400745L196.2975035095215,58.217147379165546L196.37231200933456,59.62254740977541L196.6715460085869,61.18033762745293L196.9707800078392,62.901673779758035L197.04558850765227,64.50018659361913L197.12039700746536,65.98357490742157L197.41963100671768,67.52408517397016L197.49443950653077,68.98294839639169L197.64405650615691,70.33285687417279L197.71886500596997,71.52740653638267L197.86848200559615,72.48474760230422L197.94329050540924,73.37361752518177L198.0180990052223,74.18572777823063L198.16771600484847,75.09515191227665L198.24252450466156,75.96921815458144L198.39214150428774,76.54345511456086L198.61656700372694,76.59071852198115L198.76618400335312,76.76663560592975L198.8409925031662,77.04302009628876L199.28984350204468,77.35509251294773L199.36465200185776,77.53069054896913L199.43946050167082,77.57200352294254L199.73869450092315,77.84642740433148L199.88831150054932,77.92151296224904L200.03792850017547,78.09975083572303L200.3371624994278,77.90814342644676L200.86082199811935,78.17099788296008L201.0852474975586,78.41521700153626L201.23486449718476,78.72210738911016L201.38448149681093,78.90492745128718L201.459289996624,79.18094409347168L201.75852399587632,79.2638599874691L201.90814099550246,79.36514649958188L201.98294949531555,79.4610648265527L202.05775799512864,79.55189948219405L202.28218349456787,79.58017344115937L202.5814174938202,79.332556293611L202.65622599363329,79.08811648126978L202.88065149307252,78.79165061415736L203.10507699251173,78.531519800552L203.85316199064255,78.74418577256972L203.92797049045564,79.20032617505069L204.15239598989487,79.76280644216263L204.22720448970796,80.29547525511762L204.37682148933413,80.8643154795431L204.60124698877334,81.60912081879485L204.75086398839952,82.31561385242124L204.82567248821258,82.90320558556976L204.97528948783875,82.76751065481754L205.05009798765184,82.62660901263152L205.1249064874649,82.44795778423634L205.19971498727799,82.47906073643638L205.34933198690416,82.68241224929282L205.4989489865303,82.78550319370432L205.5737574863434,82.84500568202341L205.8729914855957,83.51657270715312L205.94779998540878,84.16405689817452L206.09741698503493,85.14543383128513L206.3218424844742,86.12815269580713L206.69588498353957,86.85578183200857L207.59358698129654,87.79757070851028L207.89282098054886,89.13581757340381L208.1172464799881,90.3629778874459L208.49128897905348,91.52091392283171L208.64090597867965,92.4783226608818L208.8653314781189,93.4755544732918L209.3141824769974,94.54192830312864L209.38899097681045,95.52876567180991L209.53860797643662,96.3380992067737L209.76303347587583,97.14234416432092L209.9874589753151,98.27514028799595L210.06226747512815,99.30389709294587L210.13707597494127,100.26361728242247L210.81035247325897,101.14663891221069L210.88516097307206,101.91696924698044L210.95996947288512,102.6464720740074L211.03477797269824,103.39909071348251L211.18439497232436,104.16828908050427L211.33401197195053,104.72917575626403L211.55843747138977,105.43141704325731L211.93247997045518,105.94854378867723L212.08209697008132,106.42827486563316L212.1569054698944,106.8794594358464L212.2317139697075,107.36928634946923L212.3065224695206,107.9230985376028L212.9049904680252,108.8703459479428L213.57826696634294,109.43281434775817L213.95230946540832,109.6912261976029L214.55077746391297,109.40445948002576L214.62558596372605,108.96313736249124L214.8500114631653,108.29892974457793L215.14924546241758,107.5394473781815L215.37367096185685,106.44561733287945L215.67290496110917,105.28965987511653L215.8973304605484,104.06905229443258L216.12175595998764,102.61216746475121L216.19656445980073,101.18086115238921L216.2713729596138,99.77993427229609L216.42098995923993,98.4532565168479L217.01945795774458,97.07714546146521L217.16907495737075,95.80490809479801L217.3186919569969,94.34611091513757L217.46830895662308,92.87432265394996L217.84235145568846,91.20350888145735L218.21639395475387,89.82118921480453L218.81486195325851,88.73576674049038L218.8896704530716,87.70380646604993L218.9644789528847,86.71962841157485L219.26371295213698,86.03460938175978L219.48813845157625,85.33464133105724L219.71256395101545,84.62796739641968L220.3110319495201,84.34219132804105L220.46064894914628,84.04385791530348L220.7598829483986,83.85793509645809L220.83469144821166,83.6578671182452L220.90949994802475,83.38067097080608L220.98430844783783,83.4183372061257L221.13392544746398,83.62385907490109L221.28354244709016,83.80433589326631L221.5079679465294,84.32489233690792L221.95681894540786,85.43604286118789L222.106435945034,86.65941910758457L222.6300954437256,88.18609406268733L222.92932944297792,90.10685583353037L223.0789464426041,91.83444565258746L223.3781804418564,93.55883244354355L223.45298894166947,95.3808847289566L223.60260594129562,97.32674023649521L223.82703144073486,99.2795941740292L223.97664844036103,101.05513969091272L224.20107393980027,102.95875497355408L224.35069093942644,104.737236372341L224.57511643886565,106.56725413095634L224.64992493867874,108.28254374053047L224.72473343849182,110.12141515290632L225.47281843662262,112.0653859466172L225.5476269364357,113.87013131039909L225.69724393606185,115.57952481737064L225.7720524358749,117.1989080278722L225.84686093568803,118.69255549000695L225.9216694355011,120.0827419263156L226.14609493494035,121.40457954641124L226.2209034347534,122.60236097378109L226.37052043437956,123.74369214496384L226.59494593381882,124.66154588786493L226.744562933445,125.45155390717453L226.89417993307114,126.18849288978194L227.04379693269732,126.91090138617169L227.71707343101502,127.60020151750564L228.01630743026735,128.1992968616493L228.1659244298935,128.7666401525533L228.31554142951967,129.10673190755284L228.4651584291458,129.44934851350283L228.61477542877196,129.89054489123419L228.68958392858505,130.32681440153584L228.9140094280243,130.79234282208887L229.36286042690276,131.34684454095094L229.43766892671587,131.8639766069668L229.7369029259682,132.41262482285208L229.9613284254074,132.92622308140133L230.18575392484664,133.52056537045516L230.3353709244728,134.08340751818912L230.4101794242859,134.65843852640737L230.70941342353822,135.32934319790894L231.00864742279055,135.90313142300485L231.23307292222978,136.44650887217068L231.30788142204284,136.93628933686693L231.38268992185593,137.38399026892424L231.457498421669,137.80586574282617L231.68192392110825,138.1837144321122L231.98115792036057,138.51019452962558L232.43000891923907,138.65809378284294L232.50481741905213,138.7981543756398L232.72924291849137,138.92375155032707L233.10328541755678,139.32050696861847L233.327710916996,139.71048330783955L233.4025194168091,140.07961721508102L233.55213641643525,140.4210473660434L233.70175341606142,140.80207900142833L233.85137041568754,141.13622721723232L233.92617891550063,141.45266557759868L234.15060441493986,141.942531617324L234.22541291475295,142.40298361387013L234.37502991437913,142.8630113876654L234.59945541381836,143.31811823347996L234.67426391363145,143.74910441646637L234.8238809132576,144.1572483317545L235.27273191213607,144.5398121130711L235.49715741157533,144.98849885217103L235.72158291101454,145.49465503591034L235.79639141082765,145.97111006976488L236.09562541007998,146.58440796194824L236.54447640895842,147.1419054589134L237.51698690652847,147.43130904297254L237.81622090578077,147.65025452643766L237.96583790540694,147.76805439507962L238.33988040447235,147.69430836106596L238.5643059039116,147.7183986690638L238.71392290353774,147.42531781472618L239.01315690279006,147.17744138062594L239.38719940185547,146.57376427213168L239.6864334011078,145.8498021225897L239.98566740036011,144.84678326466025L240.21009289979935,143.70387386914322L240.88336939811708,142.3041186752986L241.33222039699555,140.6692003152247L242.08030539512635,138.71721080755398L242.15511389493943,136.8686767437898L242.2299223947525,135.11811498540513L242.45434789419176,133.19741263095167L242.52915639400481,131.30952755835784L242.90319889307023,129.43900931664666L243.0528158926964,127.69330724579045L243.3520498919487,125.88700249796824L243.42685839176178,124.14058418415313L243.50166689157484,122.45543216016499L243.57647539138793,120.75270857204421L243.65128389120102,119.15396058720184L243.7260923910141,117.67759028326522L243.80090089082717,116.27946760543723L244.3993688893318,114.42268988695034L244.62379438877105,112.60668043571461L245.07264538764952,111.0309134509242L246.11996438503266,110.34050354590637L246.19477288484572,109.70208150098938L246.2695813846588,109.08360273265173L246.79324088335036,108.82729828095736L247.16728338241575,109.04851361528061L247.391708881855,109.57752955385774L247.54132588148119,110.11226196840828L247.61613438129424,110.84815178521542L247.69094288110733,111.55277707483609L247.7657513809204,112.32561271171227L248.06498538017271,113.05915808314536L248.66345337867736,114.02485305413842L248.73826187849045,114.99386090094531L248.96268737792968,116.09309702812939L249.11230437755586,117.21559943523918L249.18711287736892,118.27443024464691L249.3367298769951,119.2658234775255L250.23443187475206,120.79323951327632L250.3840488743782,122.22758505050787L250.60847437381744,123.62008673914467L250.7580913734436,125.11355564432648L251.13213387250903,126.6739814192871L251.35655937194824,128.191583559883L251.58098487138747,129.97525580003995L252.2542613697052,131.83976765373592L252.3290698695183,133.57941502332312L252.5534953689575,135.16965792204164L252.77792086839676,136.65501246140295L252.9275378680229,138.02840547678082L253.002346367836,139.33520977788186L253.45119736671447,140.57775586491545L253.67562286615373,141.70610535576506L253.7504313659668,142.80174057783742L254.12447386503217,143.76878430192536L254.27409086465835,144.64379722570297L254.4237078642845,145.41821067858123L254.64813336372376,146.11100447505459L254.72294186353682,146.72762877758583L254.79775036334993,147.31393262401696L255.32140986204146,147.86871831608423L255.69545236110687,148.39579374909746L255.84506936073302,148.91374759695242L255.9198778605461,149.41539407199485L255.9946863603592,149.861635490355L256.29392035961155,150.29134142769328L256.3687288594246,150.66148437766995L256.8175798583031,150.9228025423549L257.11681385755537,151.13642185689937L257.3412393569946,151.39034063787457L257.4160478568077,151.57730084682012L257.5656648564339,151.7631025190664L258.0893243551254,151.81137111497821L258.1641328549385,151.8570814753067L258.5381753540039,151.459491526637L259.43587735176084,150.2709136657462L259.80991985082625,148.88671443497856L259.9595368504524,147.54138130948925L260.0343453502655,146.25980276346908L260.2587708497048,144.81353359471245L260.33357934951783,143.41961004020274L261.00685584783554,141.88179840144576L261.455706846714,140.50374202307992L261.75494084596636,139.24497966314283L261.8297493457794,138.02292493686372L262.1289833450317,136.66149859991665L262.2786003446579,135.14212654358002L262.42821734428406,133.69740427102928L262.5778343439102,132.34169083429254L262.72745134353636,130.9906479280627L262.95187684297565,129.4866385438134L263.0266853427887,128.08043495459594L263.10149384260177,126.75965476090064L263.325919342041,125.20564161912816L263.40072784185406,123.73432736916614L263.4755363416672,122.36747530714416L263.55034484148024,121.08766005210109L263.7747703409195,119.45496146330586L263.8495788407326,117.97281785615604L263.92438734054565,116.18639396057335L264.1488128399849,114.01502591656407L264.223621339798,111.86227199978852L264.3732383394241,109.77212787686803L264.44804683923724,107.79276139246232L264.74728083848953,105.61381837186693L264.8968978381157,103.48827854510665L264.97170633792877,101.47539232916468L265.0465148377419,99.56918908266763L265.3457488369942,97.7863233120862L265.49536583662035,95.84798241249898L265.6449828362465,93.50857419912317L265.8694083356857,91.2353580894894L266.54268483400347,89.34394632233914L266.7671103334427,87.35428869223456L266.9167273330689,85.6777858907452L267.066344332695,84.12010963783285L267.21596133232117,82.89015662269539L267.3655783319473,81.74723084665555L267.5900038313866,80.64809361946716L267.73962083101276,79.77360364247996L268.03885483026505,78.93342745210333L268.3380888295174,77.92519295829686L268.4877058291435,77.04112018989386L268.71213132858276,76.22619633468004L269.0113653278351,75.3390925735608L269.3105993270874,74.26890109058978L269.53502482652664,73.47576508987515" fill="none"></path></g></g></g></g><g opacity="0.2"><g><g><g><path style="fill: none;" stroke="rgb(255, 112, 67)" stroke-width="2px" d="M37.853100905418394,112.5624805025842L38.30195190429688,134.9178734587941L38.52637740373611,139.12446480790777L38.601185903549194,138.93772947629827L38.825611402988436,142.55030002491029L39.27446240186691,141.84386687447326L40.172164399623874,142.54331352966892L40.47139839887619,142.75149970027482L40.62101539850235,143.4860327749772L40.77063239812851,144.39722738480006L40.84544089794159,144.79897722133225L40.995057897567754,145.07606250830568L41.44390889644623,144.56804750977312L41.51871739625931,144.90863546236776L41.59352589607239,145.15510079434435L41.66833439588547,144.57914408024098L42.341610894203185,144.64819713990843L42.56603639364242,141.35020234383003L42.79046189308166,143.19998503561143L42.86527039289474,143.096802957234L42.940078892707824,143.20820307725208L43.014887392520905,142.8209829576571L43.3889298915863,142.96268038438595L43.98739789009094,144.50286412072683L44.06220638990402,144.96625875921958L44.5110573887825,146.28886156603508L45.109525387287135,148.33283634981638L45.33395088672638,147.14949318267898L45.40875938653946,147.1549486801705L45.932418885231016,147.61243864414595L46.30646138429642,147.93616242455673L46.90492938280106,148.6203096463156L47.12935488224029,149.41170262780722L47.20416338205337,149.51960211936148L47.87743988037109,151.4320523870823L48.027056879997254,151.45003844742448L48.101865379810334,151.47026828408318L48.176673879623415,149.95198878138913L48.70033337831497,150.23320734052467L49.074375877380376,150.49401470514132L49.22399287700653,151.4423265207424L49.29880137681961,151.73526374998247L49.598035376071934,150.75476724063745L49.97207787513733,152.92831378026384L50.04688637495041,153.8899785955233L50.27131187438965,152.74851644121216L50.72016287326813,154.15002046126503L50.79497137308121,154.55065051845125L50.94458837270737,154.13844097277413L51.16901387214661,153.7248143052129L51.31863087177277,153.96073557555147L51.39343937158585,154.01189747143152L51.543056371212,154.196791809879L51.692673370838165,153.69167221067224L51.76748187065124,153.81211913557578L52.2911413693428,155.3188845229611L52.88960936784744,156.33848263048455L52.96441786766052,156.56479826067087L53.0392263674736,156.76746356060312L53.33846036672592,156.92718289748368L54.08654536485672,156.6978031629853L54.1613538646698,156.84991390498786L54.31097086429596,156.87686452653466L54.610204863548276,156.0795710881504L54.83463036298752,155.36361665005427L54.9094388628006,155.2535809316121L54.98424736261368,154.76508299117154L55.208672862052914,154.48668813174265L56.106374859809875,155.53067254502255L56.55522585868835,153.94328515354053L56.779651358127595,153.68348158359183L56.929268357753756,154.108424138103L57.00407685756684,154.36633399458154L57.15369385719299,154.7039885892285L57.452927856445314,154.580690550058L57.752161855697636,155.03409363574258L57.90177885532379,154.92981708376712L58.275821354389194,154.13070374034416L59.32314035177231,154.15790109293332L59.69718285083771,154.0196283774245L59.771991350650794,154.00579456855542L60.07122534990311,153.49370323579356L60.14603384971619,153.60932730690388L60.44526784896851,151.52613915789075L60.520076348781586,151.28212426583886L60.66969334840775,151.2469809083993L60.89411884784698,151.13889373254787L61.26816134691238,151.23337906888625L61.34296984672546,151.38442907828798L61.41777834653854,151.35562691951756L61.79182084560394,151.28383662144884L61.86662934541702,151.3296126106442L61.9414378452301,151.29681425251295L62.16586334466934,152.35799392151213L62.83913984298706,152.51474615944775L62.98875684261322,152.24673298310765L63.4376078414917,151.83639817158976L63.886458840370175,153.58093004010036L64.41011833906174,153.53653532297957L64.63454383850097,153.47554425284056L64.9337778377533,151.94162368911267L65.23301183700562,151.93914161700306L65.38262883663178,151.71974078243895L65.68186283588409,149.79185400848004L65.75667133569718,150.9193516075578L65.83147983551025,150.61912210528888L65.98109683513641,150.58354644132217L66.35513933420181,149.7171008290911L66.72918183326722,148.8880339153668L66.80399033308029,147.49349741124433L68.00092633008957,144.45905354462082L68.52458582878113,143.39787809324628L68.97343682765961,143.35207468949068L69.04824532747269,143.67092500461237L69.19786232709885,143.82882443645417L69.64671332597733,142.54057629126768L70.31998982429504,143.24812078580135L70.4696068239212,143.4788143103798L70.54441532373428,143.44601173462388L70.76884082317352,143.49489822200243L71.217691822052,143.2335868512395L71.81615982055663,143.48867511682366L71.89096832036972,143.26949781636628L72.11539381980896,142.6122379517844L72.19020231962203,141.4756851125719L72.86347881793975,141.53950410004225L72.93828731775284,142.04627489930155L73.76118081569672,141.2845128398251L73.98560631513595,142.32090974635028L74.06041481494904,142.31504724807954L74.21003181457519,141.29429351140058L74.35964881420135,142.7150910554387L75.40696781158448,147.86191114250173L75.78101031064986,148.59316079641L75.93062731027602,148.59316079641L76.15505280971527,148.09049374594022L76.30466980934143,148.16866320129995L76.67871230840683,147.17045899484003L76.75352080821992,147.29204889602514L77.20237180709839,149.25147295834338L77.35198880672455,149.26192844986363L77.42679730653762,149.29392545931043L77.57641430616378,149.05123701021253L77.65122280597687,148.5247677950011L77.8756483054161,148.75500581611678L78.02526530504227,148.333342464775L78.39930780410766,148.6697191191514L78.47411630392074,148.68600547675751L79.14739280223847,151.1713715512053L79.29700980186463,152.07076735605526L79.59624380111694,153.07548357498277L79.67105230093001,154.26409666412687L79.7458608007431,154.31007720811797L80.04509479999543,154.67277605796758L80.34432879924775,156.70656738701885L80.41913729906082,156.96477458603556L80.64356279850007,158.66649545548339L80.79317979812623,159.63791563657037L80.94279679775238,159.147256163494L81.01760529756545,159.06162151249455L81.09241379737854,158.9447237187384L81.16722229719161,158.8473661800098L81.31683929681778,158.7964046213009L81.39164779663086,157.8895921234948L81.76569029569626,156.28592891846827L81.84049879550935,155.63569350774966L82.36415829420089,145.97960423819168L82.51377529382705,143.97978587573814L82.96262629270554,142.73766589140573L83.1122432923317,143.51168858575485L83.48628579139711,141.93437077313715L83.86032829046249,140.0791072781163L84.00994529008865,137.6585492241205L84.9076472878456,130.30127416407336L85.43130678653716,129.03027188610204L85.50611528635025,129.6105959505359L85.65573228597641,127.10293551216064L85.73054078578949,126.94727142138608L85.80534928560257,124.25330163149151L85.88015778541565,123.30842717998443L86.02977478504181,120.56009642590884L86.25420028448104,119.35567357074468L86.55343428373337,116.73218450646335L86.62824278354644,116.52598905469472L86.92747678279876,115.16901893337622L87.15190228223801,112.46027902193909L87.45113628149034,109.10786210612218L87.67556178092956,107.85976574765333L87.75037028074264,107.10994378357582L87.8999872803688,104.25887169289926L87.97479578018188,103.3172363771274L88.12441277980804,102.64575679102045L88.19922127962113,102.75613202824734L88.2740297794342,102.82088100195415L88.49845527887345,103.10605991064095L88.57326377868652,102.55772652921688L88.64807227849961,102.55017698108405L88.79768927812577,100.50946242116125L88.94730627775192,101.8803169628447L89.022114777565,102.43178825701226L89.54577427625657,101.64627253547769L89.7701997756958,102.7808641792255L90.06943377494812,103.5916603429434L90.29385927438736,103.47315352538125L90.44347627401352,104.12206881958282L90.59309327363968,103.08971239747734L90.892327272892,103.55053850255509L91.19156127214433,105.65947735890059L91.41598677158356,102.0894352284994L91.49079527139665,102.0129528230018L91.56560377120971,102.91040430288568L91.6404122710228,102.41266554682552L92.08926326990128,100.69044069511638L92.53811426877976,99.22304472507513L92.68773126840593,98.10095412080535L92.762539768219,97.82556853656797L93.06177376747131,96.50043304614701L93.28619926691056,100.87574625196775L93.36100776672363,101.6421476985649L93.58543326616287,101.87860460723469L93.66024176597595,101.56436626467348L93.73505026578903,99.9681049909169L93.88466726541519,96.9662359483179L94.03428426504135,95.15225245460998L94.48313526391982,94.4732148851209L94.70756076335907,92.69589098491606L94.78236926317214,91.61041779790285L95.00679476261139,91.16155287634729L95.08160326242447,91.51802651220578L95.15641176223755,91.4202113612021L95.30602876186371,91.87018130041734L95.38083726167679,93.84395372181261L95.82968826055526,94.2330380315052L96.12892225980758,94.94643237143565L96.20373075962067,95.85322167230616L96.35334775924683,94.25292834937919L96.50296475887299,91.37476223791755L96.65258175849915,89.26347838226376L96.72739025831223,88.89446153068066L96.80219875812531,89.88287873912815L96.87700725793837,90.43090845157703L96.95181575775146,92.28221792348359L97.1762412571907,97.32449785703021L97.32585825681686,98.4852978203855L97.47547525644302,94.67677432148002L97.69990075588227,94.23236321156037L97.84951775550843,94.8503464465406L97.9243262553215,94.98017336867734L97.99913475513459,94.21027129361637L98.44798575401306,92.2196705498468L98.52279425382613,92.42671374417114L98.6724112534523,88.24040916964906L98.89683675289155,91.4742644387833L99.19607075214387,96.80500459299846L99.4204962515831,98.08173862287622L99.64492175102234,91.60855360780523L99.71973025083541,92.40413258176714L99.86934725046157,92.61805050427948L100.01896425008773,93.86970653795733L100.1685812497139,96.0877047326373L100.5426237487793,94.61555128198496L100.76704924821854,93.59474271618546L100.91666624784469,92.47261837091845L102.0387937450409,98.1017976457364L102.33802774429321,104.24998937537539L102.48764474391938,104.24098052911187L102.56245324373245,104.6342402872131L102.86168724298477,104.99710784204889L103.01130424261093,102.19194881336898L103.31053824186326,102.1169425765007L103.46015524148942,101.66407091152269L103.60977224111556,98.48924551706277L103.8341977405548,99.58188023074054L103.98381474018096,101.82565654731316L104.05862323999405,102.08752886215525L104.20824023962021,102.4187979730742L104.50747423887253,103.27312002323389L104.80670823812486,102.54503991425399L105.3303677368164,107.70405526300756L105.40517623662949,107.72894346609796L105.47998473644256,108.2498116757673L105.55479323625565,109.31709424764257L105.70441023588181,109.49404890767664L105.92883573532104,109.29094919240492L106.00364423513413,108.95506600011318L106.0784527349472,109.84026106274901L106.30287823438644,106.44391336852341L106.37768673419951,106.19402754295142L106.4524952340126,106.0346519424803L106.52730373382568,106.02622512841917L107.12577173233032,107.5454725759716L107.20058023214341,107.62846277631219L107.42500573158264,105.13343834140396L107.9486652302742,103.85296749608169L108.17309072971344,103.57432590561048L108.77155872821808,101.14407996778164L108.84636722803117,100.71471734263177L108.99598422765732,90.01632438321904L109.07079272747039,89.65638385989395L109.14560122728348,89.1860765345913L109.37002672672271,87.58876928992022L109.4448352265358,87.63103832421474L109.59445222616196,89.27672172368112L109.74406922578812,87.86764706737212L110.11811172485352,79.19059290021615L110.19292022466661,78.64240291803036L110.49215422391892,80.41095415895234L110.56696272373199,79.82359087896894L110.64177122354508,78.2168530255688L110.71657972335815,71.33444876070125L110.9410052227974,61.96114911546292L111.01581372261047,62.9693891597899L111.09062222242356,62.715319450559946L111.3150477218628,63.41671886597097L111.38985622167588,63.739569598078106L111.98832422018052,57.80324602536903L112.28755821943282,55.822244595314714L112.43717521905899,53.643099158958556L112.58679221868515,52.31124077483719L112.66160071849824,49.237005728404064L112.88602621793746,47.22607603379638L113.1104517173767,44.11539227509294L113.18526021718978,44.227538914675016L113.26006871700287,44.35551008196344L113.33487721681594,44.353046989164795L113.55930271625519,44.35570409269758L114.15777071475983,53.70554530960362L114.30738771438598,56.571185075839274L114.6066217136383,57.70947979403436L114.68143021345138,57.78224225458607L114.90585571289063,62.19990884719446L115.05547271251679,62.11138934093086L115.20508971214295,55.73745346924634L115.57913221120833,49.508376133969705L116.1027917098999,48.739368195335636L116.17760020971298,48.49691382440616L116.40202570915223,54.86440516561752L116.55164270877839,61.820128617491264L117.00049370765686,63.217512018256L117.07530220746993,61.065646178169764L117.2249192070961,60.886970727276356L117.37453620672225,66.1749694732356L117.67377020597458,67.58133641451595L117.9730042052269,62.854762556910565L118.12262120485306,62.687803667309346L118.49666370391846,79.74293302506267L118.57147220373153,80.25809900619815L118.64628070354462,80.45377148445205L119.16994020223618,82.6554137307191L119.24474870204926,81.6804929211683L119.69359970092773,72.29238097814086L119.99283370018006,76.3001872420051L120.06764219999313,76.52261633107163L120.14245069980622,72.87769449254183L120.81572719812394,65.65360358385696L120.96534419775008,65.4586059255479L121.18976969718933,63.178768918173226L121.6386206960678,59.51587156336291L121.71342919588089,59.88630553683015L122.01266319513321,54.96745017119364L122.23708869457244,49.05009747418372L122.31189719438552,48.027635599519364L122.3867056941986,45.70334482827875L123.43402469158173,56.36275006537871L123.65845019102096,53.432437242680045L123.8828756904602,53.753449090437506L123.95768419027328,53.887324932243246L124.03249269008636,54.02205273422933L124.2569181895256,47.34098099990297L124.33172668933868,40.73773287571456L124.40653518915177,43.731841488947985L125.7530881857872,39.99878816562286L125.90270518541337,40.734788973705236L125.97751368522644,40.94162972204614L126.1271306848526,41.492831088235754L126.20193918466569,41.492831088235754L126.65079018354416,45.158916967285414L126.72559868335723,46.13383777683621L126.8752156829834,49.25752868997633L127.02483268260956,50.79846316350586L127.17444968223572,54.87233429996932L127.32406668186188,51.57179838503615L127.54849218130113,48.03733613622635L127.69810918092728,50.633469686993976L127.84772618055344,48.92209256589805L127.9973431801796,49.08308773423678L128.14696017980577,53.64857363576103L128.29657717943192,61.46256683447174L129.0446621775627,55.10009446660005L129.34389617681504,54.811457105696L129.64313017606736,54.5395468441745L129.71793867588042,60.51700069252119L129.7927471756935,62.18444703520845L129.94236417531968,66.94662608015314L130.16678967475892,68.95965615183913L130.39121517419815,64.8700195344145L130.54083217382433,63.8929224305416L130.76525767326356,55.875403536469L131.21410867214203,48.91892091215732L131.36372567176818,47.239294069465814L131.51334267139435,44.69248142141623L131.58815117120741,46.271855326053355L131.81257667064668,60.12164899259096L131.88738517045974,58.219036334378416L131.96219367027282,58.736842548548076L132.18661916971206,61.65730300005216L132.7850871682167,64.90366774391377L133.15912966728212,64.12078382016408L133.30874666690826,65.14900697010744L133.75759766578673,61.04875037380098L134.05683166503906,61.5310104473765L134.13164016485214,61.17431749503593L134.20644866466523,60.74263517632571L134.2812571644783,56.556389648548794L134.7301081633568,55.968672088094344L134.95453366279602,48.49421454462682L135.47819316148758,47.13304366915171L135.62781016111373,47.685164477516174L135.852235660553,39.092893001179256L135.92704416036605,37.28670367783415L136.15146965980531,39.815321493121154L136.60032065868378,44.44673730325567L136.74993765830993,38.950252935339996L136.97436315774917,44.34751346561715L137.19878865718843,38.95138325874759L137.2735971570015,36.211816728705536L137.34840565681458,35.759915117398215L137.42321415662767,38.54855792792832L137.49802265644075,39.769880805085904L137.94687365531922,43.674279347653645L138.3957246541977,43.12593753098027L138.8445756530762,51.33227948086668L139.29342665195466,48.37419781743811L139.66746915102004,51.187699307686024L139.96670315027237,39.90617756344373L140.49036264896392,36.5119428991704L140.63997964859007,33.344439301111926L140.86440514802933,37.2086438807155L141.01402214765548,38.79670609214236L141.08883064746857,38.79670609214236L141.3132561469078,39.46557918621238L141.3880646467209,38.93506105133192L141.53768164634704,37.05012024042471L141.61249014616013,37.066332789599336L141.83691564559936,34.28736521002829L143.1086601424217,41.99940155032391L143.1834686422348,44.61137649929651L143.2582771420479,45.19465711861367L143.63231964111327,47.65421554779622L143.85674514055253,38.83061579437026L144.15597913980486,34.29964693302427L144.23078763961792,33.73451897022314L144.305596139431,32.36261002237588L144.60483013868333,23.667993666155592L144.67963863849639,31.481092728439403L144.75444713830947,34.220659258481454L144.90406413793565,24.86073791864946L145.0536811375618,14.319493653889916L145.20329813718797,12.451541435093892L145.35291513681412,8.794219780077773L145.95138313531876,14.51529266088346L146.32542563438415,12.181124212700334L146.40023413419723,4.8388470259271426L147.07351063251494,-7.885591594857563L148.64448912858964,-0.04602272023767786L148.86891462802888,0.06380422578403465L149.01853162765502,-2.6727087440076502L149.0933401274681,-3.9030573379273688L149.69180812597273,8.552752333317585L149.76661662578582,11.42772148529057L149.8414251255989,13.169381151410922L149.916233625412,13.711194085118033L150.14065912485123,11.498442615509154L150.29027612447737,18.907054602859528L150.36508462429046,8.854919834115568L150.43989312410355,2.379178938503533L151.0383611226082,-10.136267945366134L151.41240362167358,4.8061182586027L151.48721212148666,6.5795619441247295L151.7116376209259,6.3154374177167565L152.23529711961748,2.956234343829597L152.3849141192436,10.72941780637647L153.13299911737442,17.951087798509246L153.50704161643984,15.698100189689645L153.5818501162529,15.396776213822704L153.73146711587907,17.86867541274641L153.80627561569213,19.831456704290208L154.2551266145706,35.433799943807934L154.77878611326219,47.144085410499066L154.85359461307524,59.09938956391007L155.52687111139298,60.01684101990895L155.8261051106453,54.92626084881086L155.97572211027145,53.56120132340366L156.27495610952377,47.73217412192317L156.94823260784148,58.19081199018573L157.09784960746765,57.511327352483214L157.32227510690691,57.58163515548559L157.47189210653306,57.58163515548559L157.54670060634612,61.3227863181487L157.92074310541153,74.12435685862793L158.14516860485077,70.5393084197035L158.51921110391618,82.80042410161458L158.66882810354232,84.19031700099167L158.96806210279465,84.43259423168566L159.1176791024208,73.28385174683872L159.19248760223388,75.11615660204889L159.26729610204697,75.40947552632024L159.5665301012993,78.3302312115502L159.94057260036467,80.51332434458364L160.16499809980394,87.3783435606224L160.31461509943006,88.69910959190055L160.53904059886932,94.27077733692003L160.76346609830856,99.23825347958181L161.06270009756088,99.27531796505183L161.58635959625246,99.1165328320324L161.66116809606552,99.06720349406505L161.73597659587858,99.03262740714162L162.25963609457017,79.58623139862293L162.40925309419632,71.27784823782831L162.5588700938225,71.91889344442325L162.78329559326173,73.70720003923024L162.85810409307481,66.56805209110134L163.30695509195326,61.41376048196162L163.38176359176637,61.5064891776311L163.98023159027102,62.546774734088366L164.20465708971022,48.80697671855868L164.27946558952334,44.815880683578406L164.3542740893364,44.408247260652196L164.42908258914946,39.5141493517418L164.57869958877563,31.880400560296227L164.80312508821487,29.297881501915622L165.32678458690643,33.24588184816893L165.40159308671952,33.24588184816893L165.77563558578493,30.5446113499962L165.92525258541107,34.13343878061168L166.00006108522413,36.595510914088756L166.07486958503725,38.684272654083735L166.74814608335495,29.054204019836106L167.04738008260728,24.348397746032976L167.19699708223342,13.979030121222612L167.2718055820465,18.33526279310318L167.42142258167266,17.478072758177955L167.79546508073807,17.26258587929387L167.87027358055116,17.54148896249372L168.0198905801773,14.071986568623478L168.0946990799904,14.393605754331285L168.16950757980348,14.709809509981824L168.3939330792427,3.139667275334072L168.54355007886886,-14.672559449026986L170.26414557456968,-9.942004153747083L170.71299657344818,8.714135523124602L170.78780507326127,6.3845558505663575L171.23665607213974,12.10292945159271L171.31146457195283,16.42083235060672L171.38627307176588,16.403523219021736L171.53589007139206,16.358175318728893L171.98474107027053,48.87708207557762L172.43359206914903,53.72183377602206L172.5084005689621,53.72183377602206L173.10686856746673,56.06062474082728L173.18167706727982,57.90474738032136L173.40610256671906,53.82549455479784L173.63052806615832,50.76648513337003L173.9297620654106,41.22995497872571L174.07937906503676,44.70961341276571L174.37861306428908,56.805254808954224L174.82746406316758,48.54358605884071L175.1266980624199,41.88527262715388L175.20150656223296,41.88527262715388L175.42593206167223,35.616262821641705L175.7999745607376,16.854184848680422L176.09920855998993,28.423955932358506L176.24882555961608,19.755876870468814L176.39844255924226,19.755876870468814L176.47325105905531,23.717306133624334L176.5480595588684,23.87516338921959L177.07171905755996,30.711106300885337L177.22133605718614,28.64306996844607L177.29614455699922,23.84542070015105L177.74499555587767,11.923882849729674L177.81980405569075,6.755015129781536L177.89461255550384,7.152804616762486L178.04422955513,7.185465902092441L178.19384655475616,-3.1080519609186013L181.85946304559707,-4.862111443525274L182.1586970448494,15.49508060928637L182.23350554466248,15.54457865223994L182.30831404447554,14.73128565472617L182.4579310441017,14.212770879614444L182.5327395439148,23.910507083830264L182.90678204298018,27.877857892001696L183.13120754241942,29.52548139880946L183.2808245420456,32.12728343711368L183.50525004148483,39.95925215210491L183.72967554092406,44.50451032578277L183.95410104036333,42.88282521060455L184.10371803998947,38.47574485588075L184.55256903886794,38.331662362409396L184.62737753868103,30.931823034341864L184.7769945383072,38.84951075282561L184.92661153793335,37.402005100658336L185.59988803625106,56.00006808602776L185.67469653606418,56.535925733721704L185.74950503587723,56.75163192908784L185.8243135356903,51.76914947790283L186.87163253307344,29.787294666906387L187.17086653232573,28.509624324355173L187.47010053157805,23.020166519115076L187.54490903139114,23.020166519115076L187.76933453083038,42.648822959484086L187.84414303064347,42.94201535501579L188.0685685300827,46.05677333913618L188.21818552970888,42.72543189372137L188.367802529335,44.654877079990364L188.74184502840043,29.56696595491813L188.96627052783964,30.468913422684448L189.11588752746582,20.865398953266055L189.1906960272789,19.38680097214056L189.34031302690508,18.55584456257075L189.56473852634429,9.010853852868062L189.78916402578352,12.455708448253253L189.9387810254097,8.758251877018116L190.16320652484893,12.501646815997807L190.38763202428817,14.014930542287763L190.46244052410125,17.97374487815705L190.6868660235405,26.09037795162713L190.91129152297975,20.86008474620049L191.50975952148437,34.97752043810851L191.58456802129746,41.571202989578886L191.73418502092363,38.88064525803039L192.10822751998901,44.82734418739128L192.4822700190544,49.45919863048994L192.55707851886748,51.01731570686479L192.63188701868057,46.71769199310646L192.78150401830672,44.7967748438903L192.8563125181198,44.7967748438903L193.00592951774598,47.580989148532446L193.15554651737213,43.076810638996356L193.37997201681137,51.679406860489244L193.45478051662445,51.679406860489244L193.75401451587675,63.60200755232372L194.1280570149422,65.02888058467771L194.27767401456833,65.02888058467771L194.72652501344683,73.64445865485932L194.8013335132599,73.64445865485932L194.87614201307298,73.64445865485932L194.95095051288604,73.64445865485932L195.02575901269915,71.74034452226952L195.25018451213836,72.08020915223578L195.39980151176454,72.63850456309547L195.62422701120377,73.49696832066657L195.69903551101686,74.14135388598844L195.9234610104561,68.73133082350459L196.07307801008224,77.81320947556641L196.22269500970842,86.77403386477435L196.2975035095215,86.77403386477435L196.37231200933456,84.73412908878537L196.6715460085869,89.01481566784177L196.9707800078392,93.6583782369833L197.04558850765227,93.06229290921293L197.12039700746536,92.48864534460826L197.41963100671768,95.04980635173489L197.49443950653077,95.04980635173489L197.64405650615691,94.45291967528L197.71886500596997,92.8715297460577L197.86848200559615,89.59044551603438L197.94329050540924,89.25587822263505L198.0180990052223,88.69645248836777L198.16771600484847,91.34467370362727L198.24252450466156,91.58696780481988L198.39214150428774,86.80387777683463L198.61656700372694,77.43521751871704L198.76618400335312,79.9099087851625L198.8409925031662,81.98143731081628L199.28984350204468,82.93117890117547L199.36465200185776,80.66826300391749L199.43946050167082,78.31018062393933L199.73869450092315,82.74981260575204L199.88831150054932,79.26313604428579L200.03792850017547,81.28449170704117L200.3371624994278,74.48451669843507L200.86082199811935,82.86766147386798L201.0852474975586,82.7789057806237L201.23486449718476,84.20560167274216L201.38448149681093,82.1715425245253L201.459289996624,84.11278862457958L201.75852399587632,80.74539492361201L201.90814099550246,81.17492625374807L201.98294949531555,81.17492625374807L202.05775799512864,81.17492625374807L202.28218349456787,80.0853704060686L202.5814174938202,74.90815178930315L202.65622599363329,74.72048436264485L202.88065149307252,73.49442087537481L203.10507699251173,73.88352205556602L203.85316199064255,82.54408531032014L203.92797049045564,87.35060846088972L204.15239598989487,89.8131614035775L204.22720448970796,89.8131614035775L204.37682148933413,91.02830967823984L204.60124698877334,94.91724640882158L204.75086398839952,94.93917805702868L204.82567248821258,93.4022503269216L204.97528948783875,80.34292387326377L205.05009798765184,80.10898910413779L205.1249064874649,79.25583111838296L205.19971498727799,83.03480593895402L205.34933198690416,86.31588173372802L205.4989489865303,84.62752440800023L205.5737574863434,83.90819165255526L205.8729914855957,95.51608162786715L205.94779998540878,95.73325555661332L206.09741698503493,102.68060280592181L206.3218424844742,103.68729919962497L206.69588498353957,99.8570043222493L207.59358698129654,104.62538327543716L207.89282098054886,113.04751155555819L208.1172464799881,112.28978576287682L208.49128897905348,112.21082761170659L208.64090597867965,109.58522973509766L208.8653314781189,111.2940172346553L209.3141824769974,113.59581541360967L209.38899097681045,113.16150129711458L209.53860797643662,110.79920972773051L209.76303347587583,111.51253236804182L209.9874589753151,118.51585593177428L210.06226747512815,117.68564604176845L210.13707597494127,117.41182519627814L210.81035247325897,116.92440275012463L210.88516097307206,115.68117353050788L210.95996947288512,115.68117353050788L211.03477797269824,116.84682376221667L211.18439497232436,117.91226744974229L211.33401197195053,114.75105654766939L211.55843747138977,117.97901135991101L211.93247997045518,115.18852544740658L212.08209697008132,115.0000735425624L212.1569054698944,114.94119128475099L212.2317139697075,116.12147667401337L212.3065224695206,117.81857291802676L212.9049904680252,125.79569118552708L213.57826696634294,119.48295726521432L213.95230946540832,114.30850962784734L214.55077746391297,104.28053341312842L214.62558596372605,101.07762707371411L214.8500114631653,96.4309181565798L215.14924546241758,93.96907377483411L215.37367096185685,86.90114463663313L215.67290496110917,84.635099261881L215.8973304605484,82.25932816409886L216.12175595998764,76.58065928157667L216.19656445980073,75.60638798622277L216.2713729596138,74.7482785091227L216.42098995923993,74.7482785091227L217.01945795774458,72.4888969813258L217.16907495737075,73.07266684510296L217.3186919569969,68.28043300686522L217.46830895662308,66.57652108140901L217.84235145568846,61.34953449371206L218.21639395475387,65.12200573706478L218.81486195325851,69.341519888122L218.8896704530716,69.26481816614232L218.9644789528847,69.13440921180317L219.26371295213698,73.79474105657381L219.48813845157625,72.82766502888171L219.71256395101545,72.00117086619711L220.3110319495201,79.23596610625691L220.46064894914628,78.71325901223791L220.7598829483986,80.5358802012397L220.83469144821166,80.08306758300687L220.90949994802475,78.427751128828L220.98430844783783,84.09135465608178L221.13392544746398,87.29610831509508L221.28354244709016,87.02908206292432L221.5079679465294,93.62615558461748L221.95681894540786,105.28999656860542L222.106435945034,108.5186135479179L222.6300954437256,115.46460693971208L222.92932944297792,124.4268821918014L223.0789464426041,122.70289015536173L223.3781804418564,124.37004548194777L223.45298894166947,127.93717745133686L223.60260594129562,132.09513958817593L223.82703144073486,134.17304094468372L223.97664844036103,132.78045298315195L224.20107393980027,136.97240917471206L224.35069093942644,136.51500778085435L224.57511643886565,139.2658733273477L224.64992493867874,138.93120902858132L224.72473343849182,142.9782307664897L225.47281843662262,146.8001093738659L225.5476269364357,146.11718526325703L225.69724393606185,146.12283898910735L225.7720524358749,146.13392501551357L225.84686093568803,145.38093561532L225.9216694355011,144.9224882505478L226.14609493494035,145.02307438094996L226.2209034347534,144.00422911942744L226.37052043437956,144.13691137345575L226.59494593381882,141.06168729404098L226.744562933445,139.56735757295155L226.89417993307114,139.35606301297477L227.04379693269732,139.81884187826788L227.71707343101502,139.91656424152913L228.01630743026735,138.90388725606485L228.1659244298935,138.90388725606485L228.31554142951967,135.18346571858208L228.4651584291458,135.57119617076037L228.61477542877196,137.77380847069813L228.68958392858505,138.12204508560498L228.9140094280243,139.11036950631004L229.36286042690276,141.25463940439226L229.43766892671587,141.10405333370258L229.7369029259682,142.21582973687802L229.9613284254074,142.10315800302638L230.18575392484664,144.14022853524708L230.3353709244728,144.14022853524708L230.4101794242859,144.93304918268447L230.70941342353822,147.317017233984L231.00864742279055,146.15553612424688L231.23307292222978,146.15553612424688L231.30788142204284,145.6876497154963L231.38268992185593,145.38347673417476L231.457498421669,145.34390487084724L231.68192392110825,144.93508629539292L231.98115792036057,144.34371627198706L232.43000891923907,141.30074647712306L232.50481741905213,141.30074647712306L232.72924291849137,141.16791238860716L233.10328541755678,146.4097028388439L233.327710916996,146.6785511048657L233.4025194168091,146.67527401050862L233.55213641643525,146.52169553512604L233.70175341606142,147.6103235053814L233.85137041568754,147.1067623184847L233.92617891550063,147.1067623184847L234.15060441493986,150.695421044114L234.22541291475295,150.63030513706215L234.37502991437913,151.08275293076233L234.59945541381836,151.4499330068081L234.67426391363145,151.4499330068081L234.8238809132576,151.4499330068081L235.27273191213607,151.3754328848984L235.49715741157533,153.00559964325825L235.72158291101454,154.53861552649764L235.79639141082765,154.48437265580694L236.09562541007998,157.5427684128474L236.54447640895842,157.10322865940452L237.51698690652847,152.60235044116112L237.81622090578077,151.56235590080507L237.96583790540694,149.8728935574176L238.33988040447235,146.3766197910484L238.5643059039116,148.14884247423277L238.71392290353774,142.18857122873138L239.01315690279006,142.74840396377792L239.38719940185547,135.78730725809342L239.6864334011078,132.9141010732263L239.98566740036011,126.92491801071345L240.21009289979935,123.28245504735764L240.88336939811708,117.29339851358445L241.33222039699555,111.45660244748906L242.08030539512635,103.8392096044564L242.15511389493943,103.8392096044564L242.2299223947525,103.8392096044564L242.45434789419176,98.8784479202457L242.52915639400481,97.57693956314324L242.90319889307023,96.01673054493939L243.0528158926964,96.5012343948315L243.3520498919487,93.6120855887677L243.42685839176178,92.9357135580607L243.50166689157484,92.34526297682969L243.57647539138793,90.32857200694298L243.65128389120102,90.58765225426332L243.7260923910141,91.2979171166996L243.80090089082717,91.2979171166996L244.3993688893318,81.24592574719391L244.62379438877105,80.15836061835171L245.07264538764952,82.87522789249942L246.11996438503266,98.00431146945584L246.19477288484572,98.29480458520821L246.2695813846588,98.03267077763748L246.79324088335036,104.24766968181503L247.16728338241575,113.00117251347137L247.391708881855,119.02994641862269L247.54132588148119,119.66682039443363L247.61613438129424,123.99697549307102L247.69094288110733,124.14296857051117L247.7657513809204,126.134581544198L248.06498538017271,126.1660914179971L248.66345337867736,131.279817913203L248.73826187849045,132.3080199750231L248.96268737792968,135.73416518743775L249.11230437755586,137.272387728314L249.18711287736892,137.1935392353848L249.3367298769951,136.9799629404695L250.23443187475206,148.08499396338985L250.3840488743782,147.85636285726778L250.60847437381744,148.50120181724012L250.7580913734436,151.79874532748036L251.13213387250903,154.55555139830062L251.35655937194824,155.30798407203972L251.58098487138747,161.84577677039155L252.2542613697052,165.15472473769952L252.3290698695183,164.66330292896671L252.5534953689575,163.58399801801173L252.77792086839676,163.19521526848197L252.9275378680229,162.56808822324925L253.002346367836,162.68509040321564L253.45119736671447,162.77947557096846L253.67562286615373,161.8673688998139L253.7504313659668,162.3784680363756L254.12447386503217,161.04784857949667L254.27409086465835,160.27846210904983L254.4237078642845,159.25537180831185L254.64813336372376,158.48979174411633L254.72294186353682,157.74542527753033L254.79775036334993,157.78996550270168L255.32140986204146,157.78158719132412L255.69545236110687,157.8135378068997L255.84506936073302,158.16850785956856L255.9198778605461,158.37877542794183L255.9946863603592,157.8350434750166L256.29392035961155,157.96929468541666L256.3687288594246,157.27517067253586L256.8175798583031,155.59201578682027L257.11681385755537,154.95335564696788L257.3412393569946,155.92734225265755L257.4160478568077,154.9178917500545L257.5656648564339,155.0829927759951L258.0893243551254,152.67383074381766L258.1641328549385,152.67383074381766L258.5381753540039,144.3553843305957L259.43587735176084,129.0334941513386L259.80991985082625,124.1539470474887L259.9595368504524,123.50307055782245L260.0343453502655,123.36065402608993L260.2587708497048,118.97170523975888L260.33357934951783,118.51308917000047L261.00685584783554,114.40429610139186L261.455706846714,115.88073465869388L261.75494084596636,116.75350881672011L261.8297493457794,116.18734331825381L262.1289833450317,112.33563556050363L262.2786003446579,107.99410131054647L262.42821734428406,107.8832157407363L262.5778343439102,108.11790546467556L262.72745134353636,106.8503152450503L262.95187684297565,102.61311237618911L263.0266853427887,102.95449535103126L263.10149384260177,103.16005394147696L263.325919342041,97.43865208594816L263.40072784185406,97.44499539342961L263.4755363416672,97.94466582158184L263.55034484148024,98.22001766482198L263.7747703409195,90.28202630124805L263.8495788407326,91.48998774349793L263.92438734054565,84.26670661874687L264.1488128399849,75.21718558303984L264.223621339798,73.39702748683668L264.3732383394241,72.42559043525107L264.44804683923724,72.42559043525107L264.74728083848953,66.68062892839826L264.8968978381157,65.50929333865425L264.97170633792877,65.50929333865425L265.0465148377419,65.50929333865425L265.3457488369942,65.93021227924437L265.49536583662035,61.2138535085539L265.6449828362465,51.70820480163502L265.8694083356857,50.617704206032805L266.54268483400347,55.54834361495595L266.7671103334427,51.80323632036626L266.9167273330689,55.72216036224654L267.066344332695,56.287667911266645L267.21596133232117,60.91344897486179L267.3655783319473,61.32551933892527L267.5900038313866,61.00879259781751L267.73962083101276,64.14828273291606L268.03885483026505,63.92122269197807L268.3380888295174,59.910135116132096L268.4877058291435,61.24457468654246L268.71213132858276,61.66519839340672L269.0113653278351,59.488389521109546L269.3105993270874,55.14680044203188L269.53502482652664,59.304070888427496" fill="none"></path></g></g></g></g></g></g><g transform="translate(30, 176)" clip-path="url(#clip_1)"><clipPath id="clip_1"><rect width="299" height="23"></rect></clipPath><g><g><line x1="0" y1="0" x2="0" y2="5" style="visibility: inherit;" fill="rgb(0, 0, 0)" stroke="rgb(204, 204, 204)" stroke-width="1px"></line><line x1="37.40424990653992" y1="0" x2="37.40424990653992" y2="5" style="visibility: inherit;" fill="rgb(0, 0, 0)" stroke="rgb(204, 204, 204)" stroke-width="1px"></line><line x1="74.80849981307983" y1="0" x2="74.80849981307983" y2="5" style="visibility: inherit;" fill="rgb(0, 0, 0)" stroke="rgb(204, 204, 204)" stroke-width="1px"></line><line x1="112.21274971961975" y1="0" x2="112.21274971961975" y2="5" style="visibility: inherit;" fill="rgb(0, 0, 0)" stroke="rgb(204, 204, 204)" stroke-width="1px"></line><line x1="149.61699962615967" y1="0" x2="149.61699962615967" y2="5" style="visibility: inherit;" fill="rgb(0, 0, 0)" stroke="rgb(204, 204, 204)" stroke-width="1px"></line><line x1="187.02124953269958" y1="0" x2="187.02124953269958" y2="5" style="visibility: inherit;" fill="rgb(0, 0, 0)" stroke="rgb(204, 204, 204)" stroke-width="1px"></line><line x1="224.4254994392395" y1="0" x2="224.4254994392395" y2="5" style="visibility: inherit;" fill="rgb(0, 0, 0)" stroke="rgb(204, 204, 204)" stroke-width="1px"></line><line x1="261.8297493457794" y1="0" x2="261.8297493457794" y2="5" style="visibility: inherit;" fill="rgb(0, 0, 0)" stroke="rgb(204, 204, 204)" stroke-width="1px"></line><line x1="299.23399925231934" y1="0" x2="299.23399925231934" y2="5" style="visibility: inherit;" fill="rgb(0, 0, 0)" stroke="rgb(204, 204, 204)" stroke-width="1px"></line></g><g transform="translate(0, 8)"><text style="text-anchor: middle; visibility: hidden; font-family: Roboto, sans-serif; font-size: 12px; font-weight: 200;" x="0" y="0" dx="0em" dy="0.95em" fill="rgb(33, 33, 33)" stroke="none" stroke-width="1px">-500</text><text style="text-anchor: middle; visibility: inherit; font-family: Roboto, sans-serif; font-size: 12px; font-weight: 200;" x="37.40424990653992" y="0" dx="0em" dy="0.95em" fill="rgb(33, 33, 33)" stroke="none" stroke-width="1px">0</text><text style="text-anchor: middle; visibility: inherit; font-family: Roboto, sans-serif; font-size: 12px; font-weight: 200;" x="74.80849981307983" y="0" dx="0em" dy="0.95em" fill="rgb(33, 33, 33)" stroke="none" stroke-width="1px">500</text><text style="text-anchor: middle; visibility: inherit; font-family: Roboto, sans-serif; font-size: 12px; font-weight: 200;" x="112.21274971961975" y="0" dx="0em" dy="0.95em" fill="rgb(33, 33, 33)" stroke="none" stroke-width="1px">1k</text><text style="text-anchor: middle; visibility: inherit; font-family: Roboto, sans-serif; font-size: 12px; font-weight: 200;" x="149.61699962615967" y="0" dx="0em" dy="0.95em" fill="rgb(33, 33, 33)" stroke="none" stroke-width="1px">1.5k</text><text style="text-anchor: middle; visibility: inherit; font-family: Roboto, sans-serif; font-size: 12px; font-weight: 200;" x="187.02124953269958" y="0" dx="0em" dy="0.95em" fill="rgb(33, 33, 33)" stroke="none" stroke-width="1px">2k</text><text style="text-anchor: middle; visibility: inherit; font-family: Roboto, sans-serif; font-size: 12px; font-weight: 200;" x="224.4254994392395" y="0" dx="0em" dy="0.95em" fill="rgb(33, 33, 33)" stroke="none" stroke-width="1px">2.5k</text><text style="text-anchor: middle; visibility: inherit; font-family: Roboto, sans-serif; font-size: 12px; font-weight: 200;" x="261.8297493457794" y="0" dx="0em" dy="0.95em" fill="rgb(33, 33, 33)" stroke="none" stroke-width="1px">3k</text><text style="text-anchor: middle; visibility: hidden; font-family: Roboto, sans-serif; font-size: 12px; font-weight: 200;" x="299.23399925231934" y="0" dx="0em" dy="0.95em" fill="rgb(33, 33, 33)" stroke="none" stroke-width="1px">3.5k</text></g><line x1="0" y1="0" x2="299.23399925231934" y2="0" fill="rgb(0, 0, 0)" stroke="rgb(204, 204, 204)" stroke-width="1px"></line></g></g></g></g></svg>